<?xml version="1.0" standalone="no"?><!DOCTYPE svg PUBLIC "-//W3C//DTD SVG 1.1//EN" "http://www.w3.org/Graphics/SVG/1.1/DTD/svg11.dtd"><svg t="1502276952812" class="icon" style="" viewBox="0 0 1024 1024" version="1.1" xmlns="http://www.w3.org/2000/svg" p-id="3058" xmlns:xlink="http://www.w3.org/1999/xlink" width="200" height="200"><defs><style type="text/css"></style></defs><path d="M954.513512 866.050547l-353.949397-354.036097 353.949397-353.978297c24.420518-24.478318 24.362718-64.027997-0.111988-88.502702-24.362718-24.420518-63.908784-24.420518-88.444902 0l-353.949397 353.978297L158.054216 69.620151c-24.420518-24.420518-64.024384-24.449418-88.38349-0.0867-24.416905 24.474705-24.536118 64.082184 0 88.560502l353.772384 353.924109L69.612926 865.963847c-24.478318 24.388005-24.597531 64.082184-0.119213 88.531602 24.478318 24.420518 64.143597 24.359105 88.564115-0.0578l353.949397-353.981909 354.010809 354.039709c24.474705 24.359105 64.143597 24.359105 88.49909 0C978.930417 930.046031 978.876229 890.471065 954.513512 866.050547z" p-id="3059" fill="#e0dfdd"></path></svg>