<?xml version="1.0" encoding="utf-8"?>
<!-- Generator: Adobe Illustrator 19.0.0, SVG Export Plug-In . SVG Version: 6.00 Build 0)  -->
<svg version="1.1" id="图层_1" xmlns="http://www.w3.org/2000/svg" xmlns:xlink="http://www.w3.org/1999/xlink" x="0px" y="0px"
	 viewBox="-380 181 200 200" style="enable-background:new -380 181 200 200;" xml:space="preserve">
<style type="text/css">
	.st0{fill:#25C0B1;}
</style>
	<path class="st0" d="M147.7,108h-5.3c-1.8,0-3.3,1.5-3.3,3.3s1.5,3.3,3.3,3.3h5.3c1.8,0,3.3-1.5,3.3-3.3S149.5,108,147.7,108z"/>
	<path class="st0" d="M126.6,108h-74c-1.8,0-3.3,1.5-3.3,3.3s1.5,3.3,3.3,3.3h74c1.8,0,3.3-1.5,3.3-3.3S128.4,108,126.6,108z"/>
	<path class="st0" d="M179.3,1H20.7C9.3,1,0,10.6,0,22.4v157.2C0,191.4,9.3,201,20.7,201h158.6c11.4,0,20.7-9.6,20.7-21.5V22.4
		C200,10.6,190.7,1,179.3,1z M163.8,112l-2.9,14.6c-0.5,2.8-3.1,4.9-5.9,4.9H45.4c-2.8,0-5.4-2.1-5.9-4.9L36.6,112
		c-0.3-1.6-0.4-4-0.1-5.6L41.6,76c0.5-2.8,3.1-5,5.9-5h105.3c2.9,0,5.4,2.2,5.9,5l5.1,30.4C164.1,108,164.1,110.4,163.8,112z"/>
</svg>
