<?xml version="1.0" encoding="utf-8"?>
<!-- Generator: Adobe Illustrator 19.0.0, SVG Export Plug-In . SVG Version: 6.00 Build 0)  -->
<svg version="1.1" id="图层_1" xmlns="http://www.w3.org/2000/svg" xmlns:xlink="http://www.w3.org/1999/xlink" x="0px" y="0px"
	 viewBox="-380 181 200 200" style="enable-background:new -380 181 200 200;" xml:space="preserve">
<style type="text/css">
	.st0{fill:#25C0B1;}
</style>

	<path class="st0" d="M100.9,54.9c-25.6,0-46.4,20.8-46.4,46.4c0,25.6,20.8,46.4,46.4,46.4c25.6,0,46.4-20.8,46.4-46.4
		C147.3,75.6,126.6,54.9,100.9,54.9z M100.9,143.3V59.1c23.3,0,42.1,18.9,42.1,42.1C143,124.4,124.2,143.3,100.9,143.3z"/>
	<path class="st0" d="M179.3,1H20.7C9.3,1,0,10.6,0,22.4v157.2C0,191.4,9.3,201,20.7,201h158.6c11.4,0,20.7-9.6,20.7-21.5V22.4
		C200,10.6,190.7,1,179.3,1z M100.9,157.6c-31.1,0-56.3-25.2-56.3-56.3c0-31.1,25.2-56.3,56.3-56.3c31.1,0,56.3,25.2,56.3,56.3
		C157.2,132.4,132,157.6,100.9,157.6z"/>

</svg>
