<?xml version="1.0" encoding="utf-8"?>
<!-- Generator: Adobe Illustrator 19.0.0, SVG Export Plug-In . SVG Version: 6.00 Build 0)  -->
<svg version="1.1" id="图层_1" xmlns="http://www.w3.org/2000/svg" xmlns:xlink="http://www.w3.org/1999/xlink" x="0px" y="0px"
	 viewBox="-380 181 200 200" style="enable-background:new -380 181 200 200;" xml:space="preserve">
<style type="text/css">
	.st0{fill:#25C0B1;}
</style>
<path class="st0" d="M179.3,1H20.7C9.3,1,0,10.6,0,22.4v157.2C0,191.4,9.3,201,20.7,201h158.6c11.4,0,20.7-9.6,20.7-21.5V22.4
	C200,10.6,190.7,1,179.3,1z M53.9,149.6h-4.2c-1.6,0-2.9-1.3-2.9-2.9V62.2c0-1.6,1.3-2.9,2.9-2.9h14.7c1.8,0,3.2,1.6,2.8,3.4
	C65.3,71.7,56.1,86,53,99.1c-1.9,8-1.6,23.3,0.9,36.3c0.8,4.1,2,7.6,2.8,10.6C57.1,147.8,55.8,149.6,53.9,149.6z M97.3,63.1
	c-1.5,4.4-4.7,12.1-10.3,19.8c-10.7,14.9-26.8,20.9-28.1,24.4c-1.4,4.4,7.3,17.1,12.3,27.3c2.3,4.6,3.3,8.7,3.8,11.4
	c0.3,1.8-1,3.4-2.8,3.4h-9.6c-1.4,0-2.6-1-2.8-2.4c-1.4-8.8-9.9-28.8-5.2-45.8c3.9-14.1,15.8-31.5,17.7-39.7
	c0.3-1.3,1.5-2.2,2.8-2.2h19.5C96.6,59.3,98,61.2,97.3,63.1z M137.5,149.4h-9.6c-1.8,0-3.1-1.6-2.8-3.4c0.5-2.7,1.5-6.8,3.8-11.4
	c5-10.2,13.7-22.9,12.3-27.3c-1.4-3.5-17.5-9.5-28.2-24.4c-5.6-7.7-8.8-15.4-10.3-19.8c-0.7-1.9,0.7-3.8,2.7-3.8H125
	c1.3,0,2.5,0.9,2.8,2.2c1.9,8.2,13.8,25.6,17.7,39.7c4.7,17-3.8,37-5.2,45.8C140.1,148.4,138.9,149.4,137.5,149.4z M153.2,146.7
	c0,1.6-1.3,2.9-2.9,2.9h-4.2c-1.9,0-3.2-1.8-2.8-3.6c0.8-3,2-6.5,2.8-10.6c2.5-13,2.8-28.3,0.9-36.3c-3.1-13.1-12.4-27.4-14.2-36.4
	c-0.4-1.8,1-3.4,2.8-3.4h14.7c1.6,0,2.9,1.3,2.9,2.9V146.7z M150.6,57.6H49.4c-1.4,0-2.6-1.2-2.6-2.6s1.2-2.6,2.6-2.6h101.3
	c1.4,0,2.6,1.2,2.6,2.6C153.2,56.5,152,57.6,150.6,57.6z"/>
</svg>
