<?xml version="1.0" standalone="no"?><!DOCTYPE svg PUBLIC "-//W3C//DTD SVG 1.1//EN"
  "http://www.w3.org/Graphics/SVG/1.1/DTD/svg11.dtd">
<svg t="1495604527352" class="icon" style="" viewBox="0 0 1025 1024" version="1.1" xmlns="http://www.w3.org/2000/svg"
     p-id="2401" xmlns:xlink="http://www.w3.org/1999/xlink" width="200.1953125" height="200">
  <defs>
    <style type="text/css"></style>
  </defs>
  <path
    d="M408.822741 367.703358c44.568522-61.597172 70.148865-122.883112 82.580711-158.1751 5.227457-14.841841-5.819206-30.390095-21.555836-30.390095l-156.12343 0c-10.586982 0-19.803113 7.264793-22.21925 17.572281-15.30664 65.275639-110.037656 204.634556-141.36554 317.182538-37.868859 136.04799 30.635804 295.599059 41.274999 365.836994 1.698463 11.21354 11.258586 19.545119 22.600099 19.545119l76.867979 0c14.236783 0 25.029546-12.881289 22.479292-26.887719-3.894486-21.395102-12.32742-53.879865-30.54571-91.262425-39.531489-81.115672-109.041511-182.41121-97.868923-217.79022C194.160191 534.158847 322.828724 486.554797 408.822741 367.703358z"
    p-id="2402"></path>
  <path
    d="M144.202454 786.270504c-19.78878-103.726009-22.236655-226.187321-7.275031-289.38672 24.676339-104.241998 98.701262-219.033097 113.213444-290.463744 2.866604-14.109833-8.009086-27.280854-22.406603-27.280854l-117.302449 0c-12.61408 0-22.839665 10.225585-22.839665 22.839665l0 674.457601c0 12.61408 10.225585 22.839665 22.839665 22.839665l33.747093 0c14.913506 0 25.794315-14.047382 22.128133-28.503255C160.423336 847.577944 150.535601 819.468846 144.202454 786.270504z"
    p-id="2403"></path>
  <path
    d="M615.616464 367.703358c-44.568522-61.597172-70.148865-122.883112-82.580711-158.1751-5.227457-14.841841 5.819206-30.390095 21.555836-30.390095l156.12343 0c10.586982 0 19.803113 7.264793 22.21925 17.572281 15.30664 65.275639 110.037656 204.634556 141.36554 317.182538 37.868859 136.04799-30.635804 295.599059-41.274999 365.836994-1.698463 11.21354-11.258586 19.545119-22.600099 19.545119l-76.867979 0c-14.236783 0-25.029546-12.881289-22.479292-26.887719 3.894486-21.395102 12.32742-53.879865 30.54571-91.262425 39.531489-81.115672 109.041511-182.41121 97.868923-217.79022C830.279014 534.158847 701.610481 486.554797 615.616464 367.703358z"
    p-id="2404"></path>
  <path
    d="M880.236751 786.270504c19.78878-103.726009 22.236655-226.187321 7.275031-289.38672-24.676339-104.241998-98.701262-219.033097-113.213444-290.463744-2.866604-14.109833 8.009086-27.280854 22.407627-27.280854l117.302449 0c12.61408 0 22.839665 10.225585 22.839665 22.839665l0 674.457601c0 12.61408-10.225585 22.839665-22.839665 22.839665l-33.747093 0c-14.913506 0-25.794315-14.047382-22.128133-28.503255C864.014845 847.577944 873.90258 819.468846 880.236751 786.270504z"
    p-id="2405"></path>
  <path
    d="M916.371315 165.677411l-808.304449 0c-11.261658 0-20.475741-9.214083-20.475741-20.475741l0 0c0-11.261658 9.214083-20.475741 20.475741-20.475741l808.304449 0c11.261658 0 20.475741 9.214083 20.475741 20.475741l0 0C936.847056 156.463328 927.632972 165.677411 916.371315 165.677411z"
    p-id="2406"></path>
</svg>
