<?xml version="1.0" encoding="utf-8"?>
<!-- Generator: Adobe Illustrator 19.0.0, SVG Export Plug-In . SVG Version: 6.00 Build 0)  -->
<svg version="1.1" id="图层_1" xmlns="http://www.w3.org/2000/svg" xmlns:xlink="http://www.w3.org/1999/xlink" x="0px" y="0px"
	 viewBox="0 0 200 200" style="enable-background:new 0 0 200 200;" xml:space="preserve">
<style type="text/css">
	.st0{fill:#25C0B1;}
</style>
<path class="st0" d="M179.3,0H20.7C9.3,0,0,9.6,0,21.4v157.2C0,190.4,9.3,200,20.7,200h158.6c11.4,0,20.7-9.6,20.7-21.5V21.4
	C200,9.6,190.7,0,179.3,0z M149.9,105l-5.8,5.5c-4,4.2-8.7,8.7-13.7,13.2l-30.5,29.4l-50.1-48.9C42.7,97.7,38.1,89,38.1,79
	c0-17.7,14.3-32,32-32c13.5,0,25.1,8.4,29.8,20.2c4.8-11.8,16.3-20.2,29.8-20.2c17.7,0,32,14.3,32,32.1
	C161.7,89.1,157,98.5,149.9,105z"/>
</svg>
