<?xml version="1.0" standalone="no"?><!DOCTYPE svg PUBLIC "-//W3C//DTD SVG 1.1//EN"
  "http://www.w3.org/Graphics/SVG/1.1/DTD/svg11.dtd">
<svg t="1494578021602" class="icon" style="" viewBox="0 0 1024 1024" version="1.1" xmlns="http://www.w3.org/2000/svg"
     p-id="14462" xmlns:xlink="http://www.w3.org/1999/xlink" width="200" height="200">
  <defs>
    <style type="text/css"></style>
  </defs>
  <path
    d="M918.030289 1023.951233H105.920945C47.449852 1023.951233 0 974.843318 0 914.275264V109.724736C0 49.107915 47.449852 0 105.920945 0h812.109344c58.519859 0 105.920945 49.107915 105.920944 109.724736v804.550528c0.048767 60.568054-47.401086 109.675969-105.920944 109.675969zM612.751691 167.756929c-98.020764 0-177.461473 80.854939-177.461473 180.533765 0 47.010953 17.702257 89.827984 46.669588 121.96514l-175.559577 285.089246s-26.236403 38.476807 8.095247 67.102772c28.089532 23.505477 57.349462 11.216306 64.469378 0l16.141728-25.163539 24.188208 16.775693s46.230689 22.286313 64.518145-16.775693c15.26393-32.624821-10.484808-55.593866-16.141728-58.763692l-24.188209-16.775693 16.141728-25.212306 24.188209 16.775693s38.281741 14.678731 56.422897-16.775693c11.947805-20.62825 14.776264-43.743595 0-58.763692-10.289742-10.436042-32.234689-25.212306-32.234689-25.212306l54.764835-91.14468c15.897895 4.730355 32.673588 7.314982 50.034479 7.314982 97.971997 0 177.461473-80.854939 177.461473-180.533765s-79.538242-180.436232-177.510239-180.436232z m0 260.31584c-44.523859 0-80.611106-37.599009-80.611106-83.927231s36.087246-83.975998 80.611106-83.975998 80.562339 37.599009 80.562339 83.975998-36.03848 83.927231-80.562339 83.927231z"
    p-id="14463" fill="#25c0b1"></path>
</svg>
