<?xml version="1.0" encoding="utf-8"?>
<!-- Generator: Adobe Illustrator 19.0.0, SVG Export Plug-In . SVG Version: 6.00 Build 0)  -->
<svg version="1.1" id="图层_1" xmlns="http://www.w3.org/2000/svg" xmlns:xlink="http://www.w3.org/1999/xlink" x="0px" y="0px"
	 viewBox="0 0 200 200" style="enable-background:new 0 0 200 200;" xml:space="preserve">
<style type="text/css">
	.st0{fill:#7E7B7B;}
</style>
<path class="st0" d="M134.3,17.5H62.2c-8.8,0-15.9,7.1-15.9,15.9v132.4c0,8.8,7.1,15.9,15.9,15.9h72.1c8.8,0,15.9-7.1,15.9-15.9
	V33.4C150.2,24.6,143.1,17.5,134.3,17.5z M142.5,167.4c0,3.1-2.6,5.6-5.8,5.6H59.9c-3.2,0-5.8-2.5-5.8-5.6V31.8
	c0-3.1,2.6-5.6,5.8-5.6h76.8c3.2,0,5.8,2.5,5.8,5.6L142.5,167.4L142.5,167.4z M98.2,40.2c-8.6,0-16.6,3.3-22.7,9.4
	s-9.4,14.1-9.4,22.7s3.3,16.6,9.4,22.7c6.1,6.1,14.1,9.4,22.7,9.4c8.6,0,16.6-3.3,22.7-9.4c6.1-6.1,9.4-14.1,9.4-22.7
	s-3.3-16.6-9.4-22.7C114.8,43.6,106.8,40.2,98.2,40.2z M116.6,90.7c-4.9,4.9-11.4,7.6-18.3,7.6c-6.9,0-13.4-2.7-18.4-7.6
	c-4.9-4.9-7.6-11.4-7.6-18.4c0-6.9,2.7-13.4,7.6-18.3c4.9-4.9,11.4-7.6,18.4-7.6c6.9,0,13.5,2.7,18.4,7.6c4.9,4.9,7.6,11.4,7.6,18.4
	C124.2,79.2,121.5,85.8,116.6,90.7L116.6,90.7z M98.2,57.5c-8.2,0-14.8,6.7-14.8,14.9c0,8.2,6.7,14.8,14.8,14.8s14.8-6.7,14.8-14.8
	C113.1,64.1,106.4,57.5,98.2,57.5z M98.2,81.3c-4.9,0-9-4-9-9s4-9,9-9s9,4,9,9C107.2,77.2,103.2,81.3,98.2,81.3z M80.7,126.9h35v6
	h-35V126.9z"/>
</svg>
