<?xml version="1.0" encoding="utf-8"?>
<!-- Generator: Adobe Illustrator 19.0.0, SVG Export Plug-In . SVG Version: 6.00 Build 0)  -->
<svg version="1.1" id="图层_1" xmlns="http://www.w3.org/2000/svg" xmlns:xlink="http://www.w3.org/1999/xlink" x="0px" y="0px"
	 viewBox="0 0 200 200" style="enable-background:new 0 0 200 200;" xml:space="preserve">
<style type="text/css">
	.st0{fill:#7E7B7B;}
</style>
<path class="st0" d="M98.8,153.2v-11.5h-63c-2.5,0-4.5-2-4.5-4.6v-95c0-2.6,2-4.6,4.5-4.6h134.7c2.5,0,4.5,2,4.5,4.6v95
	c0,2.8-2,4.6-4.3,4.6h-63v11.5h25.5c2.5,0,4.5,2,4.5,4.6s-2.3,4.6-4.5,4.6h-60c-2.5,0-4.5-2-4.5-4.6s2-4.6,4.5-4.6L98.8,153.2
	L98.8,153.2z M40.3,133h126V47h-126V133z M151.2,124.6H137c-2.5,0-4.5-2-4.5-4.6s2-4.6,4.5-4.6h14.3c2.5,0,4.5,2,4.5,4.6
	S153.5,124.6,151.2,124.6z"/>
</svg>
