<?xml version="1.0" encoding="utf-8"?>
<!-- Generator: Adobe Illustrator 19.0.0, SVG Export Plug-In . SVG Version: 6.00 Build 0)  -->
<svg version="1.1" id="图层_1" xmlns="http://www.w3.org/2000/svg" xmlns:xlink="http://www.w3.org/1999/xlink" x="0px" y="0px"
	 viewBox="0 0 200 200" style="enable-background:new 0 0 200 200;" xml:space="preserve">
<style type="text/css">
	.st0{fill:#7E7B7B;}
</style>
<path class="st0" d="M181.5,15.5H18.6c-2.8,0-5.5,2.7-5.5,5.5v151.9c0,1.3,2.4,4.1,3.2,5c2.9,3.7,7.2,6,11.9,6.6
	c0.7,0.1,1.4,0.1,2,0.1c4,0,7.9-1.4,11-3.9c1.3-1,2.8-1.6,4.5-1.6c0.3,0,0.6,0,0.9,0.1c1.9,0.2,3.7,1.2,4.9,2.7
	c0.9,1.1,2.1,1.8,3.5,1.9c0.2,0,0.4,0,0.6,0c0.5,0,1-0.1,1.5-0.2c2.6-0.5,5.7-2.8,5.8-5.3c0.1-3.2,0-151.9,0-151.9h74.6v151.9
	c0,2.5,3.2,4.8,5.6,5.2c0.5,0.1,0.9,0.2,1.4,0.2c0.2,0,0.4,0,0.6,0c1.4-0.2,2.6-0.9,3.5-1.9c1.2-1.5,3-2.5,4.9-2.7
	c0.3,0,0.6,0,0.8,0c1.6,0,3.2,0.6,4.5,1.6c3.1,2.5,7.1,3.9,11.1,3.9c0.7,0,1.3,0,2-0.1c4.7-0.5,8.9-2.9,11.9-6.6
	c0.8-1,3.4-3.7,3.4-5V21C187,18.2,184.3,15.5,181.5,15.5L181.5,15.5z M30.2,174.1c-0.3,0-0.6,0-0.9-0.1c-1.4-0.2-4.1-0.3-5.2-1.2
	V26.5h8.3l0.5,147.1C32,174,31.1,174.1,30.2,174.1L30.2,174.1z M51.7,170.1c-1-0.3-3.1-1.2-4-1.3c-0.7-0.1-1.3-0.1-2-0.1
	c-0.8,0-4.2,1.3-5,1.4V26.5h11L51.7,170.1L51.7,170.1z M159.4,170.1c-0.8-0.1-4.5-1.4-5.2-1.4c-0.7,0-1.3,0-2,0.1
	c-1,0.1-2.8,1-3.8,1.3V26.5h11V170.1z M175.9,172.9c-1,0.9-4,1.1-5.4,1.2c-0.3,0-0.6,0.1-0.8,0.1c-0.9,0-1.2-0.9-2-1.3V26.5h8.3
	V172.9z"/>
</svg>
