<?xml version="1.0" standalone="no"?><!DOCTYPE svg PUBLIC "-//W3C//DTD SVG 1.1//EN"
  "http://www.w3.org/Graphics/SVG/1.1/DTD/svg11.dtd">
<svg t="1493878560479" class="icon" style="" viewBox="0 0 1024 1024" version="1.1" xmlns="http://www.w3.org/2000/svg"
     p-id="24789" xmlns:xlink="http://www.w3.org/1999/xlink" width="200" height="200">
  <defs>
    <style type="text/css"></style>
  </defs>
  <path
    d="M401.9 95.4c-13.5 0-24.5 10.9-24.5 24.5s10.9 24.5 24.5 24.5l220.7 0c13.5 0 24.5-10.9 24.5-24.5s-11.1-24.5-24.6-24.5L401.9 95.4 401.9 95.4zM426.4 242.5l-49.1 0 0 98.2c0 0.5-5.1 7-14.7 14.3-4.6 3.3-9.6 6.7-14.5 9.6-2.9 1.6-5.2 2.9-6.2 3.5l-2.9 1.6C256.2 426.4 205.8 520 205.8 622.4c0 169.2 137.2 306.3 306.3 306.3s306.3-137.2 306.3-306.3c0-102.3-50.4-196-133.1-252.8l-2.9-1.6c-1-0.5-3.3-1.7-6.2-3.5-5-2.9-10.1-6.1-14.5-9.6C652 347.6 647 341.1 647 340.6c0-8.8 0-24.5 0-45 0-6.8 0-6.8 0-13.2 0-15.7 0-15.7 0-28 0-9.7 0-9.7 0-12 0-40.6-32.9-73.5-73.5-73.5L450.8 168.9c-40.6 0-73.5 32.9-73.5 73.5l49.1 0c0-13.5 10.9-24.5 24.5-24.5l122.4 0c13.5 0 24.5 10.8 24.5 24.4 0 2.3 0 2.3 0 11.9 0 12.2 0 12.2 0 28 0 6.6 0 6.6 0 13.2 0 20.5 0 36.2 0 45.1 0 21.1 13.2 37.6 34.4 53.4 10.7 7.9 21.1 14 28.4 17.7l-2.9-1.6c69.5 47.9 112 126.5 112 212.4 0 142-115.1 257.3-257.3 257.3-142 0-257.3-115.1-257.3-257.3 0-86 42.5-164.6 112-212.3l-2.9 1.6c7.4-3.7 17.8-9.7 28.4-17.7 21.1-15.8 34.4-32.3 34.4-53.4l0-98-0.6 0L426.4 242.5zM426.3 267l0 48.9 171.6 0L597.9 267 426.3 267 426.3 267zM174.3 843.3c7.8 11.1 23.1 13.9 34.1 6.1 11.1-7.6 13.9-22.9 6.1-34.1-41.4-60-64-131-64-205.4 0-67.8 18.8-133.1 53.6-189.5 7.1-11.5 3.6-26.7-7.9-33.8-11.5-7.1-26.7-3.6-33.8 7.9-39.7 64.3-61 138.3-61 215.4C101.5 694.6 127.2 775.5 174.3 843.3L174.3 843.3zM865.2 400.5c-6.9-11.6-22.1-15.4-33.8-8.5-11.6 6.9-15.4 22.1-8.5 33.6 33 55.4 50.6 118.5 50.6 184.5 0 73.5-22.1 143.7-62.6 203.2-7.5 11.3-4.7 26.4 6.6 34.1 11.3 7.5 26.4 4.7 34.1-6.6 46-67.6 71-147.4 71-231C922.7 535.1 902.6 463.3 865.2 400.5L865.2 400.5z"
    p-id="24790"></path>
</svg>
