<?xml version="1.0" encoding="utf-8"?>
<!-- Generator: Adobe Illustrator 19.0.0, SVG Export Plug-In . SVG Version: 6.00 Build 0)  -->
<svg version="1.1" id="图层_1" xmlns="http://www.w3.org/2000/svg" xmlns:xlink="http://www.w3.org/1999/xlink" x="0px" y="0px"
	 viewBox="0 0 200 200" style="enable-background:new 0 0 200 200;" xml:space="preserve">
<style type="text/css">
	.st0{fill:#25C0B1;}
</style>
<path class="st0" d="M179.3,0H20.7C9.3,0,0,9.6,0,21.4v157.2C0,190.4,9.3,200,20.7,200h158.6c11.4,0,20.7-9.6,20.7-21.5V21.4
	C200,9.6,190.7,0,179.3,0z M153.6,91.8c-0.5,6.6-4.9,12.1-10.8,14.3c-0.9,8.4-8,14.9-16.6,14.9c-2.2,0-4.4-0.4-6.3-1.2l-11.6,7.6
	v32.2H97.2v-26.2L87.6,117c-1.4-0.7-2.6-1.4-3.8-2.2c-2.1,1-4.4,1.5-6.9,1.5c-9.2,0-16.7-7.5-16.7-16.7c0-0.3,0-0.6,0-0.9
	c-3.8-3.1-6.2-7.8-6.2-13c0-6,3.1-11.1,7.8-14.1c-0.1-0.4-0.1-0.8-0.1-1.3c0-9.2,7.5-16.7,16.7-16.7c0.7,0,1.4,0,2.1,0.1
	c1.2-7.9,8.1-14,16.4-14c2.4,0,4.8,0.5,6.9,1.5c0.4,0.2,0.7,0.4,1.1,0.6c0.1,0,0.1,0,0.1,0c0.4,0.2,0.7,0.5,1.1,0.7
	c0.7,0.5,1.4,1,2,1.6c0.1,0.1,0.1,0.1,0.1,0.1c0.3,0.3,0.5,0.5,0.8,0.8c0.1,0,0.1,0.1,0.2,0.2c0.2,0.2,0.4,0.5,0.6,0.7
	c0,0.1,0.1,0.2,0.2,0.3c0.2,0.2,0.3,0.5,0.5,0.7c0.1,0.1,0.1,0.2,0.2,0.3c0.2,0.3,0.4,0.6,0.6,1c2.5-1.5,5.5-2.4,8.6-2.4
	c7.2,0,13.2,4.6,15.6,10.9c8.4,0.9,14.9,8,14.9,16.6c0,2.1-0.4,4.1-1.1,5.9c2.6,2.9,4.2,6.8,4.4,11.3
	C153.7,90.9,153.6,91.4,153.6,91.8z"/>
</svg>
