<?xml version="1.0" encoding="utf-8"?>
<!-- Generator: Adobe Illustrator 19.0.0, SVG Export Plug-In . SVG Version: 6.00 Build 0)  -->
<svg version="1.1" id="图层_1" xmlns="http://www.w3.org/2000/svg" xmlns:xlink="http://www.w3.org/1999/xlink" x="0px" y="0px"
	 viewBox="0 0 200 200" style="enable-background:new 0 0 200 200;" xml:space="preserve">
<style type="text/css">
	.st0{fill:#7E7B7B;}
</style>
<path class="st0" d="M183.1,146.7H17.3c-4.3,0-8.1-3.2-9-7.4L4,117.2c-0.5-2.4-0.5-6.1-0.1-8.5l7.7-46.1c0.7-4.2,4.6-7.5,8.9-7.5
	h159.4c4.3,0,8.2,3.3,8.9,7.5l7.7,46.1c0.4,2.4,0.4,6.1-0.1,8.5l-4.3,22.1C191.2,143.5,187.4,146.7,183.1,146.7z M18,136.7h164.4
	l4.2-21.4c0.2-1.2,0.3-3.7,0.1-4.9l-7.6-45.2l-157.8,0l-7.6,45.2c-0.2,1.2-0.2,3.7,0.1,4.9L18,136.7z"/>
<path class="st0" d="M140.1,121.1H28.2c-2.8,0-5-2.2-5-5s2.2-5,5-5h111.9c2.8,0,5,2.2,5,5S142.9,121.1,140.1,121.1z"/>
<path class="st0" d="M172.1,121.1h-8c-2.8,0-5-2.2-5-5c0-2.8,2.2-5,5-5h8c2.8,0,5,2.2,5,5C177.1,118.9,174.8,121.1,172.1,121.1z"/>
</svg>
