<?xml version="1.0" encoding="utf-8"?>
<!-- Generator: Adobe Illustrator 19.0.0, SVG Export Plug-In . SVG Version: 6.00 Build 0)  -->
<svg version="1.1" id="图层_1" xmlns="http://www.w3.org/2000/svg" xmlns:xlink="http://www.w3.org/1999/xlink" x="0px" y="0px"
	 viewBox="-380 181 200 200" style="enable-background:new -380 181 200 200;" xml:space="preserve">
<style type="text/css">
	.st0{fill:#25C0B1;}
</style>
<path class="st0" d="M179.3,1H20.7C9.3,1,0,10.6,0,22.4v157.2C0,191.4,9.3,201,20.7,201h158.6c11.4,0,20.7-9.6,20.7-21.5V22.4
	C200,10.6,190.7,1,179.3,1z M155.3,142.2c0,6.8-4.1,12.5-9.8,15c-5.4,2.2-10.6,1.4-20.1,1.4c-15.5,0-22.9-28.3-1.9-34.3
	c4.1-1.1,11.4-1.1,16.3-0.8c1.6,0,4.6-0.9,4.6-8.2V76.6c0-1.7,1.1-7.9-5.7-6.3c-8.4,2-41.3,8.8-43.8,9.3c-3.5,0.8-7.6,1.1-7.3,10.1
	c0.3,9.2,0,59.3,0,67.5c0,9.5-7.4,12.5-11.2,13.6c-3.8,1.1-14.7,1.1-17.4,1.1c-23.4,0-20.4-33.8-3.8-33.8c3.3,0,9.8-0.3,14.2-0.3
	c5.4,0,7.3-4.1,7.3-12.3c0-4.7-0.3-40.6-0.3-57.2c0-16.6,0-19,9.5-21.2c8.1-1.9,44.6-8.4,49.8-9.5c4.9-0.8,19.9-5.7,19.9,6.9
	C155.6,57,155.3,135.1,155.3,142.2z"/>
</svg>
