<?xml version="1.0" encoding="utf-8"?>
<!-- Generator: Adobe Illustrator 19.0.0, SVG Export Plug-In . SVG Version: 6.00 Build 0)  -->
<svg version="1.1" id="图层_1" xmlns="http://www.w3.org/2000/svg" xmlns:xlink="http://www.w3.org/1999/xlink" x="0px" y="0px"
	 viewBox="0 0 200 200" style="enable-background:new 0 0 200 200;" xml:space="preserve">
<style type="text/css">
	.st0{fill:#353535;}
</style>
<path class="st0" d="M99.9,0C44.6,0-0.4,45-0.4,100.3c0,55.3,45,100.3,100.3,100.3s100.3-45,100.3-100.3S155.2,0,99.9,0L99.9,0z
	 M133.5,105.7l-36,35.3c-1.4,1.4-3.2,2.1-5,2.1c-1.9,0-3.7-0.7-5.1-2.1c-2.7-2.8-2.7-7.3,0.1-10.1l30.8-30.4L87.8,69.9
	c-2.8-2.8-2.8-7.3,0-10.1c2.8-2.8,7.3-2.8,10.1,0l35.6,35.7l0,0l0,0c0.7,0.7,1.2,1.5,1.5,2.3c0.1,0,0.1,0.1,0.1,0.1
	C136.2,100.5,135.6,103.6,133.5,105.7L133.5,105.7z"/>
</svg>
