<?xml version="1.0" encoding="utf-8"?>
<!-- Generator: Adobe Illustrator 19.0.0, SVG Export Plug-In . SVG Version: 6.00 Build 0)  -->
<svg version="1.1" id="图层_1" xmlns="http://www.w3.org/2000/svg" xmlns:xlink="http://www.w3.org/1999/xlink" x="0px" y="0px"
	 viewBox="0 0 200 200" style="enable-background:new 0 0 200 200;" xml:space="preserve">
<style type="text/css">
	.st0{fill:#25C0B1;}
</style>
<path class="st0" d="M103.4,187.7c-48.3,0-87.5-39.2-87.5-87.5s39.2-87.5,87.5-87.5s87.4,39.2,87.4,87.5S151.7,187.7,103.4,187.7z
	 M103.4,15.5c-46.7,0-84.7,38-84.7,84.7s38,84.7,84.7,84.7s84.7-38,84.7-84.7C188.1,53.5,150.1,15.5,103.4,15.5z"/>
	<path class="st0" d="M82.8,135.8c-0.8,0-1.6-0.3-2.1-0.8c-0.3-0.4-0.8-1.1-0.8-2.3v-9c-2.8-1.3-11.2-5.8-15.2-11.8h-5.7l0,0
		c-0.3,0-1.1-0.1-1.7-0.7c-0.3-0.3-0.8-1-0.8-2L56.4,89c0-0.4-0.1-1.4,0.6-2.3c0.4-0.6,1.1-0.9,1.8-1h0.1l4.9,0.1
		C67,81,68.9,79,70,78.2c-0.3-2.5-1.2-9.1-1.3-10.1v-0.2c0-0.3,0-1.7,0.9-2.6c0.8-0.9,2.1-1.1,3.6-0.4c0.7,0.3,6,2.9,8.2,6.4
		c3.3-1.5,11.8-5,22.7-5c9.2,0,17.8,2.4,25.5,7.3c10.1,6.3,12.3,15.3,12.8,18.7h5.5l0.3,0.2c0.3,0.2,1.8,1.2,1.8,2.8
		c0,0.8-0.3,1.8-1.8,2.7l-0.3,0.2H143c0.2,4.2-0.8,14.9-13.2,23.7l0.1,10.4c0.1,0.4,0.1,1.3-0.4,2.1c-0.3,0.4-0.8,1-1.9,1.2h-0.3
		h-14.7c-0.3,0-1.4,0-2.2-0.8c-0.3-0.3-0.7-1-0.7-1.9l0.1-4.2c-1.5,0.1-3.9,0.2-6.4,0.2c-1.2,0-2.3,0-3.2-0.1l-0.3,4.4
		c-0.1,0.8-0.7,2.2-2.2,2.5h-0.2H83.1C83,135.8,82.9,135.8,82.8,135.8z M82.9,132.8L82.9,132.8H97l0.6-7.2l1.5,0.2
		c1.2,0.1,2.7,0.2,4.4,0.2c3.9,0,7.7-0.3,7.7-0.3l1.7-0.2l-0.2,7.1h14.2v-0.2l-0.2-12.2l0.7-0.4c14.4-9.9,12.3-24.8,12.3-24.8
		s-0.6-12.2-11.7-19c-7.2-4.5-15.3-6.8-23.9-6.8c-12.8,0-22.7,5.2-22.7,5.3l-1.5,0.8l-0.6-1.7c-0.9-2.6-5.7-5.3-7.5-6.1
		c-0.1,0-0.2-0.1-0.3-0.1c0,0.1,0,0.2,0,0.2c0.3,1.6,1.4,11,1.4,11l-0.7,0.8c0,0-4.5,5.3-6.8,8.6L65,88.6l-6-0.1v0.2l0.3,20h6.9
		l0.4,0.8c4,6.8,15.1,11.7,15.2,11.8l0.9,0.4L82.9,132.8z M79,93.5c-2.8,0-5-2.2-5-5s2.3-5,5-5c2.8,0,5,2.2,5,5
		C84,91.2,81.7,93.5,79,93.5z M79,86.5c-1.1,0-1.9,0.9-1.9,1.9c0,1,0.9,1.9,1.9,1.9c1.1,0,1.9-0.9,1.9-1.9
		C81,87.4,80.1,86.5,79,86.5z M118.5,86l-1.4-0.5c-0.1,0-5.5-2.1-10.7-2.1c-4.9,0-11.2,2.1-11.2,2.1L93.8,86l-1.9-5.4l1.3-0.6
		c0.3-0.1,6.5-2.8,13.1-2.8c6.9,0,12.8,2.8,13,2.9l1.3,0.6L118.5,86z M97.3,81.8c2.4-0.7,6-1.3,9.1-1.3c1.8,0,3.8,0.3,5.5,0.5
		C110.2,80.5,99.7,81,97.3,81.8z"/>
	<path class="st0" d="M81.9,137.4c-0.9,0-1.7-0.4-2.2-0.9c-0.4-0.4-0.8-1.1-0.8-2.4v-9.4c-2.9-1.4-11.7-6.1-15.9-12.4h-6l0,0
		c-0.3,0-1.1-0.1-1.8-0.7c-0.4-0.4-0.8-1.1-0.8-2.1l-0.3-21.1c0-0.4-0.1-1.5,0.6-2.4c0.4-0.6,1.1-1,1.9-1.1h0.1l5.1,0.1
		c3.4-5,5.3-7.1,6.6-8c-0.4-2.6-1.2-9.5-1.3-10.5v-0.2c0-0.3,0-1.8,1-2.7c0.9-1,2.2-1.1,3.8-0.4c0.7,0.4,6.2,3,8.6,6.7
		c3.4-1.6,12.4-5.2,23.8-5.2c9.6,0,18.6,2.5,26.7,7.6c10.5,6.6,12.9,16,13.4,19.6h5.7l0.4,0.2c0.4,0.2,1.9,1.2,1.9,2.9
		c0,0.8-0.4,1.8-1.9,2.8l-0.4,0.2h-5.3c0.2,4.4-0.8,15.6-13.8,24.8l0.1,10.9c0.1,0.4,0.1,1.4-0.4,2.2c-0.4,0.4-0.9,1.1-2,1.2h-0.3
		H113c-0.4,0-1.5,0-2.3-0.9c-0.4-0.4-0.7-1.1-0.7-2l0.1-4.4c-1.6,0.1-4.1,0.2-6.7,0.2c-1.2,0-2.4,0-3.3-0.1l-0.4,4.6
		c-0.1,0.9-0.7,2.3-2.3,2.6h-0.2H82.1C82.1,137.4,82,137.4,81.9,137.4z M82,134.3L82,134.3h14.7l0.6-7.5l1.6,0.2
		c1.2,0.1,2.8,0.2,4.6,0.2c4,0,8.1-0.4,8.1-0.4l1.8-0.2l-0.2,7.5h14.8v-0.2l-0.2-12.7l0.7-0.4c15.1-10.3,12.8-25.9,12.8-25.9
		s-0.6-12.7-12.2-19.9c-7.5-4.7-16-7.1-25-7.1c-13.4,0-23.7,5.4-23.8,5.5l-1.6,0.9l-0.6-1.8c-1-2.7-6-5.5-7.8-6.4
		c-0.1,0-0.2-0.1-0.3-0.1c0,0.1,0,0.2,0,0.2c0.3,1.7,1.5,11.5,1.5,11.5l-0.7,0.8c0,0-4.7,5.5-7.1,8.9l-0.4,0.7L57.1,88v0.2l0.3,20.9
		h7.2l0.4,0.8c4.2,7.1,15.8,12.3,15.9,12.4l1,0.4L82,134.3z M77.9,93.2c-2.9,0-5.2-2.3-5.2-5.2c0-2.9,2.4-5.2,5.2-5.2
		c2.9,0,5.2,2.3,5.2,5.2C83.1,90.8,80.7,93.2,77.9,93.2z M77.9,85.9c-1.1,0-2,1-2,2s1,2,2,2c1.1,0,2-1,2-2S79.1,85.9,77.9,85.9z
		 M119.1,85.4l-1.5-0.5c-0.1,0-5.7-2.2-11.2-2.2c-5.1,0-11.7,2.2-11.8,2.2l-1.3,0.5l-2-5.6l1.4-0.6c0.3-0.1,6.8-2.9,13.7-2.9
		c7.2,0,13.3,2.9,13.6,3l1.3,0.6L119.1,85.4z M97,81c2.5-0.7,6.2-1.4,9.5-1.4c1.9,0,3.9,0.3,5.7,0.5C110.5,79.7,99.5,80.2,97,81z"/>
</svg>
