<?xml version="1.0" encoding="utf-8"?>
<!-- Generator: Adobe Illustrator 19.0.0, SVG Export Plug-In . SVG Version: 6.00 Build 0)  -->
<svg version="1.1" id="图层_1" xmlns="http://www.w3.org/2000/svg" xmlns:xlink="http://www.w3.org/1999/xlink" x="0px" y="0px"
	 viewBox="0 0 200 200" style="enable-background:new 0 0 200 200;" xml:space="preserve">
<style type="text/css">
	.st0{fill:#25C0B1;}
</style>
<path class="st0" d="M170.8,188.2c-3.5,0-5.6-2.1-5.6-5.9l0.2-5.9h-36.5l-0.2,1.5c0,5.3-5.9,9.7-11.2,9.7c-5.7,0-10.5-4.6-10.5-10.1
	c0,0,0-0.3,0-0.8c-0.7,0-1.3-0.1-1.9-0.1c-3.8-0.1-9.1-0.2-9-8.4v-28.1c0-7.6,4.1-18.4,11.6-20.4l7.8-18.2
	c4.2-8.9,11.7-14.6,19.2-14.6l25.3,0c8,0,16.8,6.4,20.5,14.8l6.9,18.4c6.8,2.7,11.3,11.8,11.3,19.1v28.9c0,3.2-0.9,5.4-2.8,6.8
	c-1.9,1.4-4.2,1.6-6.1,1.6l0,0c-0.9,0-2-0.1-3.1-0.1c-0.1,0-0.3,0-0.4,0v0.5c0,5.8-5.2,10.8-11.1,10.8c-0.9,0-1.7,0.1-2.4,0.2
	C172.2,188.1,171.5,188.2,170.8,188.2z M125.2,169.3H171l-0.4,11.2c0.3,0,0.7-0.1,1.1-0.1c0.9-0.1,1.9-0.2,3-0.2
	c2.2,0,4.8-2,4.8-4.5l-0.1-6.3h2.9c1.3,0,2.5,0.1,3.6,0.1c0.9,0,1.8,0.1,2.6,0.1l0,0c1.6,0,2.1-0.2,2.2-0.3c0.2-0.1,0.4-0.7,0.4-2
	v-27.6c0-5.6-4-12.3-7.9-13.2l-1.5-0.4l-7.6-20.1c-2.5-5.8-9-10.6-14.3-10.6h-24.2c-4.9,0-10.1,4.2-13.1,10.5l-8.8,20.3l-1.8,0.1
	c-4,0.2-7.5,8-7.5,14.1v26.9c0,1.7,0.3,2.1,0.3,2.2c0.3,0.1,1.7,0.2,2.7,0.2c1.4,0,3,0.1,4.8,0.3l1.9,0.3l0.5,1.8
	c0.3,0.9,0.3,2.8,0.3,4.1c0,2.3,2.2,4,4.2,4c2.2,0,5-1.9,5-4L125.2,169.3z M175.4,162c-6.7,0-12.1-5.7-12.1-12.7s5.4-12.7,12.1-12.7
	s12.1,5.7,12.1,12.7S182.1,162,175.4,162z M175.4,142.6c-3.3,0-6.1,3-6.1,6.7c0,3.7,2.7,6.7,6.1,6.7c3.3,0,6.1-3,6.1-6.7
	S178.8,142.6,175.4,142.6z M119.4,162c-6.7,0-12.1-5.7-12.1-12.7s5.4-12.7,12.1-12.7s12.1,5.7,12.1,12.7S126,162,119.4,162z
	 M119.4,142.6c-3.3,0-6.1,3-6.1,6.7c0,3.7,2.7,6.7,6.1,6.7c3.3,0,6.1-3,6.1-6.7C125.4,145.6,122.7,142.6,119.4,142.6z M173.4,128.5
	h-50.1V126c-0.1-8.9,4.3-20.1,17-22.4l14.3-0.1h0.2c17.3,2.6,18.6,17.9,18.6,22.5V128.5z M128.6,122.9h39.5
	c-0.6-4.3-3.2-10.8-13.9-12.2l-13.5,0.1C131.2,112.3,129,119.2,128.6,122.9z M188.1,26.9L188.1,26.9c-4.2,4.4-10.3,7-10.6,7.1
	L68.1,100.7c-7.9,4.8-20,3.8-27.5-2.4l-35-28.8c-2.6-2.1-4-4.8-4.2-7.7c-0.2-3.4,1.7-6.7,5-8.7l1-0.6c7.9-4.8,19.4-0.1,25.6,2.4
	l0.6,0.3C38.2,57,51.4,65.1,56,68c2.8-1.8,9.4-5.8,25.9-15.9L58.4,29.5c-4.7-4.5-5.5-11.2-1.9-15L63,9.7c3.3-3.8,13.3-3,18,0.5
	L115.1,32l28.8-17.4c16.7-10.2,40.2-13.7,46.6-3.1C193.6,16.6,192.7,22.1,188.1,26.9z M10.3,63.1l31.8,26.5c5.4,4.2,16.3,8.2,21.9,5
	l107-64.8c0.4-0.2,9.6-5.9,9.6-5.9c3.5-3.4,1.8-7.1,0.7-8.8c-3.5-5.5-21-1.9-36.8,7.1l-31.4,17.9l-34.8-22c-3.2-2.3-7.1-5.5-8.9-3.7
	l-8.7,6c-1.2,1.2,4.1,4.8,6.4,6.9L93.6,51c0,0-34.3,23.2-35.3,23.8l-3,0.1l-2.5-1.4C47.8,70.6,35,61.8,31,60.3l-0.6-0.2
	c-4.8-1.8-13.7-5.3-18.9-2.3C11.4,57.8,8,60.8,10.3,63.1z"/>
</svg>
