<?xml version="1.0" encoding="utf-8"?>
<!-- Generator: Adobe Illustrator 19.0.0, SVG Export Plug-In . SVG Version: 6.00 Build 0)  -->
<svg version="1.1" id="图层_1" xmlns="http://www.w3.org/2000/svg" xmlns:xlink="http://www.w3.org/1999/xlink" x="0px" y="0px"
	 viewBox="0 0 200 200" style="enable-background:new 0 0 200 200;" xml:space="preserve">
<style type="text/css">
	.st0{fill:#353535;}
</style>
<path class="st0" d="M99.9,0C44.6,0-0.4,45-0.4,100.3c0,55.3,45,100.3,100.3,100.3c55.3,0,100.3-45,100.3-100.3
	C200.2,45,155.2,0,99.9,0L99.9,0z M66.3,105.7c-2.1-2.1-2.7-5.2-1.6-7.8c0,0,0-0.1,0.1-0.1c0.3-0.8,0.8-1.6,1.5-2.3c0,0,0,0,0,0
	c0,0,0,0,0,0l35.6-35.7c2.8-2.8,7.3-2.8,10.1,0c2.8,2.8,2.8,7.3,0,10.1l-30.5,30.6l30.8,30.4c2.8,2.8,2.8,7.3,0.1,10.1
	c-1.4,1.4-3.2,2.1-5.1,2.1c-1.8,0-3.6-0.7-5-2.1L66.3,105.7L66.3,105.7z"/>
</svg>
