<?xml version="1.0" standalone="no"?><!DOCTYPE svg PUBLIC "-//W3C//DTD SVG 1.1//EN"
  "http://www.w3.org/Graphics/SVG/1.1/DTD/svg11.dtd">
<svg t="1494558968191" class="icon" style="" viewBox="0 0 1024 1024" version="1.1" xmlns="http://www.w3.org/2000/svg"
     p-id="2711" xmlns:xlink="http://www.w3.org/1999/xlink" width="200" height="200">
  <defs>
    <style type="text/css"></style>
  </defs>
  <path
    d="M511.753383 959.089641c-247.299339 0-447.771163-200.471824-447.771163-447.771163S264.453021 63.545268 511.753383 63.545268s447.772186 200.471824 447.772186 447.772186S759.053746 959.089641 511.753383 959.089641zM511.753383 77.54205c-239.182474 0-433.776428 194.59293-433.776428 433.776428 0 239.182474 194.59293 433.775404 433.776428 433.775404S945.529811 750.500952 945.529811 511.318478C945.528787 272.13498 750.935857 77.54205 511.753383 77.54205z"
    p-id="2712" fill="#25c0b1"></path>
  <path
    d="M617.47831 351.419721c6.255471 0 11.325953-5.066389 11.325953-11.32186l0-22.651906c0-6.256494-5.070482-11.326976-11.325953-11.326976-6.256494 0-11.326976 5.070482-11.326976 11.326976l0 22.651906C606.151333 346.354356 611.221816 351.419721 617.47831 351.419721L617.47831 351.419721z"
    p-id="2713" fill="#25c0b1"></path>
  <path
    d="M511.754407 351.419721c6.255471 0 11.325953-5.066389 11.325953-11.32186l0-22.651906c0-6.256494-5.071506-11.326976-11.325953-11.326976-6.255471 0-11.326976 5.070482-11.326976 11.326976l0 22.651906C500.42743 346.354356 505.498936 351.419721 511.754407 351.419721L511.754407 351.419721z"
    p-id="2714" fill="#25c0b1"></path>
  <path
    d="M406.02948 351.419721c6.256494 0 11.326976-5.066389 11.326976-11.32186l0-22.651906c0-6.256494-5.071506-11.326976-11.326976-11.326976-6.255471 0-11.32493 5.070482-11.32493 11.326976l0 22.651906C394.70455 346.354356 399.774009 351.419721 406.02948 351.419721L406.02948 351.419721z"
    p-id="2715" fill="#25c0b1"></path>
  <path
    d="M754.579851 693.863001l-74.311473 0L680.268378 508.48392c0-6.265704-5.070482-11.326976-11.325953-11.326976l-40.138162 0L628.804263 376.496863c0-6.264681-5.070482-11.325953-11.325953-11.325953-6.256494 0-11.326976 5.061272-11.326976 11.325953l0 120.66008-83.070974 0L523.08036 376.496863c0-6.264681-5.071506-11.325953-11.325953-11.325953-6.255471 0-11.326976 5.061272-11.326976 11.325953l0 120.66008-83.070974 0L417.356456 376.496863c0-6.264681-5.071506-11.325953-11.326976-11.325953-6.255471 0-11.32493 5.061272-11.32493 11.325953l0 120.66008-40.139186 0c-6.256494 0-11.325953 5.062296-11.325953 11.326976l0 185.379081-74.311473 0c-6.255471 0-11.325953 5.061272-11.325953 11.326976 0 6.247284 5.070482 11.326976 11.325953 11.326976l485.650889 0c6.256494 0 11.326976-5.079692 11.326976-11.326976C765.905804 698.925297 760.836345 693.863001 754.579851 693.863001L754.579851 693.863001zM365.893364 575.538105c1.483794 2.729158 3.018753 5.846148 4.653997 9.240455 7.203052 14.971993 16.175401 33.606399 36.386722 33.606399 20.209274 0 29.181623-18.634406 36.393885-33.590026 5.858428-12.175297 10.441816-20.777209 15.990183-20.777209 5.539156 0 10.114358 8.601912 15.971763 20.760836 7.202029 14.971993 16.175401 33.606399 36.377512 33.606399 20.219507 0 29.200042-18.634406 36.412304-33.606399 5.858428-12.158924 10.441816-20.760836 15.990183-20.760836 5.573949 0 10.158361 8.601912 16.024975 20.777209 7.219425 14.971993 16.191774 33.590026 36.412304 33.590026 20.228717 0 29.209252-18.634406 36.430724-33.606399 1.644453-3.408633 3.187599-6.535857 4.680603-9.275247l0 117.971855L365.893364 693.475168 365.893364 575.538105 365.893364 575.538105zM657.615449 519.809873l0 23.818475c-12.576433 5.398964-19.380396 19.493983-25.085328 31.309076-5.867638 12.17632-10.451026 20.794605-16.023952 20.794605-5.557576 0-10.141988-8.619308-16.007579-20.777209-7.219425-14.971993-16.20303-33.590026-36.429701-33.590026-20.210297 0-29.182646 18.618033-36.395932 33.590026-5.866614 12.157901-10.441816 20.777209-16.006556 20.777209-5.54018 0-10.114358-8.619308-15.971763-20.777209-7.204076-14.971993-16.175401-33.590026-36.377512-33.590026-20.210297 0-29.181623 18.618033-36.394908 33.590026-5.857405 12.157901-10.440793 20.777209-15.989159 20.777209-5.548366 0-10.123568-8.619308-15.981996-20.777209-5.690606-11.827373-12.490475-25.923416-25.058722-31.325449l0-23.820522L657.615449 519.80885 657.615449 519.809873z"
    p-id="2716" fill="#25c0b1"></path>
</svg>
