<?xml version="1.0" encoding="utf-8"?>
<!-- Generator: Adobe Illustrator 19.0.0, SVG Export Plug-In . SVG Version: 6.00 Build 0)  -->
<svg version="1.1" id="图层_1" xmlns="http://www.w3.org/2000/svg" xmlns:xlink="http://www.w3.org/1999/xlink" x="0px" y="0px"
	 viewBox="0 0 200 200" style="enable-background:new 0 0 200 200;" xml:space="preserve">
<style type="text/css">
	.st0{fill:#7E7B7B;}
</style>
<path class="st0" d="M124.6,143.4H72.2c-3,0-5.5-2.4-5.6-5.4c-0.3-13-3.5-22.5-9.6-28.1c-0.1-0.1-0.1-0.1-0.2-0.2
	C38.7,92.5,33,67.3,42.2,43.9C51.5,20.2,73,5.6,98.4,5.6c25.4,0,46.9,14.7,56.2,38.3c9.3,23.6,3.5,49-15.1,66.2
	c-5.9,5.6-9.1,15-9.3,27.9C130.1,141,127.6,143.4,124.6,143.4z M77.5,132.3h41.8c1.1-13.3,5.3-23.5,12.6-30.3
	c18.2-16.9,18.3-39,12.4-54c-5.9-15.1-21.1-31.2-45.8-31.2c-24.8,0-39.9,16.1-45.8,31.3c-5.9,15.1-5.8,37.2,12.3,54
	c0.1,0.1,0.2,0.1,0.2,0.2C72.2,109,76.4,119.1,77.5,132.3z M118.5,160.9H78.3c-3.1,0-5.6-2.5-5.6-5.6c0-3.1,2.5-5.6,5.6-5.6h40.1
	c3.1,0,5.6,2.5,5.6,5.6C124,158.5,121.5,160.9,118.5,160.9z M113.3,177.9H83.5c-3.1,0-5.6-2.5-5.6-5.6c0-3.1,2.5-5.6,5.6-5.6h29.9
	c3.1,0,5.6,2.5,5.6,5.6C118.9,175.5,116.4,177.9,113.3,177.9z M103.1,194.6h-9.3c-3.1,0-5.6-2.5-5.6-5.6c0-3.1,2.5-5.6,5.6-5.6h9.3
	c3.1,0,5.6,2.5,5.6,5.6C108.6,192.1,106.1,194.6,103.1,194.6z"/>
</svg>
