<?xml version="1.0" standalone="no"?><!DOCTYPE svg PUBLIC "-//W3C//DTD SVG 1.1//EN"
  "http://www.w3.org/Graphics/SVG/1.1/DTD/svg11.dtd">
<svg t="1495681678482" class="icon" style="" viewBox="0 0 1024 1024" version="1.1" xmlns="http://www.w3.org/2000/svg"
     p-id="3081" xmlns:xlink="http://www.w3.org/1999/xlink" width="200" height="200">
  <defs>
    <style type="text/css"></style>
  </defs>
  <path
    d="M348.96 368.11H97.203c-17.663 0-32.013-14.35-32.013-31.998V97.757c0-17.646 14.35-31.996 32.013-31.996H348.96v33.587H98.78v235.174h250.18v33.588z"
    fill="" p-id="3082"></path>
  <path
    d="M927.598 811.693H689.273c-17.662 0-32.029-14.35-32.029-31.995v-175.15c-123.786-14.63-221.808-112.652-236.421-236.438h-77.44c-17.646 0-32.012-14.35-32.012-31.998V97.757c0-17.646 14.366-31.996 32.012-31.996h345.89c149.059 0 270.336 121.277 270.336 270.351v443.586c0 17.646-14.349 31.995-32.011 31.995zM690.83 778.107h235.192V336.112c0-130.558-106.206-236.764-236.749-236.764H344.958v235.174H452l0.934 15.793c7.118 119.49 102.599 214.987 222.105 222.12l15.792 0.918v204.754z m9.643-317.256c-68.813 0-124.77-55.956-124.77-124.738 0-68.813 55.957-124.77 124.77-124.77 68.782 0 124.754 55.957 124.754 124.77 0.001 68.782-55.972 124.738-124.754 124.738z m0-215.922c-50.282 0-91.183 40.9-91.183 91.183 0 50.25 40.902 91.152 91.183 91.152 50.267 0 91.166-40.901 91.166-91.152 0-50.281-40.898-91.183-91.166-91.183z"
    fill="" p-id="3083"></path>
  <path
    d="M881.104 963.082H742.098c-17.646 0-32.013-14.35-32.013-31.997v-124.59h33.587v123h135.873v-123h33.587v124.59c0 17.646-14.366 31.997-32.028 31.997z"
    fill="" p-id="3084"></path>
</svg>
