<?xml version="1.0" standalone="no"?><!DOCTYPE svg PUBLIC "-//W3C//DTD SVG 1.1//EN"
  "http://www.w3.org/Graphics/SVG/1.1/DTD/svg11.dtd">
<svg t="1497580815761" class="icon" style="" viewBox="0 0 1024 1024" version="1.1" xmlns="http://www.w3.org/2000/svg"
     p-id="3601" xmlns:xlink="http://www.w3.org/1999/xlink" width="200" height="200">
  <defs>
    <style type="text/css"></style>
  </defs>
  <path
    d="M807.72096 813.01504v11.11552c0 42.98752-34.62144 77.82912-77.33248 77.82912h-22.0928c-42.70592 0-77.33248-34.84672-77.33248-77.82912v-11.11552H382.99136v11.11552c0 42.98752-34.62656 77.82912-77.33248 77.82912h-22.0928c-42.71104 0-77.33248-34.84672-77.33248-77.82912v-11.11552c-48.81408 0-88.38144-39.82336-88.38144-88.93952V212.6592c0-49.12128 39.56736-88.94464 88.38144-88.94464h601.48224c48.81408 0 88.37632 39.81824 88.37632 88.94464v511.41632c0.00512 49.11616-39.56736 88.93952-88.3712 88.93952z m44.19072-578.1248c0-36.8384-29.68064-66.70848-66.28352-66.70848H228.3264c-36.60288 0-66.28352 29.87008-66.28352 66.70848v466.944c0 36.8384 29.68064 66.70848 66.28352 66.70848h22.0928v55.58272c0 18.42176 14.83776 33.3568 33.14688 33.3568h22.0928c18.29888 0 33.13664-14.93504 33.13664-33.3568v-55.58272h336.36352v55.58272c0 18.42176 14.83264 33.3568 33.13664 33.3568h22.0928c18.304 0 33.13664-14.93504 33.13664-33.3568v-55.58272h22.09792c36.60288 0 66.27328-29.87008 66.27328-66.70848v-466.944h0.01536z m-110.46912 289.05984H272.51712c-24.40704 0-44.1856-19.90656-44.1856-44.4672V279.36768c0-24.56064 19.78368-44.47744 44.1856-44.47744h468.92544c24.40704 0 44.1856 19.91168 44.1856 44.47744v200.1152c-0.00512 24.56064-19.78368 44.4672-44.1856 44.4672z m0-222.35136c0-12.27776-9.89696-22.23104-22.0928-22.23104H294.61504c-12.19584 0-22.09792 9.9584-22.09792 22.23104v155.648c0 12.27776 9.90208 22.23616 22.09792 22.23616h424.73472c12.20096 0 22.0928-9.96352 22.0928-22.23616v-155.648z m-425.95328 266.8288c36.83328 0 66.70336 29.86496 66.70336 66.70336 0 36.84864-29.86496 66.7136-66.70336 66.7136s-66.70848-29.86496-66.70848-66.7136c0-36.8384 29.87008-66.70336 66.70848-66.70336z m0 88.94464a22.23616 22.23616 0 1 0-0.01024-44.47232 22.23616 22.23616 0 0 0 0.01024 44.47232z m381.76256-88.94464c36.60288 0 66.28352 29.86496 66.28352 66.70336 0 36.84864-29.68064 66.7136-66.28352 66.7136-36.608 0-66.28352-29.86496-66.28352-66.7136-0.00512-36.8384 29.6704-66.70336 66.28352-66.70336z m0 88.94464c12.20096 0 22.0928-9.9584 22.0928-22.24128s-9.89696-22.23104-22.0928-22.23104-22.08768 9.94816-22.08768 22.23104 9.8816 22.24128 22.08768 22.24128z"
    p-id="3602"></path>
</svg>
