<?xml version="1.0" standalone="no"?><!DOCTYPE svg PUBLIC "-//W3C//DTD SVG 1.1//EN"
  "http://www.w3.org/Graphics/SVG/1.1/DTD/svg11.dtd">
<svg t="1498476680536" class="icon" style="" viewBox="0 0 1024 1024" version="1.1" xmlns="http://www.w3.org/2000/svg"
     p-id="2373" xmlns:xlink="http://www.w3.org/1999/xlink" width="64" height="64">
  <defs>
    <style type="text/css"></style>
  </defs>
  <path
    d="M690.706767 319.065212c20.93271 0 39.116825-16.989919 39.116825-37.955374L729.823592 108.607363c0-20.970572-18.184115-37.97584-39.116825-37.97584-20.949083 0-37.920582 17.005268-37.920582 37.97584l0 172.502474C652.786185 302.076316 669.757685 319.065212 690.706767 319.065212L690.706767 319.065212zM614.996586 166.243946l-191.992325 0 0 57.338802 191.992325 0L614.996586 166.243946 614.996586 166.243946zM839.621058 166.243946l-71.354999 0 0 57.023624 74.087221 0c21.791262 0 40.181061 18.423568 40.181061 40.236319l0 132.69185L155.48595 396.195739l0-132.69185c0-21.808658 18.390822-40.236319 40.181061-40.236319l74.57022 0 0-57.023624-71.240389 0c-55.246145 0-100.436279 45.266883-100.436279 100.606148l0 583.436863c0 55.322892 43.528289 100.584658 98.77034 100.584658L839.621058 950.871615c55.225679 0 100.436279-45.260743 100.436279-100.584658l0-583.436863C940.05836 211.509805 894.846736 166.243946 839.621058 166.243946L839.621058 166.243946zM882.534341 853.241236c0 21.809681-18.389799 40.237343-40.181061 40.237343L195.66701 893.478579c-21.790239 0-40.181061-18.428684-40.181061-40.237343L155.48595 453.330903l727.048391 0L882.534341 853.241236 882.534341 853.241236zM307.784307 625.514106c31.793037 0 57.543462-25.810801 57.543462-57.659096 0-31.825782-25.751449-57.636583-57.543462-57.636583-31.770524 0-57.543462 25.810801-57.543462 57.636583C250.240844 599.703306 276.013783 625.514106 307.784307 625.514106L307.784307 625.514106zM518.504121 625.514106c31.770524 0 57.543462-25.810801 57.543462-57.659096 0-31.825782-25.769868-57.636583-57.543462-57.636583-31.78792 0-57.545509 25.810801-57.545509 57.636583C460.957589 599.703306 486.715178 625.514106 518.504121 625.514106L518.504121 625.514106zM306.757933 836.308622c31.78792 0 57.543462-25.811824 57.543462-57.637606 0-31.846249-25.755542-57.658073-57.543462-57.658073-31.771547 0-57.544486 25.811824-57.544486 57.658073C249.213447 810.497821 274.986385 836.308622 306.757933 836.308622L306.757933 836.308622zM518.504121 836.308622c31.770524 0 57.543462-25.811824 57.543462-57.637606 0-31.846249-25.769868-57.658073-57.543462-57.658073-31.78792 0-57.545509 25.811824-57.545509 57.658073C460.957589 810.497821 486.715178 836.308622 518.504121 836.308622L518.504121 836.308622zM728.928201 625.514106c31.770524 0 57.543462-25.810801 57.543462-57.659096 0-31.825782-25.773962-57.636583-57.543462-57.636583-31.793037 0-57.544486 25.810801-57.544486 57.636583C671.382692 599.703306 697.134141 625.514106 728.928201 625.514106L728.928201 625.514106zM346.227797 319.065212c20.933733 0 39.116825-16.989919 39.116825-37.955374L385.344622 108.607363c0-20.970572-18.184115-37.97584-39.116825-37.97584-20.950106 0-37.921605 17.005268-37.921605 37.97584l0 172.502474C308.306192 302.076316 325.277691 319.065212 346.227797 319.065212L346.227797 319.065212zM346.227797 319.065212"
    p-id="2374" fill="#7e7b7b"></path>
</svg>
