<?xml version="1.0" standalone="no"?><!DOCTYPE svg PUBLIC "-//W3C//DTD SVG 1.1//EN"
  "http://www.w3.org/Graphics/SVG/1.1/DTD/svg11.dtd">
<svg t="1495683191424" class="icon" style="" viewBox="0 0 1024 1024" version="1.1" xmlns="http://www.w3.org/2000/svg"
     p-id="6391" xmlns:xlink="http://www.w3.org/1999/xlink" width="200" height="200">
  <defs>
    <style type="text/css"></style>
  </defs>
  <path
    d="M515.248486 225.158063 277.192671 463.304951c-11.129478 10.945283-20.710694 23.174815-28.009937 35.586496-7.299243 12.405541-12.95915 25.361621-16.60519 38.867216l-0.183172 0.549515c-3.01159 13.139252-5.018294 26.821879-4.65502 40.144302 0.638543 13.138228 3.285836 27.01119 7.757684 40.693818 4.013407 11.862165 9.66922 23.908526 16.606213 35.036981 7.208169 10.952446 15.512299 21.897729 25.090445 31.206746 9.309016 8.943696 19.803022 17.153682 31.571043 24.269753 11.31265 6.755868 23.453155 12.412704 35.404348 16.426111 14.59951 4.378727 28.742625 6.572696 42.703591 7.116071 14.136975 0.366344 28.736485-1.277086 42.513256-5.290493 11.319813-2.376117 22.720468-7.116071 33.672914-12.955056 11.678994-6.024204 22.624277-13.140275 32.756031-21.538549 5.655813-4.379751 12.134365-6.566556 18.795065-6.200212 8.303106-0.733711 15.603373 2.186805 21.715581 7.116071 9.676383 7.842619 19.799952 15.326057 30.930453 20.621667l1.282203 0.725524c10.67513 5.296633 21.620413 9.853415 32.757055 12.229532l0 0c13.960966 3.829212 28.193109 5.656837 42.336224 5.290493 14.144138-0.543376 28.282137-2.737344 42.520419-7.300266 12.317537-3.829212 24.26873-9.487072 35.58138-16.241916l1.825578-1.277086c10.769274-6.566556 20.893866-14.598486 30.020734-23.356964 9.485025-9.487072 17.789155-19.890003 24.905226-31.024597 6.478552-10.395768 12.141528-21.349237 16.154935-32.661887 0-1.642406 0.821715-3.101641 1.188058-4.746094 4.100388-12.955056 6.565533-25.91216 6.931876-38.139645 0.360204-13.68979-1.460258-27.738761-4.835122-40.876989-3.65218-13.323447-9.403161-26.279526-16.426111-38.685068l-0.638543-0.732687c-7.29822-12.045337-16.60826-23.908526-27.736715-34.854832l-1.004887-1.093914L515.248486 225.158063 515.248486 225.158063zM236.865197 422.977477 236.865197 422.977477l241.158479-241.066381c0.821715-0.733711 2.003634-1.826602 3.191692-3.103688 9.764388-8.032954 22.265096-12.228509 34.033118-12.228509 13.139252 0 26.732851 5.112438 37.230949 15.332197l238.96144 239.056608 2.37714 2.009773c13.776771 13.316284 25.910113 29.197996 35.675524 45.616944l1.003863 1.100054c9.852392 17.334807 17.607006 34.670637 22.442128 53.281507 4.841262 18.429745 7.123234 37.409005 6.478552 56.936757-0.823761 18.796088-3.831258 37.774325-9.94142 56.026014-0.366344 1.642406-1.003863 3.103688-1.372254 4.562922-5.655813 15.692401-12.95608 30.29191-21.443381 43.614333-9.3039 14.965853-20.709671 29.013801-33.210379 41.603537-11.952216 11.678994-25.545816 22.080901-39.872103 31.024597l-2.281973 1.459235c-14.965853 8.942673-30.746258 16.426111-48.176233 21.714558-19.162432 6.024204-38.684044 9.494235-57.845453 10.036587-19.895119 0.550539-39.32975-1.819438-58.580187-6.565533-6.6607-2.009773-13.504572-4.196579-19.9821-6.932899 3.645017 7.477298 8.026814 14.232143 12.955056 20.615527 17.97335 23.541159 41.698704 42.886763 69.986981 55.298444 11.129478 3.830235 19.522636 14.59951 19.522636 27.371394 0 15.693424-12.772908 28.282137-28.560476 28.282137L390.151349 908.023592l0-0.361227c-11.31265 0-21.715581-6.205329-26.366508-16.975627-6.022157-14.598486 0.638543-31.200606 15.053857-37.222763 28.925796-12.229532 53.649897-32.118512 71.990614-56.392358 4.929266-6.383384 9.398044-13.139252 13.416568-20.255323-6.843872 2.736321-13.600763 4.562922-20.621667 6.572696-18.707061 5.290493-38.140669 7.299243-58.394968 6.565533-18.97926-0.541329-38.412868-3.829212-58.307987-10.036587-16.785292-5.288446-32.755008-12.770861-47.717791-21.347191-14.965853-9.309016-29.197996-20.621667-41.881876-32.851199-12.863982-12.406564-23.905456-26.637684-33.486672-41.603537-9.305947-14.600533-16.972557-30.29191-22.265096-46.901193-6.477528-18.977213-9.670244-38.505989-10.490935-57.302077-0.638543-19.162432 1.64343-37.773302 6.477528-55.659671l0-1.277086c5.293563-18.611893 12.500709-35.9467 22.629393-53.281507C210.312448 452.90202 222.721059 437.210643 236.865197 422.977477L236.865197 422.977477zM515.248486 802.001907 515.248486 802.001907c-5.655813 10.585079-11.768021 20.2543-18.978237 29.564339-5.107321 6.566556-10.770298 12.95608-16.697287 19.890003l71.352071 0c-6.112208-6.932899-11.583826-13.323447-16.603143-19.890003C527.381827 822.256206 520.904299 812.585963 515.248486 802.001907L515.248486 802.001907z"
    p-id="6392"></path>
</svg>
