<?xml version="1.0" encoding="utf-8"?>
<!-- Generator: Adobe Illustrator 19.0.0, SVG Export Plug-In . SVG Version: 6.00 Build 0)  -->
<svg version="1.1" id="图层_1" xmlns="http://www.w3.org/2000/svg" xmlns:xlink="http://www.w3.org/1999/xlink" x="0px" y="0px"
	 viewBox="0 0 200 200" style="enable-background:new 0 0 200 200;" xml:space="preserve">
<style type="text/css">
	.st0{fill:none;}
</style>

	<path d="M189.1,7H9.4c-3.1,0-6.1,3-6.1,6.1v167.6c0,1.4,2.7,4.5,3.6,5.5c3.2,4,7.8,6.7,13.1,7.3c0.7,0.1,1.5,0.1,2.3,0.1
		c4.4,0,8.6-1.5,12.1-4.3c1.4-1.2,3.1-1.7,5-1.7c0.3,0,0.7,0,0.9,0c2.1,0.2,4,1.3,5.4,3c0.9,1.2,2.3,2,3.8,2.1c0.2,0,0.5,0,0.6,0
		c0.5,0,1-0.1,1.5-0.2c0.3,0.1,0.7,0.2,1.2,0.3c0.6,0.1,1,0.2,1.6,0.2c0.2,0,0.5,0,0.6,0c1.5-0.1,2.9-0.9,3.8-2.1
		c1.4-1.7,3.2-2.8,5.4-3c0.3,0,0.7,0,0.9,0c1.8,0,3.6,0.6,5,1.7c3.5,2.8,7.7,4.3,12.1,4.3c0.7,0,1.5,0,2.3-0.1
		c5.2-0.6,9.8-3.2,13.1-7.3c0.3-0.5,1-1.3,1.8-2.2c0.7,0.9,1.4,1.7,1.7,2.2c3.2,4,7.8,6.7,13.1,7.3c0.7,0.1,1.5,0.1,2.3,0.1
		c4.4,0,8.6-1.5,12.1-4.3c1.4-1.2,3.1-1.7,5-1.7c0.3,0,0.7,0,0.9,0c2.1,0.2,4,1.3,5.4,3c0.9,1.2,2.3,2,3.8,2.1c0.2,0,0.5,0,0.6,0
		c0.6,0,1-0.1,1.6-0.2c0.3-0.1,0.7-0.1,1-0.2c0.3,0.1,0.7,0.1,1.2,0.1c0.2,0,0.5,0,0.7,0c1.5-0.2,2.9-0.9,3.8-2.2
		c1.4-1.7,3.2-2.8,5.4-3c0.3,0,0.6,0,0.9,0c1.7,0,3.6,0.6,5,1.7c3.5,2.8,7.8,4.3,12.2,4.3c0.7,0,1.5,0,2.2-0.1
		c5.2-0.6,9.9-3.2,13-7.3c0.9-1,3.8-4.2,3.7-5.5V13.1C195.2,10,192.2,7,189.1,7z M22.2,182.1c-0.3,0-0.7,0-0.9-0.1
		c-1.5-0.1-4.5-0.3-5.8-1.4V19.2h9.1l0.5,162.3C24.1,181.9,23.2,182.1,22.2,182.1z M45.9,177.6L45.9,177.6c-1.2-0.3-3.3-1.4-4.4-1.4
		c-0.7-0.1-1.5-0.1-2.2-0.1c-0.9,0-4.7,1.5-5.5,1.6V19.2h12.1V177.6L45.9,177.6L45.9,177.6z M70.6,178c-0.9-0.1-4.7-1.6-5.5-1.6
		c-0.7,0-1.5,0-2.2,0.1c-1,0.1-3.3,1.2-4.4,1.4l0,0l0,0l0,0V19.6h12.2V178H70.6z M88.9,181c-1.3,1-4.2,1.2-5.8,1.4
		c-0.3,0-0.7,0.1-0.9,0.1c-1,0-2-0.2-3-0.6l0.5-162.3h9.1V181H88.9z M116.5,182.5c-0.3,0-0.7,0-0.9-0.1c-1.5-0.1-4.5-0.3-5.8-1.4
		V19.6h9.1l0.5,162.3C118.6,182.2,117.5,182.5,116.5,182.5z M140.2,178L140.2,178c-1.2-0.3-3.3-1.4-4.4-1.4
		c-0.7-0.1-1.5-0.1-2.2-0.1c-0.9,0-4.7,1.5-5.5,1.6V19.6h12.2V178C140.2,178,140.2,178,140.2,178L140.2,178z M164.8,177.6
		c-0.9-0.1-5-1.6-5.8-1.6c-0.7,0-1.5,0-2.2,0.1c-1.2,0.1-3.1,1.2-4.2,1.4V19.2h12.2v158.4H164.8z M183,180.7c-1.2,0.9-4.4,1.2-6,1.4
		c-0.3,0-0.6,0-0.9,0c-1,0-1.3-1-2.3-1.4V19.2h9.1v161.5H183z"/>

</svg>
