<?xml version="1.0" standalone="no"?><!DOCTYPE svg PUBLIC "-//W3C//DTD SVG 1.1//EN"
  "http://www.w3.org/Graphics/SVG/1.1/DTD/svg11.dtd">
<svg t="1495683207486" class="icon" style="" viewBox="0 0 1024 1024" version="1.1" xmlns="http://www.w3.org/2000/svg"
     p-id="7117" xmlns:xlink="http://www.w3.org/1999/xlink" width="200" height="200">
  <defs>
    <style type="text/css"></style>
  </defs>
  <path
    d="M397.591066 249.655467C408.838056 261.82181 413.81897 273.108824 412.291346 283.217425 409.821991 299.745363 391.15535 310.661577 390.85082 310.840866 382.976851 315.269286 380.232755 325.158667 384.714669 332.926741 389.194927 340.741267 399.264337 343.486822 407.189612 339.060032 408.516145 338.315984 439.870506 320.502876 444.870455 288.286395 445.232086 285.975205 445.452209 283.671351 445.529997 281.363421 446.155612 262.893465 437.818227 244.425138 420.661832 226.375695 419.863264 225.52326 418.862777 224.692829 417.892084 224.038427 417.726577 223.917815 400.9194 212.306452 399.601143 194.891852 398.660239 181.578879 406.558204 167.234184 423.182495 151.921332 429.835852 145.789672 430.184243 135.517266 423.960375 128.961833 417.733196 122.40966 407.302156 122.066568 400.646315 128.196598 376.198538 150.722545 364.793491 174.117226 366.740673 197.749055 369.107415 226.422147 390.976604 244.729114 397.591066 249.655467L397.591066 249.655467ZM509.25741 249.655467C520.504399 261.82181 525.485314 273.108824 523.957689 283.217425 521.488335 299.745363 502.821694 310.661577 502.517163 310.840866 494.643195 315.269286 491.899099 325.158667 496.381013 332.926741 500.861271 340.741267 510.930681 343.486822 518.855955 339.060032 520.182489 338.315984 551.53685 320.502876 556.536798 288.286395 556.899257 285.975205 557.118552 283.671351 557.196341 281.363421 557.821956 262.893465 549.48457 244.425138 532.328176 226.375695 531.529608 225.52326 530.529121 224.692829 529.558426 224.038427 529.392921 223.917815 512.585744 212.306452 511.267487 194.891852 510.326583 181.578879 518.224548 167.234184 534.848839 151.921332 541.502196 145.789672 541.850587 135.517266 535.626718 128.961833 529.39954 122.40966 518.969326 122.066568 512.312659 128.196598 487.86488 150.722545 476.459834 174.117226 478.407016 197.749055 480.774585 226.422147 502.643776 244.729114 509.25741 249.655467L509.25741 249.655467ZM803.442563 425.92196C780.935346 425.92196 760.400967 434.369698 744.936875 448.216461L744.936875 393.860318C744.936875 385.822498 731.712915 379.308627 723.546829 379.308627L209.593997 379.308627C201.432049 379.308627 194.817585 385.822498 194.817585 393.860318L194.817585 553.57687C194.817585 597.970287 202.834716 637.808965 218.654645 672.002507 231.460704 699.689513 249.346153 723.688884 271.801235 743.325844 310.175549 776.870688 348.648341 786.033134 350.266166 786.411271 351.365128 786.664718 352.50464 786.79674 353.636704 786.79674L563.744602 786.79674C564.661508 786.79674 565.577585 786.709541 566.476284 786.540032 568.310095 786.199384 611.97896 777.838844 655.838985 745.319203 681.739082 726.125575 702.38187 702.459517 717.203795 674.985212 735.604798 640.878871 744.937703 600.959513 744.937703 556.333021L744.937703 516.821135C745.551733 515.221395 745.890193 513.488003 745.890193 511.675561 745.890193 480.430497 771.705054 459.452134 803.442563 459.452134 835.170968 459.452134 856.473296 480.431312 856.473296 511.675561 856.473296 542.931219 826.615942 565.279507 794.41667 568.354302 786.296099 569.129317 779.644397 574.868173 779.644397 582.891324 779.644397 590.925886 786.286996 596.771499 794.41667 597.440572 842.862878 601.426476 889.618437 558.965299 889.618437 511.675561 889.619265 464.392342 855.499292 424.83971 803.442563 425.92196L803.442563 425.92196ZM707.563875 553.33972C707.563875 592.035028 699.682459 626.411933 684.137271 655.503092 671.778908 678.641064 654.493419 698.634971 632.783116 714.92902 598.858441 740.385515 564.260154 747.260407 557.570385 748.756649L364.07271 748.756649C357.527759 746.930354 336.03758 739.845205 307.764121 715.122976 288.808673 698.549402 267.083474 678.24337 256.230392 654.782679 242.471017 625.035488 235.496577 590.001736 235.496577 550.640617L235.496577 412.859177 707.563875 412.859177 707.563875 553.33972 707.563875 553.33972ZM733.207437 828.08358 210.612689 828.08358C201.888847 828.08358 194.817585 839.103292 194.817585 847.693646 194.817585 856.284001 201.889674 865.703157 210.612689 865.703157L733.207437 865.703157C741.93128 865.703157 749.00254 854.951563 749.00254 846.361208 749.00254 837.770853 741.93128 828.08358 733.207437 828.08358L733.207437 828.08358Z"
    p-id="7118"></path>
</svg>
