<?xml version="1.0" encoding="utf-8"?>
<!-- Generator: Adobe Illustrator 19.0.0, SVG Export Plug-In . SVG Version: 6.00 Build 0)  -->
<svg version="1.1" id="图层_1" xmlns="http://www.w3.org/2000/svg" xmlns:xlink="http://www.w3.org/1999/xlink" x="0px" y="0px"
	 viewBox="0 0 200 200" style="enable-background:new 0 0 200 200;" xml:space="preserve">
<style type="text/css">
	.st0{fill:#7E7B7B;}
</style>
<path class="st0" d="M182,142l-25.4-14.7l23.3-7.3c3.4-1.1,5.2-4.7,4.2-8c-1.1-3.4-4.7-5.2-8-4.2l-34.5,10.8l-28.7-16.7L141,85.7
	l35.1,11c0.6,0.2,1.3,0.3,1.9,0.3c2.8,0,5.2-1.7,6.1-4.5c1.1-3.4-0.9-6.9-4.2-8L156.1,77l25.7-14.8c3.1-1.8,4.2-5.7,2.4-8.8
	c-1.8-3.1-5.7-4.2-8.8-2.4l-25.5,14.6l5.3-23.8c0.7-3.4-1.4-6.8-4.8-7.7c-3.4-0.7-6.8,1.4-7.7,4.8l-7.9,35.4l-28.7,16.6V58.4
	l27-24.9c2.6-2.4,2.8-6.4,0.3-9.1c-2.4-2.6-6.4-2.8-9.1-0.3l-18.3,17V14.4c0-3.5-2.9-6.4-6.4-6.4s-6.4,2.9-6.4,6.4v26.4L75.4,24.2
	c-2.6-2.4-6.6-2.2-9.1,0.3c-2.4,2.6-2.2,6.6,0.3,9.1l26.7,24.6v32.6L65.1,74.4l-7.9-35.4c-0.7-3.4-4.2-5.7-7.7-4.8
	c-3.4,0.7-5.7,4.2-4.8,7.7l5.3,23.8L24.5,51.1c-3.1-1.8-6.9-0.7-8.8,2.4c-1.8,3.1-0.7,6.9,2.4,8.8l25.9,15l-23.8,7.5
	c-3.4,1.1-5.2,4.7-4.2,8c0.9,2.8,3.4,4.5,6.1,4.5c0.6,0,1.3-0.1,1.9-0.3l35.1-11L87.2,102l-28.6,16.6l-34.5-10.8
	c-3.4-1.1-6.9,0.9-8,4.2c-1.1,3.3,0.9,6.9,4.2,8l23.3,7.3L18,142c-3.1,1.8-4.2,5.7-2.4,8.8c1.2,2,3.3,3.2,5.6,3.2
	c1.1,0,2.1-0.3,3.2-0.9l25.9-15l-5.4,24.4c-0.7,3.4,1.4,6.8,4.8,7.7c0.4,0.1,1,0.1,1.4,0.1c2.9,0,5.6-2,6.2-5l8-35.9l28.1-16.2v33.2
	l-26.7,24.6c-2.6,2.4-2.8,6.4-0.3,9.1c1.3,1.4,3,2,4.7,2c1.6,0,3.1-0.5,4.4-1.7l17.9-16.6v25.5c0,3.5,2.9,6.4,6.4,6.4
	s6.4-2.9,6.4-6.4v-25.9l18.4,16.9c2.6,2.4,6.6,2.2,9.1-0.3c2.4-2.6,2.2-6.6-0.3-9.1l-27-24.9v-33.1l28.6,16.6l8,35.9
	c0.6,3,3.3,5,6.2,5c0.4,0,1,0,1.4-0.1c3.4-0.7,5.7-4.2,4.8-7.7l-5.4-24.4l25.7,14.8c1,0.5,2.1,0.9,3.2,0.9c2.2,0,4.4-1.2,5.6-3.2
	C186.2,147.6,185.1,143.7,182,142z"/>
</svg>
