<?xml version="1.0" encoding="utf-8"?>
<!-- Generator: Adobe Illustrator 19.0.0, SVG Export Plug-In . SVG Version: 6.00 Build 0)  -->
<svg version="1.1" id="图层_1" xmlns="http://www.w3.org/2000/svg" xmlns:xlink="http://www.w3.org/1999/xlink" x="0px" y="0px"
	 viewBox="0 0 200 200" style="enable-background:new 0 0 200 200;" xml:space="preserve">
<style type="text/css">
	.st0{fill:#25C0B1;}
</style>
<path class="st0" d="M32.5,119.2h65.7c11.1,0,20.1-9,20.1-20.1V44.4c0-11.1-9-20.1-20.1-20.1l-65.7,0c-11.1,0-20.1,9-20.1,20.1v54.8
	C12.4,110.2,21.4,119.2,32.5,119.2z M23.3,44.4c0-5,4.1-9.1,9.1-9.1h65.7c5,0,9.1,4.1,9.1,9.1v54.8c0,5-4.1,9.1-9.1,9.1H32.5
	c-5,0-9.1-4.1-9.1-9.1V44.4z"/>
<path class="st0" d="M171.2,24.3H142c-9.1,0-16.4,7.4-16.4,16.4v116.8c0,9.1,7.4,16.4,16.4,16.4h29.2c9.1,0,16.4-7.4,16.4-16.4V40.7
	C187.6,31.7,180.3,24.3,171.2,24.3z M176.7,157.6c0,3-2.5,5.5-5.5,5.5H142c-3,0-5.5-2.5-5.5-5.5V40.7c0-3,2.5-5.5,5.5-5.5h29.2
	c3,0,5.5,2.5,5.5,5.5V157.6z"/>
<path class="st0" d="M90.1,153.1c0,3,2.5,5.5,5.5,5.5s5.5-2.5,5.5-5.5c0-3-2.5-5.5-5.5-5.5C92.6,147.6,90.1,150,90.1,153.1
	C90.1,153.1,90.1,153.1,90.1,153.1z"/>
<path class="st0" d="M157,57.2c-8.1,0-14.6,6.6-14.6,14.6S149,86.4,157,86.4s14.6-6.6,14.6-14.6S165.1,57.2,157,57.2z M157,79.1
	c-4,0-7.3-3.3-7.3-7.3c0-4,3.3-7.3,7.3-7.3c4,0,7.3,3.3,7.3,7.3C164.3,75.8,161.1,79.1,157,79.1z"/>
<path class="st0" d="M153.4,71.8c0,2,1.6,3.7,3.7,3.7s3.7-1.6,3.7-3.7c0-2-1.6-3.7-3.7-3.7S153.4,69.8,153.4,71.8z"/>
<path class="st0" d="M157,111.3c-8.1,0-14.6,6.6-14.6,14.6s6.5,14.6,14.6,14.6s14.6-6.6,14.6-14.6S165.1,111.3,157,111.3z
	 M157,133.2c-4,0-7.3-3.3-7.3-7.3s3.3-7.3,7.3-7.3c4,0,7.3,3.3,7.3,7.3C164.3,129.9,161.1,133.2,157,133.2z"/>
<path class="st0" d="M153.4,125.9c0,2,1.6,3.7,3.7,3.7s3.7-1.6,3.7-3.7c0-2-1.6-3.7-3.7-3.7S153.4,123.9,153.4,125.9z"/>
<path class="st0" d="M31.6,153.1c0,3,2.5,5.5,5.5,5.5s5.5-2.5,5.5-5.5c0-3-2.5-5.5-5.5-5.5S31.6,150,31.6,153.1L31.6,153.1z"/>
<path class="st0" d="M99.3,131.3H34.9c-11.1,0-20.1,9-20.1,20.1v11.6c0,7,5.7,12.8,12.8,12.8h79c7,0,12.8-5.7,12.8-12.8v-11.6
	C119.4,140.3,110.3,131.3,99.3,131.3z M108.4,162.9c0,1-0.8,1.8-1.8,1.8h-79c-1,0-1.8-0.8-1.8-1.8v-11.6c0-5,4.1-9.1,9.1-9.1h64.3
	c5,0,9.1,4.1,9.1,9.1V162.9z"/>
</svg>
