<?xml version="1.0" encoding="utf-8"?>
<!-- Generator: Adobe Illustrator 19.0.0, SVG Export Plug-In . SVG Version: 6.00 Build 0)  -->
<svg version="1.1" id="图层_1" xmlns="http://www.w3.org/2000/svg" xmlns:xlink="http://www.w3.org/1999/xlink" x="0px" y="0px"
	 viewBox="0 0 200 200" style="enable-background:new 0 0 200 200;" xml:space="preserve">
<style type="text/css">
	.st0{fill:#25C0B1;}
</style>
<path class="st0" d="M150.7,65.8l-21.3-32.9c-1-1.5-2.6-2.4-4.3-2.4c-1.7,0-3.4,0.9-4.3,2.3L95.6,70.5c-1.1,1.6-1.2,3.6-0.3,5.2
	c0.9,1.7,2.6,2.7,4.5,2.7h20v16.1c0,1.5-1.4,3.6-3.6,5.4c-2.3,1.9-5.2,3.1-7.3,3.1H93.7h-17H60.3c-5.1,0-8.5,1.9-10.3,5.5
	c-1.4,2.7-1.5,6-1.5,9.9v46.2c0,2.7,2.2,4.9,4.9,4.9s4.9-2.2,4.9-4.9v-46.2c0-1.5,0-4.4,0.4-5.4c0.2-0.1,0.7-0.2,1.6-0.2h16.3h17
	h15.3c4.3,0,9.4-2,13.5-5.4c4.6-3.7,7.2-8.5,7.2-13V75.1c0.2-0.5,0.2-1,0.2-1.5c0-2.7-2.2-4.9-4.9-4.9h-16.3L125,44.3l17.4,26.9
	c1.5,2.3,4.5,2.9,6.8,1.5C151.5,71.1,152.1,68.1,150.7,65.8z"/>
</svg>
