<?xml version="1.0" encoding="utf-8"?>
<!-- Generator: Adobe Illustrator 19.0.0, SVG Export Plug-In . SVG Version: 6.00 Build 0)  -->
<svg version="1.1" id="图层_1" xmlns="http://www.w3.org/2000/svg" xmlns:xlink="http://www.w3.org/1999/xlink" x="0px" y="0px"
	 viewBox="0 0 200 200" style="enable-background:new 0 0 200 200;" xml:space="preserve">
<style type="text/css">
	.st0{fill:#25C0B1;}
</style>
<path class="st0" d="M104.3,27.3l-1.2,1.5c-0.7,0.9-1.3,2-1.6,3l-1.3-1.1c-5.6-4.4-13.7-3.4-18,2.2l-0.2,0.3
	c-4.4,5.6-3.4,13.7,2.2,18L110,71.6l-35.4,45.2L48.7,96.5c-5.6-4.4-13.7-3.4-18,2.2l-0.2,0.3c-4.4,5.6-3.4,13.7,2.2,18L34,118
	c-1,0.6-1.8,1.3-2.6,2.3l-1.2,1.5c-3.3,4.2-2.5,10.2,1.6,13.5l49.7,39c4.2,3.3,10.2,2.5,13.5-1.6l1.2-1.5c0.7-0.9,1.3-2,1.6-3
	l1.9,1.5c5.6,4.4,13.7,3.4,18-2.2l0.2-0.3c4.4-5.6,3.4-13.7-2.2-18L90.2,129l35.4-45.2l25.7,20.1c5.6,4.4,13.7,3.4,18-2.2l0.2-0.3
	c4.4-5.6,3.4-13.7-2.2-18l-1.9-1.5c1-0.6,1.8-1.3,2.6-2.3l1.2-1.5c3.3-4.2,2.5-10.2-1.6-13.5l-49.7-39
	C113.6,22.4,107.6,23.1,104.3,27.3z M90.8,162.7c1.4,1.1,1.6,3.1,0.5,4.5l-1.2,1.5c-1.1,1.4-3.1,1.6-4.5,0.5l-49.8-39
	c-1.4-1.1-1.6-3.1-0.5-4.5l1.2-1.5c1.1-1.4,3.1-1.6,4.5-0.5L90.8,162.7z M113,163.2l-0.2,0.3c-2.2,2.8-6.2,3.3-9,1.1l-67.2-52.7
	c-2.8-2.2-3.3-6.2-1.1-9l0.2-0.3c2.2-2.8,6.2-3.3,9-1.1l67.2,52.7C114.7,156.4,115.2,160.4,113,163.2z M120.5,80l-35.4,45.1
	l-5.6-4.4l35.3-45.1L120.5,80L120.5,80z M163.4,88.5c2.8,2.2,3.3,6.2,1.1,9l-0.2,0.3c-2.2,2.8-6.2,3.3-9,1.1L88.1,46.2
	c-2.8-2.2-3.3-6.2-1.1-9l0.2-0.3c2.2-2.8,6.2-3.3,9-1.1L163.4,88.5z M163.6,69.7c1.4,1.1,1.6,3.1,0.5,4.5l-1.2,1.5
	c-1.1,1.4-3.1,1.6-4.5,0.5l-49.8-39c-1.4-1.1-1.6-3.1-0.5-4.5l1.2-1.5c1.1-1.4,3.1-1.6,4.5-0.5L163.6,69.7z"/>
</svg>
