<?xml version="1.0" standalone="no"?><!DOCTYPE svg PUBLIC "-//W3C//DTD SVG 1.1//EN"
  "http://www.w3.org/Graphics/SVG/1.1/DTD/svg11.dtd">
<svg t="1497342321418" class="icon" style="" viewBox="0 0 1024 1024" version="1.1" xmlns="http://www.w3.org/2000/svg"
     p-id="2612" xmlns:xlink="http://www.w3.org/1999/xlink" width="200" height="200">
  <defs>
    <style type="text/css"></style>
  </defs>
  <path
    d="M973.443 552.061l-95.701 0c-50.779 2.93-50.779-80.081 0-77.15l95.701 0C1022.273 471.98 1022.273 554.99 973.443 552.061L973.443 552.061 973.443 552.061zM797.662 281.55c-14.648 15.63-39.059 15.63-54.68 0.98-14.65-15.62-14.65-40.04 0.971-54.69l67.379-68.36c14.65-14.64 39.07-14.64 53.721 0.98 15.619 14.65 15.619 38.09 0 53.71L797.662 281.55 797.662 281.55zM715.633 714.17c-55.66 55.67-124.02 83.99-203.119 83.99-79.101 0-147.461-28.32-204.101-83.99-55.67-55.66-83.99-124.02-83.99-203.12s28.32-147.46 83.99-203.13c56.64-55.66 125-83.979 204.101-83.979 79.1 0 147.459 28.32 203.119 83.979 55.67 55.67 83.99 124.03 83.99 203.13S771.303 658.51 715.633 714.17L715.633 714.17 715.633 714.17zM660.943 362.61c-41.01-41.99-90.82-62.5-149.411-62.5-57.62 0-107.42 20.51-148.44 62.5-41.01 41.01-61.52 90.82-61.52 149.409 0 57.62 20.51 107.431 61.52 148.44 41.02 41.021 90.82 61.521 148.44 61.521 58.59 0 108.401-20.5 149.411-61.521 41.02-41.01 61.529-90.82 61.529-148.44C722.473 453.43 701.963 403.62 660.943 362.61L660.943 362.61 660.943 362.61zM521.303 185.85l-18.56 0c-15.62 0-29.3-13.67-29.3-29.3L473.443 42.3c0-16.6 13.68-29.3 29.3-29.3l18.56 0c15.619 0 29.289 12.7 29.289 29.3l0 114.25C550.592 172.18 536.922 185.85 521.303 185.85L521.303 185.85 521.303 185.85zM226.373 280.58l-68.36-67.38c-14.64-14.65-14.64-39.07 0-53.72 15.63-15.62 39.07-15.62 54.69 0l67.38 67.39c15.63 14.65 15.63 39.06 0 54.68C265.443 296.2 241.023 296.2 226.373 280.58L226.373 280.58 226.373 280.58zM145.323 551.09l-95.7 0c-48.83 2.931-48.83-80.08 0-77.149l95.7 0C196.103 471.01 196.103 554.021 145.323 551.09L145.323 551.09 145.323 551.09zM225.403 744.45c14.65-15.63 39.06-15.63 53.71 0 15.62 14.64 15.62 39.06 0 53.71l-67.38 68.36c-14.65 14.64-39.07 14.64-54.69 0-14.65-15.631-14.65-39.07 0.97-54.69L225.403 744.45 225.403 744.45zM549.623 879.21l0 95.7c2.93 48.83-80.08 48.83-77.15 0l0-95.7C469.543 828.43 552.553 828.43 549.623 879.21L549.623 879.21 549.623 879.21zM796.693 745.42l68.359 67.38c14.641 14.65 14.641 39.07-0.98 54.69-14.65 14.649-38.09 14.649-53.709-0.97l-67.381-67.391c-15.629-14.649-15.629-39.06-0.98-53.71C757.623 729.8 782.043 729.8 796.693 745.42L796.693 745.42z"
    p-id="2613"></path>
</svg>
