<?xml version="1.0" standalone="no"?><!DOCTYPE svg PUBLIC "-//W3C//DTD SVG 1.1//EN"
  "http://www.w3.org/Graphics/SVG/1.1/DTD/svg11.dtd">
<svg t="1493883500638" class="icon" style="" viewBox="0 0 1024 1024" version="1.1" xmlns="http://www.w3.org/2000/svg"
     p-id="37929" xmlns:xlink="http://www.w3.org/1999/xlink" width="200" height="200">
  <defs>
    <style type="text/css"></style>
  </defs>
  <path
    d="M822.487473 280.775778 636.458593 280.775778 636.458593 147.283438c0-34.714639-28.154223-62.848397-62.885236-62.848397L201.514573 84.435041c-34.731012 0-62.885236 28.133757-62.885236 62.848397l0 729.434148c0 34.709523 28.154223 62.848397 62.885236 62.848397l385.167337 0c4.311189 0 20.570501 0 24.87862 0l105.47217 0 13.755282 0 91.700515 0c34.58468 0 62.883189-28.28316 62.883189-62.848397L885.371686 343.629291C885.370663 308.919768 857.216439 280.775778 822.487473 280.775778zM577.401546 259.001869l-0.294712 0 0 601.86368c0 10.866489-8.813736 19.675108-19.685341 19.675108L217.371726 880.540657c-10.872628 0-19.685341-8.80862-19.685341-19.675108l0-697.731098c0-10.866489 8.813736-19.675108 19.685341-19.675108l340.343455 0c10.872628 0 19.685341 8.80862 19.685341 19.675108L577.400522 259.001869zM826.313615 860.865549c0 10.821463-8.858762 19.675108-19.685341 19.675108L730.787982 880.540657l-13.755282 0-61.182454 0c-10.872628 0-19.685341-8.80862-19.685341-19.675108 0 0 0.151449-406.849148 0.255827-501.538741 0.01228-10.857279 8.821923-19.526729 19.685341-19.526729l150.522202 0c10.872628 0 19.685341 8.80862 19.685341 19.675108L826.313615 860.865549z"
    p-id="37930"></path>
  <path
    d="M326.426491 253.344009l-39.381939 0c-10.824533 0-19.680225 8.855692-19.680225 19.680225l0 39.33896c0 10.824533 8.855692 19.680225 19.680225 19.680225l39.381939 0c10.824533 0 19.680225-8.855692 19.680225-19.680225l0-39.33896C346.106716 262.200724 337.251024 253.344009 326.426491 253.344009z"
    p-id="37931"></path>
  <path
    d="M495.806179 253.344009l-39.381939 0c-10.824533 0-19.680225 8.855692-19.680225 19.680225l0 39.33896c0 10.824533 8.855692 19.680225 19.680225 19.680225l39.381939 0c10.824533 0 19.680225-8.855692 19.680225-19.680225l0-39.33896C515.486404 262.200724 506.629689 253.344009 495.806179 253.344009z"
    p-id="37932"></path>
  <path
    d="M751.925395 571.217706l-39.381939 0c-10.824533 0-19.680225 8.855692-19.680225 19.680225l0 39.33896c0 10.824533 8.855692 19.680225 19.680225 19.680225l39.381939 0c10.824533 0 19.680225-8.855692 19.680225-19.680225l0-39.33896C771.605619 580.074422 762.749928 571.217706 751.925395 571.217706z"
    p-id="37933"></path>
  <path
    d="M751.925395 728.207204l-39.381939 0c-10.824533 0-19.680225 8.855692-19.680225 19.680225l0 39.33896c0 10.824533 8.855692 19.680225 19.680225 19.680225l39.381939 0c10.824533 0 19.680225-8.855692 19.680225-19.680225l0-39.33896C771.605619 737.063919 762.749928 728.207204 751.925395 728.207204z"
    p-id="37934"></path>
  <path
    d="M751.925395 414.228209l-39.381939 0c-10.824533 0-19.680225 8.855692-19.680225 19.680225l0 39.33896c0 10.824533 8.855692 19.680225 19.680225 19.680225l39.381939 0c10.824533 0 19.680225-8.855692 19.680225-19.680225l0-39.33896C771.605619 423.083901 762.749928 414.228209 751.925395 414.228209z"
    p-id="37935"></path>
  <path
    d="M326.426491 411.154197l-39.381939 0c-10.824533 0-19.680225 8.855692-19.680225 19.680225l0 39.33896c0 10.824533 8.855692 19.680225 19.680225 19.680225l39.381939 0c10.824533 0 19.680225-8.855692 19.680225-19.680225l0-39.33896C346.106716 420.009889 337.251024 411.154197 326.426491 411.154197z"
    p-id="37936"></path>
  <path
    d="M495.806179 411.154197l-39.381939 0c-10.824533 0-19.680225 8.855692-19.680225 19.680225l0 39.33896c0 10.824533 8.855692 19.680225 19.680225 19.680225l39.381939 0c10.824533 0 19.680225-8.855692 19.680225-19.680225l0-39.33896C515.486404 420.009889 506.629689 411.154197 495.806179 411.154197z"
    p-id="37937"></path>
  <path
    d="M326.426491 569.168024l-39.381939 0c-10.824533 0-19.680225 8.855692-19.680225 19.680225l0 39.33896c0 10.824533 8.855692 19.680225 19.680225 19.680225l39.381939 0c10.824533 0 19.680225-8.855692 19.680225-19.680225l0-39.33896C346.106716 578.024739 337.251024 569.168024 326.426491 569.168024z"
    p-id="37938"></path>
  <path
    d="M495.806179 569.168024l-39.381939 0c-10.824533 0-19.680225 8.855692-19.680225 19.680225l0 39.33896c0 10.824533 8.855692 19.680225 19.680225 19.680225l39.381939 0c10.824533 0 19.680225-8.855692 19.680225-19.680225l0-39.33896C515.486404 578.024739 506.629689 569.168024 495.806179 569.168024z"
    p-id="37939"></path>
  <path
    d="M326.426491 728.207204l-39.381939 0c-10.824533 0-19.680225 8.855692-19.680225 19.680225l0 39.33896c0 10.824533 8.855692 19.680225 19.680225 19.680225l39.381939 0c10.824533 0 19.680225-8.855692 19.680225-19.680225l0-39.33896C346.106716 737.063919 337.251024 728.207204 326.426491 728.207204z"
    p-id="37940"></path>
  <path
    d="M495.806179 728.207204l-39.381939 0c-10.824533 0-19.680225 8.855692-19.680225 19.680225l0 39.33896c0 10.824533 8.855692 19.680225 19.680225 19.680225l39.381939 0c10.824533 0 19.680225-8.855692 19.680225-19.680225l0-39.33896C515.486404 737.063919 506.629689 728.207204 495.806179 728.207204z"
    p-id="37941"></path>
</svg>
