<?xml version="1.0" encoding="utf-8"?>
<!-- Generator: Adobe Illustrator 19.0.0, SVG Export Plug-In . SVG Version: 6.00 Build 0)  -->
<svg version="1.1" id="图层_1" xmlns="http://www.w3.org/2000/svg" xmlns:xlink="http://www.w3.org/1999/xlink" x="0px" y="0px"
	 viewBox="0 0 200 200" style="enable-background:new 0 0 200 200;" xml:space="preserve">
<style type="text/css">
	.st0{fill:#25C0B1;}
</style>
<path class="st0" d="M102.6,188.8c-48.3,0-87.5-39.2-87.5-87.5s39.2-87.5,87.5-87.5S190,53,190,101.3S150.9,188.8,102.6,188.8z
	 M102.6,16.6c-46.7,0-84.7,38-84.7,84.7s38,84.7,84.7,84.7s84.7-38,84.7-84.7S149.3,16.6,102.6,16.6z"/>

	<path class="st0" d="M140.4,100.8c-3-1.7-8.4-3.6-17.4-3.6c-9,0-14.4,2-17.4,3.6c-1.9,1-3.3,2.3-4.3,3.6c-0.9,1.3-1.4,2.6-1.4,3.9
		v31.9c0,1.3,0.5,2.6,1.4,3.9c1,1.3,2.4,2.6,4.3,3.6c3,1.7,8.4,3.6,17.4,3.6c8.9,0,14.3-2,17.3-3.6c1.9-1,3.3-2.2,4.3-3.6
		c0.9-1.2,1.4-2.5,1.4-3.9l0-0.5v-31.5c0-1.3-0.5-2.6-1.4-3.9C143.7,103,142.3,101.8,140.4,100.8z M141.4,132.6v7.6
		c0,2.6-7.1,6.5-18.3,6.5s-18.3-3.8-18.3-6.5v-7.6v-1.4l1.2,0.7c4.2,2.3,10.2,3.5,17.1,3.5c7,0,12.9-1.2,17.1-3.5l1.2-0.7V132.6z
		 M141.4,116.6v7.6c0,2.6-7.1,6.5-18.3,6.5s-18.3-3.8-18.3-6.5v-7.6v-1.4l1.2,0.7c4.2,2.3,10.2,3.5,17.1,3.5c7,0,12.9-1.2,17.1-3.5
		l1.2-0.7L141.4,116.6z M123.1,114.7c-11.2,0-18.3-3.8-18.3-6.5c0-2.6,7.1-6.5,18.3-6.5s18.3,3.8,18.3,6.5
		C141.4,110.9,134.3,114.7,123.1,114.7z"/>
	<path class="st0" d="M65,84.4l1.3,0.8c3.2,2.1,7.6,3.9,12.7,5.1c4.9,1.1,10.4,1.7,15.9,1.7c5.4,0,10.9-0.6,15.9-1.7
		c5.1-1.2,9.5-2.9,12.7-5.1l1.3-0.9v1.5v7.5h4.7V76c0-2.4-1-4.7-2.9-6.7c-1.8-1.9-4.5-3.6-7.8-5.1c-6.4-2.7-15-4.3-23.7-4.3
		c-8.7,0-17.4,1.6-23.8,4.3c-3.4,1.4-6,3.2-7.9,5.1c-1.9,2-2.9,4.3-2.9,6.7l0,49.7c0,2.4,1,4.7,2.9,6.7c1.8,1.9,4.5,3.6,7.8,5.1
		c6.2,2.6,14.5,4.2,22.9,4.3v-4.7c-7.9-0.1-15.2-1.4-20.7-3.7c-2.5-1-4.6-2.3-6-3.6c-1.5-1.4-2.3-2.8-2.3-4.1v-14.9v-1.5l1.3,0.8
		c3.2,2.1,7.6,3.9,12.7,5.1c4.7,1.1,9.9,1.7,15,1.7v-4.7c-7.9-0.1-15.2-1.4-20.7-3.7c-2.5-1-4.6-2.3-6-3.6c-1.5-1.4-2.3-2.8-2.3-4.1
		V85.9L65,84.4L65,84.4z M67.3,71.9c1.4-1.3,3.5-2.5,6-3.6c5.7-2.4,13.4-3.7,21.6-3.7c8.2,0,15.9,1.3,21.6,3.7c2.5,1,4.6,2.3,6,3.6
		c1.5,1.4,2.3,2.8,2.3,4.1c0,1.3-0.8,2.8-2.3,4.1c-1.4,1.3-3.5,2.5-6,3.6c-5.7,2.4-13.4,3.7-21.6,3.7c-8.2,0-15.9-1.3-21.6-3.7
		c-2.5-1-4.6-2.3-6-3.6C65.8,78.8,65,77.4,65,76S65.8,73.3,67.3,71.9z"/>

</svg>
