<?xml version="1.0" encoding="utf-8"?>
<!-- Generator: Adobe Illustrator 19.0.0, SVG Export Plug-In . SVG Version: 6.00 Build 0)  -->
<svg version="1.1" id="图层_1" xmlns="http://www.w3.org/2000/svg" xmlns:xlink="http://www.w3.org/1999/xlink" x="0px" y="0px"
	 viewBox="0 0 200 200" style="enable-background:new 0 0 200 200;" xml:space="preserve">
<style type="text/css">
	.st0{fill:#25C0B1;}
</style>
<path class="st0" d="M177,34.6c-9.2-13.1-24.3-21-40.4-21c-10.2,0-20,3.1-28.3,9c-10.8,7.6-18,18.9-20.2,31.9
	c-0.5,2.8-0.7,5.5-0.7,8.3l-54.7,43.5c-2.9,2.1-4.9,5-5.8,8.3c-0.9,3.5-0.3,7.1,1.7,9.9l13.6,19.3c2,2.8,5.1,4.6,8.7,4.9
	c0.4,0,0.9,0.1,1.3,0.1c2.9,0,5.9-0.9,8.4-2.7l59.5-36.6c5.2,1.9,10.8,2.9,16.5,2.9c10.2,0,20-3.1,28.3-9
	c10.8-7.6,18-18.9,20.2-31.9C187.5,58.5,184.6,45.4,177,34.6z M56.3,139.3c-0.1,0-0.1,0.1-0.2,0.1c-1.4,1-3,1.4-4.5,1.3
	c-0.7-0.1-2.1-0.4-3-1.6L35,119.8c-0.8-1.2-0.7-2.6-0.5-3.3c0.4-1.5,1.4-2.8,2.7-3.8c0.1,0,0.1-0.1,0.2-0.1L88,72.3
	c1.3,6.8,4,13.3,8.1,19.1c4.1,5.8,9.3,10.5,15.2,14.1L56.3,139.3L56.3,139.3z M177.4,70.1c-1.9,10.9-7.9,20.4-17,26.7
	c-0.5,0.4-1,0.7-1.5,1c-14.8-0.8-30.5-11.7-40.4-28.1c-0.6-0.9-1.8-1.3-2.7-0.7c-0.9,0.6-1.3,1.8-0.7,2.7
	c5.1,8.5,11.9,15.9,19.5,21.2c5.9,4.1,12,6.8,18.2,8.1c-5.1,2.1-10.5,3.3-16.1,3.3c-13.5,0-26.1-6.6-33.9-17.6
	c-11.4-16.2-9.5-37.8,3.4-51.8c-0.7,4.7-0.6,9.7,0.4,14.9c0.2,1,1,1.7,2,1.7h0.4c1.1-0.2,1.8-1.2,1.6-2.3
	c-1.2-6.8-0.9-13.2,0.8-18.9c0.5-0.4,1-0.7,1.5-1.1c7-4.9,15.2-7.5,23.7-7.5c13.5,0,26.1,6.6,33.9,17.6
	C176.9,48.2,179.3,59.2,177.4,70.1z M109.4,61.4c0,1.2,0.9,2.1,2.1,2.1c1.2,0,2.1-0.9,2.1-2.1c0-1.2-0.9-2.1-2.1-2.1
	C110.3,59.3,109.4,60.3,109.4,61.4z M93.3,142.3c-4-0.8-8.5-0.4-13,1.2c-4.8,1.7-9.6,4.7-14.2,8.9c-8.4,7.6-18.8,11.8-27.2,11.1
	c-3.1-0.3-7.4-1.4-10.4-5.2c-3.5-4.4-3.5-8.6-0.1-12.3c1.5-1.6,1.4-4.2-0.3-5.6c-1.6-1.5-4.2-1.4-5.6,0.3c-1.6,1.8-3.7,4.7-4.4,8.6
	c-0.6,3.3-0.3,8.3,4.1,14c3.8,4.8,9.3,7.6,16,8.2c10.7,0.9,23.1-4,33.3-13.1c7.1-6.4,14.5-9.4,20.3-8.2c3,0.6,5.2,2.3,6.4,4.8
	c1.7,3.7,1.8,7.7,0.4,11.4c-2.1,5.2-7.4,9.5-15.2,12.5c-2.1,0.8-3.1,3.1-2.3,5.2c0.6,1.6,2.1,2.6,3.7,2.6c0.5,0,1-0.1,1.4-0.3
	c12.6-4.8,17.7-11.9,19.8-17c2.3-5.8,2.1-12.1-0.5-17.8C103.1,146.8,98.7,143.4,93.3,142.3L93.3,142.3z"/>
<path class="st0" d="M84.6,187.1c-1.9,0-3.5-1.2-4.2-2.9c-0.9-2.3,0.3-4.9,2.6-5.8c7.7-2.9,12.9-7.2,15-12.3c1.4-3.5,1.3-7.5-0.3-11
	c-1.1-2.4-3.3-4-6-4.6c-5.6-1.1-12.9,1.8-19.8,8.1c-10.2,9.2-22.8,14.2-33.7,13.2c-6.9-0.6-12.5-3.5-16.4-8.4
	c-4.6-5.8-4.8-11-4.2-14.4c0.7-4,2.8-7.1,4.5-8.9s4.5-2,6.4-0.3c1.8,1.7,2,4.5,0.3,6.4c-3.2,3.5-3.1,7.5,0.2,11.7
	c2.9,3.6,7,4.7,10,5c8.3,0.7,18.6-3.5,26.9-10.9c4.7-4.2,9.5-7.2,14.4-9c4.6-1.7,9.2-2.1,13.3-1.3c5.6,1.1,10.1,4.6,12.4,9.6
	c2.7,5.8,2.9,12.3,0.5,18.2c-2.1,5.2-7.3,12.4-20.1,17.3C85.7,187,85.1,187.1,84.6,187.1L84.6,187.1z M89.1,149.4
	c0.9,0,1.8,0.1,2.7,0.3c3.1,0.6,5.5,2.4,6.8,5.1c1.8,3.8,1.9,8,0.4,11.8c-2.2,5.3-7.5,9.8-15.5,12.8c-1.8,0.7-2.7,2.7-2,4.5
	c0.5,1.3,1.8,2.3,3.3,2.3c0.4,0,0.8-0.1,1.2-0.2c12.5-4.7,17.5-11.7,19.5-16.7c2.3-5.6,2.1-11.8-0.5-17.4c-2.2-4.7-6.4-7.9-11.7-9
	c-3.9-0.8-8.3-0.4-12.8,1.2c-4.7,1.7-9.4,4.6-14,8.8c-8.5,7.7-19.1,12-27.6,11.2c-3.2-0.3-7.7-1.4-10.7-5.4c-3.7-4.7-3.7-9-0.1-13
	c1.3-1.4,1.2-3.6-0.2-4.9s-3.6-1.2-4.9,0.2c-1.6,1.7-3.6,4.6-4.2,8.4c-0.5,3.2-0.3,8.1,4,13.6c3.7,4.7,9.1,7.4,15.6,8
	c10.6,0.9,22.9-3.9,32.9-13C77.2,152.4,83.6,149.4,89.1,149.4L89.1,149.4z M52.2,149.3c-0.5,0-0.9,0-1.4-0.1c-3.8-0.4-7-2.2-9.1-5.2
	l-13.6-19.3c-2.1-3-2.7-6.6-1.8-10.3c0.9-3.4,3-6.4,6-8.6l54.5-43.4c0-2.7,0.3-5.4,0.8-8.1c2.3-13.1,9.6-24.6,20.4-32.2
	c8.4-5.9,18.3-9.1,28.6-9.1c16.2,0,31.5,7.9,40.8,21.2c7.7,10.9,10.6,24.1,8.3,37.2s-9.6,24.5-20.4,32.2c-8.4,5.9-18.3,9.1-28.6,9.1
	c-5.6,0-11.2-0.9-16.5-2.8l-59.3,36.5C58.3,148.3,55.3,149.3,52.2,149.3z M136.6,14.1c-10.1,0-19.8,3.1-28,8.9
	c-10.7,7.5-17.8,18.7-20,31.6c-0.5,2.7-0.7,5.4-0.7,8.2V63L33,106.7c-2.8,2-4.8,4.9-5.6,8c-0.9,3.4-0.3,6.8,1.6,9.5l13.6,19.3
	c1.9,2.7,4.9,4.4,8.4,4.7c3.3,0.3,6.6-0.6,9.4-2.5l59.8-36.8l0.2,0.1c5.3,1.9,10.8,2.8,16.4,2.8c10.1,0,19.8-3.1,28-8.9
	c10.7-7.5,17.8-18.7,20-31.6c2.2-12.8-0.6-25.8-8.1-36.5C167.5,21.9,152.5,14.1,136.6,14.1L136.6,14.1z M52.2,141.3h-0.6
	c-0.8-0.1-2.4-0.4-3.3-1.8l-13.6-19.3c-1-1.4-0.8-2.9-0.6-3.7c0.4-1.6,1.5-3.1,2.9-4.1c0.1,0,0.1-0.1,0.2-0.1l51.3-40.8l0.2,0.8
	c1.3,6.8,4,13.1,8,18.9c4,5.7,9.1,10.4,15,13.9l0.7,0.4l-55.9,34.4c-0.1,0-0.1,0.1-0.2,0.1C55.1,140.8,53.6,141.3,52.2,141.3
	L52.2,141.3z M87.9,73.2l-50,39.8l-0.2,0.2c-1.3,0.9-2.2,2.2-2.5,3.5c-0.2,0.6-0.3,1.9,0.4,2.9l13.6,19.3c0.7,1,1.9,1.3,2.6,1.4
	c1.4,0.1,2.9-0.3,4.2-1.2c0.1-0.1,0.2-0.1,0.2-0.2l54.5-33.5c-5.8-3.6-10.7-8.2-14.7-13.8C91.9,86,89.2,79.8,87.9,73.2z
	 M136.7,104.8c-13.6,0-26.4-6.7-34.3-17.8c-11.2-16-9.8-38.1,3.5-52.4l1.1-1.2l-0.2,1.6c-0.7,4.7-0.6,9.6,0.4,14.8
	c0.1,0.8,0.9,1.4,1.7,1.2c0.8-0.1,1.4-0.9,1.2-1.7c-1.2-6.9-0.9-13.3,0.8-19.2v-0.2l0.1-0.1c0.5-0.4,1-0.8,1.5-1.1
	c7.1-5,15.4-7.6,24-7.6c13.6,0,26.5,6.7,34.3,17.8c6.4,9.1,8.9,20.2,7,31.3l-0.5-0.1l0.5,0.1c-1.9,11-8,20.6-17.2,27
	c-0.5,0.4-1,0.7-1.6,1l-0.1,0.1h-0.2C144,97.6,127.9,86.4,118.1,70c-0.2-0.3-0.5-0.6-0.9-0.7c-0.4-0.1-0.8,0-1.1,0.2
	c-0.7,0.4-0.9,1.3-0.5,2.1c5.1,8.5,11.8,15.8,19.4,21.1c5.8,4,11.9,6.7,18,8l1.6,0.3l-1.5,0.6C147.8,103.7,142.4,104.8,136.7,104.8z
	 M105.6,36.5c-12,14-13,34.8-2.3,50c7.6,10.9,20.1,17.4,33.5,17.4c5,0,9.8-0.9,14.4-2.6c-5.7-1.4-11.4-4-16.8-7.8
	c-7.7-5.4-14.5-12.8-19.7-21.4c-0.7-1.2-0.3-2.7,0.9-3.4c0.6-0.3,1.2-0.4,1.9-0.3c0.6,0.2,1.2,0.6,1.5,1.1
	c9.7,16.1,25.3,27,39.9,27.9c0.5-0.3,0.9-0.6,1.4-0.9c8.9-6.3,14.9-15.6,16.8-26.4c1.9-10.7-0.5-21.6-6.8-30.5
	c-7.6-10.9-20.1-17.4-33.5-17.4c-8.4,0-16.5,2.6-23.4,7.4c-0.5,0.3-0.9,0.7-1.4,1c-1.7,5.6-1.9,11.9-0.8,18.5c0.2,1.4-0.7,2.7-2,2.9
	c-1.4,0.2-2.7-0.7-2.9-2C105.3,45.3,105.1,40.8,105.6,36.5L105.6,36.5z M111.5,64c-1.4,0-2.6-1.2-2.6-2.6c0-1.4,1.2-2.6,2.6-2.6
	c1.4,0,2.6,1.2,2.6,2.6C114.1,62.8,112.9,64,111.5,64z M111.5,59.8c-0.9,0-1.6,0.7-1.6,1.6c0,0.9,0.7,1.6,1.6,1.6s1.6-0.7,1.6-1.6
	C113.1,60.5,112.4,59.8,111.5,59.8z"/>
</svg>
