<?xml version="1.0" encoding="utf-8"?>
<!-- Generator: Adobe Illustrator 19.0.0, SVG Export Plug-In . SVG Version: 6.00 Build 0)  -->
<svg version="1.1" id="图层_1" xmlns="http://www.w3.org/2000/svg" xmlns:xlink="http://www.w3.org/1999/xlink" x="0px" y="0px"
	 viewBox="0 0 200 200" style="enable-background:new 0 0 200 200;" xml:space="preserve">
<style type="text/css">
	.st0{fill:#25C0B1;}
</style>
<path class="st0" d="M54.5,189.4c-15.8,0-28.6-12.8-28.6-28.6c0-14.6,23.3-51.6,25.9-55.8l2.7-4.2l2.7,4.2
	c2.7,4.2,25.9,41.2,25.9,55.8C83.1,176.5,70.2,189.4,54.5,189.4z M54.5,115.3c-7.3,12.3-20.3,36-20.3,44.9
	c0,11.5,9.1,20.8,20.3,20.8s20.3-9.3,20.3-20.8C74.7,151.3,61.8,127.6,54.5,115.3z M45.8,173c-0.7-0.8-1.3-1.7-1.8-2.6
	c-1.8-3.2-2.8-6.8-2.8-10.5c0-3.3,1.5-8.2,4.6-14.9l4.2,2c-3.5,7.5-4.2,11.2-4.2,13c0,2.9,0.8,5.7,2.2,8.1c0.4,0.7,0.9,1.4,1.4,2
	l0.4,0.9l-2.3,0.6L45.8,173z"/>
<path class="st0" d="M194.5,52.7c0,0-13.9-13.2-28.5-27.8c-2.2-3.7-11.7-8-15.4-8h-28.5l-1.5,2.2c0,0-5.8,21.9-21.2,21.9
	c-15.3,0-21.1-22-21.1-22l-0.7-2.9H49.7c-2.9,0-13.2,4.4-15.4,7.3C24.9,32.9,5.9,51.9,5.9,51.9c-6.6,6.6-6.6,16.8,0,23.4l21.9,21.9
	c5.1,5.1,15,5.2,15,5.2s9-1.2,10.6-2.7c1.1-3.7,0-15.6,0-15.6l-6.2,6.2c-3.7,3.7-8.4,3.3-12-0.4l-21.8-22c-3.7-3.7-2.5-6.4,1.2-10
	c0,0,17.2-17.3,26.7-26c1.5-1.5,7-4.6,8.5-4.6h21.9c2.9,6.6,10.2,22.6,27.8,22.6s25.6-15.3,27.8-22.6h21.9c2.2,0,8.8,3.4,10.2,4.9
	c14.6,13.9,27.1,27.2,27.1,27.2c3.7,3.7,3.7,5.9,0,9.6L166,89.4c-1.5,1.5-3.3,3.6-5.5,3.6c-1.2,0-2.9-1.2-4.6-2.4l-9.7-6.4v74.6
	c0,5.1-4.4,8.8-8.8,8.8H88.3c0,0-0.3,3.2-0.8,4c-1,2.2-1.9,5.7-1.9,5.7h51.9c8.8,0,17.8-9.8,18.6-17.8l-0.5-56.5
	c2.2,0.7,3.1,0.7,5.3,0.7c4.4,0,8.8-2.8,11.7-5.7l21.9-21.9C201.1,69.5,201.1,59.3,194.5,52.7z"/>
</svg>
