<?xml version="1.0" encoding="utf-8"?>
<!-- Generator: Adobe Illustrator 19.0.0, SVG Export Plug-In . SVG Version: 6.00 Build 0)  -->
<svg version="1.1" id="图层_1" xmlns="http://www.w3.org/2000/svg" xmlns:xlink="http://www.w3.org/1999/xlink" x="0px" y="0px"
	 viewBox="0 0 200 200" style="enable-background:new 0 0 200 200;" xml:space="preserve">
<style type="text/css">
	.st0{clip-path:url(#SVGID_2_);}
	.st1{enable-background:new    ;}
</style>
				<defs>
					<rect id="SVGID_1_" x="13" width="176" height="200.2"/>
				</defs>
				<clipPath id="SVGID_2_">
					<use xlink:href="#SVGID_1_"  style="overflow:visible;"/>
				</clipPath>
					<path d="M101,0.1c-32.1,0-58.2,26.1-58.2,58.2c0,23.3,13.7,43.3,33.5,52.6C39.7,121.7,13,155.4,13,195.4c0,2.5,2.1,4.6,4.6,4.6
						s4.6-2.1,4.6-4.6c0-43.5,35.4-78.8,78.8-78.8c32.1,0,58.2-26.1,58.2-58.2C159.2,26.2,133.1,0.1,101,0.1L101,0.1z M101,107.3
						c-27,0-49-22-49-49s22-49,49-49s49,22,49,49S128,107.3,101,107.3L101,107.3z"/>
			<path d="M154.4,125.4c-2-1.5-4.9-1.2-6.4,0.9c-1.5,2-1.2,4.9,0.9,6.4c19.7,15.1,31,37.9,31,62.7c0,2.5,2.1,4.6,4.6,4.6
				s4.6-2.1,4.6-4.6C189,167.7,176.4,142.2,154.4,125.4L154.4,125.4z"/>
		<path d="M109.5,199h-7.9v-50.4c-1.9,1.8-4.4,3.6-7.5,5.4c-3.1,1.8-5.9,3.2-8.3,4.1v-7.6c4.4-2.1,8.3-4.6,11.6-7.6
			c3.3-3,5.7-5.8,7-8.6h5.1V199z"/>

</svg>
