<?xml version="1.0" encoding="utf-8"?>
<!-- Generator: Adobe Illustrator 19.0.0, SVG Export Plug-In . SVG Version: 6.00 Build 0)  -->
<svg version="1.1" id="图层_1" xmlns="http://www.w3.org/2000/svg" xmlns:xlink="http://www.w3.org/1999/xlink" x="0px" y="0px"
	 viewBox="0 0 200 200" style="enable-background:new 0 0 200 200;" xml:space="preserve">
<style type="text/css">
	.st0{clip-path:url(#SVGID_2_);}
</style>

						<defs>
							<rect id="SVGID_1_" x="12" width="176" height="200.2"/>
						</defs>
						<clipPath id="SVGID_2_">
							<use xlink:href="#SVGID_1_"  style="overflow:visible;"/>
						</clipPath>

									<path d="M100,0.1c-32.1,0-58.2,26.1-58.2,58.2c0,23.3,13.7,43.3,33.5,52.6C38.7,121.7,12,155.4,12,195.4
										c0,2.5,2.1,4.6,4.6,4.6s4.6-2.1,4.6-4.6c0-43.5,35.4-78.8,78.8-78.8c32.1,0,58.2-26.1,58.2-58.2
										C158.2,26.2,132.1,0.1,100,0.1L100,0.1z M100,107.3c-27,0-49-22-49-49s22-49,49-49s49,22,49,49S127,107.3,100,107.3
										L100,107.3z"/>

					<path d="M153.4,125.4c-2-1.5-4.9-1.2-6.4,0.9c-1.5,2-1.2,4.9,0.9,6.4c19.7,15.1,31,37.9,31,62.7c0,2.5,2.1,4.6,4.6,4.6
						s4.6-2.1,4.6-4.6C188,167.7,175.4,142.2,153.4,125.4L153.4,125.4z"/>

		<path d="M78.8,181l7.9-1.1c0.9,4.5,2.5,7.7,4.6,9.7c2.2,2,4.8,3,8,3c3.7,0,6.9-1.3,9.4-3.9c2.6-2.6,3.8-5.8,3.8-9.6
			c0-3.6-1.2-6.6-3.6-9c-2.4-2.4-5.4-3.5-9.1-3.5c-1.5,0-3.4,0.3-5.6,0.9l0.9-6.9c0.5,0.1,1,0.1,1.3,0.1c3.4,0,6.4-0.9,9.1-2.6
			s4-4.5,4-8.1c0-2.9-1-5.3-2.9-7.2s-4.5-2.9-7.6-2.9c-3.1,0-5.6,1-7.7,2.9s-3.4,4.8-4,8.7l-7.9-1.4c1-5.3,3.2-9.4,6.6-12.3
			c3.4-2.9,7.7-4.4,12.8-4.4c3.5,0,6.8,0.8,9.7,2.3c3,1.5,5.2,3.6,6.8,6.2s2.4,5.4,2.4,8.3c0,2.8-0.7,5.3-2.2,7.6s-3.7,4.1-6.6,5.4
			c3.8,0.9,6.8,2.7,8.9,5.5s3.2,6.2,3.2,10.4c0,5.6-2.1,10.4-6.2,14.3s-9.3,5.9-15.6,5.9c-5.7,0-10.4-1.7-14.1-5.1
			C81.4,190.7,79.3,186.4,78.8,181z"/>

</svg>
