<?xml version="1.0" encoding="utf-8"?>
<!-- Generator: Adobe Illustrator 19.0.0, SVG Export Plug-In . SVG Version: 6.00 Build 0)  -->
<svg version="1.1" id="图层_1" xmlns="http://www.w3.org/2000/svg" xmlns:xlink="http://www.w3.org/1999/xlink" x="0px" y="0px"
	 viewBox="0 0 200 200" style="enable-background:new 0 0 200 200;" xml:space="preserve">
<style type="text/css">
	.st0{clip-path:url(#SVGID_2_);}
</style>

					<defs>
						<rect id="SVGID_1_" x="14" width="176" height="200.2"/>
					</defs>
					<clipPath id="SVGID_2_">
						<use xlink:href="#SVGID_1_"  style="overflow:visible;"/>
					</clipPath>

							<path d="M102,0.1c-32.1,0-58.2,26.1-58.2,58.2c0,23.3,13.7,43.3,33.5,52.6C40.7,121.7,14,155.4,14,195.4
								c0,2.5,2.1,4.6,4.6,4.6s4.6-2.1,4.6-4.6c0-43.5,35.4-78.8,78.8-78.8c32.1,0,58.2-26.1,58.2-58.2
								C160.2,26.2,134.1,0.1,102,0.1L102,0.1z M102,107.3c-27,0-49-22-49-49s22-49,49-49s49,22,49,49S129,107.3,102,107.3
								L102,107.3z"/>

				<path d="M155.4,125.4c-2-1.5-4.9-1.2-6.4,0.9c-1.5,2-1.2,4.9,0.9,6.4c19.7,15.1,31,37.9,31,62.7c0,2.5,2.1,4.6,4.6,4.6
					s4.6-2.1,4.6-4.6C190,167.7,177.4,142.2,155.4,125.4L155.4,125.4z"/>
		<path d="M122.3,191.4v7.6H79.7c-0.1-1.9,0.2-3.7,0.9-5.5c1.1-2.9,2.8-5.8,5.2-8.6c2.4-2.8,5.8-6.1,10.3-9.8
			c7-5.7,11.7-10.3,14.2-13.6s3.7-6.5,3.7-9.5c0-3.1-1.1-5.8-3.4-7.9c-2.2-2.2-5.2-3.2-8.8-3.2c-3.8,0-6.9,1.1-9.1,3.4
			s-3.4,5.4-3.5,9.5l-8.1-0.8c0.6-6.1,2.7-10.7,6.3-13.9s8.5-4.8,14.6-4.8c6.2,0,11.1,1.7,14.7,5.1s5.4,7.7,5.4,12.7
			c0,2.6-0.5,5.1-1.6,7.6c-1.1,2.5-2.8,5.1-5.3,7.9c-2.4,2.8-6.5,6.5-12.2,11.3c-4.7,4-7.8,6.7-9.1,8.1s-2.5,2.8-3.3,4.3H122.3z"/>

</svg>
