<?xml version="1.0" encoding="utf-8"?>
<!-- Generator: Adobe Illustrator 19.0.0, SVG Export Plug-In . SVG Version: 6.00 Build 0)  -->
<svg version="1.1" id="图层_1" xmlns="http://www.w3.org/2000/svg" xmlns:xlink="http://www.w3.org/1999/xlink" x="0px" y="0px"
	 viewBox="0 0 200 200" style="enable-background:new 0 0 200 200;" xml:space="preserve">
<style type="text/css">
	.st0{fill:#25C0B1;}
</style>
<path class="st0" d="M105,188.3c-48.3,0-87.5-39.2-87.5-87.5S56.7,13.3,105,13.3s87.4,39.2,87.4,87.5S153.3,188.3,105,188.3z
	 M105,16.1c-46.7,0-84.7,38-84.7,84.7s38,84.7,84.7,84.7s84.7-38,84.7-84.7S151.7,16.1,105,16.1z"/>
<path class="st0" d="M147.9,138h-2.1V94c0-4.1-2.2-9.6-6.3-9.6h-14.6V66.8c0-4.1-2.6-9.2-6.7-9.2l-47,0c-4.1,0-8.9,5.1-8.9,9.2V138
	l-1,0c0,0-0.1,0-0.1,0H61v0.1c-1.1,0.3-1.6,1.6-1.6,2.8c0,1.4,0.6,3,2,3h74.1h2.5h9.9c1.4,0,2.6-1.6,2.6-3S149.3,138,147.9,138z
	 M62.5,138c0.1-0.3,0.2-0.4,0.4,0L62.5,138z M119,89.1v2.5V138H68.3V69.3c0-2.7,2.7-5.7,5.4-5.7h42c2.7,0,3.2,3,3.2,5.7V89.1z
	 M139.9,138h-15V90.4h10.6c2.7,0,4.3,2.9,4.3,5.6h0.1V138z M82.7,75.5c-2.5,0-4.5,2-4.5,4.5c0,2.5,2,4.5,4.5,4.5
	c2.5,0,4.5-2,4.5-4.5C87.2,77.5,85.2,75.5,82.7,75.5z M94.6,75.5c-2.5,0-4.5,2-4.5,4.5c0,2.5,2,4.5,4.5,4.5c2.5,0,4.5-2,4.5-4.5
	C99.2,77.5,97.1,75.5,94.6,75.5z M106.6,75.5c-2.5,0-4.5,2-4.5,4.5c0,2.5,2,4.5,4.5,4.5c2.5,0,4.5-2,4.5-4.5
	C111.1,77.5,109,75.5,106.6,75.5z M106.6,90.4c-2.5,0-4.5,2-4.5,4.5c0,2.5,2,4.5,4.5,4.5c2.5,0,4.5-2,4.5-4.5
	C111.1,92.4,109,90.4,106.6,90.4z M94.6,90.4c-2.5,0-4.5,2-4.5,4.5c0,2.5,2,4.5,4.5,4.5c2.5,0,4.5-2,4.5-4.5
	C99.2,92.4,97.1,90.4,94.6,90.4z M82.7,90.4c-2.5,0-4.5,2-4.5,4.5c0,2.5,2,4.5,4.5,4.5c2.5,0,4.5-2,4.5-4.5
	C87.2,92.4,85.2,90.4,82.7,90.4z M82.7,105.2c-2.5,0-4.5,2-4.5,4.5s2,4.5,4.5,4.5c2.5,0,4.5-2,4.5-4.5S85.2,105.2,82.7,105.2z
	 M94.6,105.2c-2.5,0-4.5,2-4.5,4.5s2,4.5,4.5,4.5c2.5,0,4.5-2,4.5-4.5S97.1,105.2,94.6,105.2z M106.6,105.2c-2.5,0-4.5,2-4.5,4.5
	s2,4.5,4.5,4.5c2.5,0,4.5-2,4.5-4.5S109,105.2,106.6,105.2z"/>
</svg>
