<?xml version="1.0" encoding="utf-8"?>
<!-- Generator: Adobe Illustrator 19.0.0, SVG Export Plug-In . SVG Version: 6.00 Build 0)  -->
<svg version="1.1" id="图层_1" xmlns="http://www.w3.org/2000/svg" xmlns:xlink="http://www.w3.org/1999/xlink" x="0px" y="0px"
	 viewBox="15 0 229.3 200" style="enable-background:new 15 0 229.3 200;" xml:space="preserve">
<style type="text/css">
	.st0{fill:#7E7B7B;}
</style>
<path class="st0" d="M133.5,0C96.8,0,67,29.8,67,66.5c0,46.5,66.5,133,66.5,133s66.5-81.2,66.5-133C200,29.8,170.2,0,133.5,0z
	 M75.3,66.5c0-32.1,26-58.2,58.2-58.2s58,26,58.2,58.2c0.2,39.8-58.2,120.5-58.2,120.5S75.3,106,75.3,66.5z"/>
<path class="st0" d="M133.5,33.2c-13.8,0-24.9,11.2-24.9,24.9S119.8,83,133.5,83c13.8,0,24.9-11.2,24.9-24.9S147.3,33.2,133.5,33.2z
	 M133.5,74.8c-9.2,0-16.6-7.4-16.6-16.6s7.4-16.6,16.6-16.6s16.6,7.4,16.6,16.6S142.7,74.8,133.5,74.8z"/>
</svg>
