<?xml version="1.0" standalone="no"?><!DOCTYPE svg PUBLIC "-//W3C//DTD SVG 1.1//EN"
  "http://www.w3.org/Graphics/SVG/1.1/DTD/svg11.dtd">
<svg t="1495683026730" class="icon" style="" viewBox="0 0 1024 1024" version="1.1" xmlns="http://www.w3.org/2000/svg"
     p-id="5011" xmlns:xlink="http://www.w3.org/1999/xlink" width="200" height="200">
  <defs>
    <style type="text/css"></style>
  </defs>
  <path
    d="M362.519524 418.47186c-10.000771 0-18.652825 8.513908-18.652825 19.013029l0 297.728892c0 10.712993 8.352225 19.013029 18.652825 19.013029 10.000771 0 18.652825-8.513908 18.652825-19.013029L381.172349 437.484889C381.172349 426.771897 372.821147 418.47186 362.519524 418.47186zM660.9678 418.47186c-10.000771 0-18.652825 8.513908-18.652825 19.013029l0 297.728892c0 10.712993 8.352225 19.013029 18.652825 19.013029 10.000771 0 18.652825-8.513908 18.652825-19.013029L679.620625 437.484889C679.621649 426.771897 671.269423 418.47186 660.9678 418.47186zM698.257078 163.765831c-0.734734-55.549154-45.641503-99.701746-100.939947-99.701746L426.168146 64.064085c-55.490825 0-100.200096 44.512796-100.936877 99.701746l-0.017396 0 0 1.382487 0 26.768667 37.290301 0 0.01535-29.621645c0-33.647331 27.012214-60.925604 60.394509-60.925604l177.657212 0c33.357735 0 60.396555 27.220968 60.396555 60.925604l0.01535 29.625738 37.290301 0L698.257078 163.765831zM821.060985 269.24721l-122.786511 0 0.001023-37.305651-37.308721 0 0.001023 37.305651L362.519524 269.24721l0.002047-37.305651-37.308721 0 0 37.305651L202.425316 269.24721c-55.751768 0-101.048417 45.304835-101.048417 101.193727l0 431.815773c0 56.06183 45.191248 101.145631 100.95939 101.193727 14.355963 33.066093 47.267537 55.959499 85.570911 55.959499 38.510082 0 71.248717-23.020296 85.557608-55.959499l276.544407 0c14.355963 33.066093 47.267537 55.959499 85.570911 55.959499 38.510082 0 71.248717-23.020296 85.557608-55.959499 55.717999-0.040932 100.972693-45.330418 100.972693-101.193727L922.110425 370.440937C922.110425 314.350454 876.869035 269.24721 821.060985 269.24721zM884.804774 805.194622c0 33.660634-27.439956 60.950164-60.426231 60.950164l-32.838919 0c-0.004093 30.905894-24.839735 55.959499-55.959499 55.959499-30.902824 0-55.95643-25.15389-55.959499-55.959499L343.866698 866.144786c-0.004093 30.905894-24.841781 55.959499-55.959499 55.959499-30.902824 0-55.95643-25.15389-55.959499-55.959499l-32.838919 0c-33.374108 0-60.426231-26.988678-60.426231-60.950164l0-437.688527c0-33.662681 27.439956-60.95221 60.426231-60.95221l625.26874 0c33.371038 0 60.426231 26.991748 60.426231 60.95221L884.803751 805.194622z"
    p-id="5012"></path>
</svg>
