<?xml version="1.0" standalone="no"?><!DOCTYPE svg PUBLIC "-//W3C//DTD SVG 1.1//EN" "http://www.w3.org/Graphics/SVG/1.1/DTD/svg11.dtd"><svg t="1502179925448" class="icon" style="" viewBox="0 0 1024 1024" version="1.1" xmlns="http://www.w3.org/2000/svg" p-id="5955" xmlns:xlink="http://www.w3.org/1999/xlink" width="200" height="200"><defs><style type="text/css"></style></defs><path d="M960.6656 55.04c-7.5264-4.6592-16.9472-5.0688-24.8832-1.1264l-295.7312 147.8656-295.7312-147.8656c-7.2192-3.584-15.6672-3.584-22.8864 0l-307.2 153.6c-8.6528 4.352-14.1312 13.2096-14.1312 22.8864l0 768c0 8.8576 4.608 17.1008 12.1344 21.76 4.096 2.56 8.7552 3.84 13.4656 3.84 3.8912 0 7.8336-0.9216 11.4688-2.7136l295.7312-147.8656 295.7312 147.8656c7.2192 3.584 15.7184 3.584 22.8864 0l307.2-153.6c8.6528-4.352 14.1312-13.2096 14.1312-22.8864l0-768c0-8.8576-4.608-17.1008-12.1344-21.76zM307.2 828.9792l-256 128 0-710.7584 256-128 0 710.7584zM358.4 118.2208l256 128 0 710.7584-256-128 0-710.7584zM921.6 828.9792l-256 128 0-710.7584 256-128 0 710.7584z" p-id="5956" fill="#25c0b1"></path></svg>