<?xml version="1.0" encoding="utf-8"?>
<!-- Generator: Adobe Illustrator 19.0.0, SVG Export Plug-In . SVG Version: 6.00 Build 0)  -->
<svg version="1.1" id="图层_1" xmlns="http://www.w3.org/2000/svg" xmlns:xlink="http://www.w3.org/1999/xlink" x="0px" y="0px"
	 viewBox="0 0 200 200" style="enable-background:new 0 0 200 200;" xml:space="preserve">
<style type="text/css">
	.st0{fill:#25C0B1;}
</style>
<path class="st0" d="M90.3,112.6h63.3c4.4,0,8.3-2.6,10-6.7l24.1-58.5H57.8l18.1,54.8C78,108.4,83.8,112.6,90.3,112.6z M174.8,56
	l-19.2,46.6c-0.3,0.8-1.1,1.3-2,1.3H90.3c-2.8,0-5.3-1.8-6.2-4.5L69.8,56L174.8,56L174.8,56z"/>
<path class="st0" d="M57.2,117.2c0-4,1.5-6.9,4.5-8.7l3-1.8L36.6,27.8H12v8.7h18.5l23.8,66.7c-3.7,3.4-5.7,8.2-5.7,13.9
	c0,10.7,8.7,19.4,19.4,19.4h109.6v-8.7H67.9C62,127.9,57.2,123.1,57.2,117.2z M69.8,139.5c-9.1,0-16.6,7.4-16.6,16.6
	s7.4,16.6,16.6,16.6s16.6-7.4,16.6-16.6C86.4,147,79,139.5,69.8,139.5z M69.8,164c-4.4,0-7.9-3.5-7.9-7.9c0-4.4,3.5-7.9,7.9-7.9
	c4.4,0,7.9,3.5,7.9,7.9C77.7,160.4,74.2,164,69.8,164z M154.3,139.5c-9.1,0-16.6,7.4-16.6,16.6s7.4,16.6,16.6,16.6
	s16.6-7.4,16.6-16.6C170.9,147,163.4,139.5,154.3,139.5z M154.3,164c-4.4,0-7.9-3.5-7.9-7.9c0-4.4,3.5-7.9,7.9-7.9
	c4.4,0,7.9,3.5,7.9,7.9C162.2,160.4,158.7,164,154.3,164z"/>
</svg>
