<?xml version="1.0" standalone="no"?><!DOCTYPE svg PUBLIC "-//W3C//DTD SVG 1.1//EN"
  "http://www.w3.org/Graphics/SVG/1.1/DTD/svg11.dtd">
<svg t="1495682943520" class="icon" style="" viewBox="0 0 1024 1024" version="1.1" xmlns="http://www.w3.org/2000/svg"
     p-id="4325" xmlns:xlink="http://www.w3.org/1999/xlink" width="200" height="200">
  <defs>
    <style type="text/css"></style>
  </defs>
  <path
    d="M339.679329 633.746832c-11.30344 0-20.466124-9.162684-20.466124-20.466124V448.625624c0-11.30344 9.162684-20.466124 20.466124-20.466124s20.466124 9.162684 20.466124 20.466124V613.280708c0 11.30344-9.162684 20.466124-20.466124 20.466124zM444.649056 633.746832c-11.30344 0-20.466124-9.162684-20.466124-20.466124V392.388808c0-11.30344 9.163707-20.466124 20.466124-20.466124 11.30344 0 20.466124 9.163707 20.466124 20.466124V613.280708c0 11.30344-9.162684 20.466124-20.466124 20.466124zM549.618782 633.746832c-11.30344 0-20.466124-9.162684-20.466124-20.466124V500.260631c0-11.30344 9.162684-20.466124 20.466124-20.466124s20.466124 9.162684 20.466124 20.466124V613.280708c0 11.30344-9.162684 20.466124-20.466124 20.466124zM588.513628 196.768479c-11.30344 0-20.466124-9.162684-20.466124-20.466124V100.719936c0-11.30344 9.162684-20.466124 20.466124-20.466124s20.466124 9.162684 20.466124 20.466124v75.582419c0 11.30344-9.162684 20.466124-20.466124 20.466124zM654.589532 633.746832c-0.001023 0 0.001023 0 0 0-11.30344 0-20.466124-9.162684-20.466124-20.466124l0.001024-339.595419c0-11.302417 9.163707-20.466124 20.466124-20.466124 0.001023 0-0.001023 0 0 0 11.30344 0 20.466124 9.163707 20.466124 20.466124l-0.001024 339.595419c0 11.302417-9.163707 20.466124-20.466124 20.466124zM503.30906 848.702532c-0.001023 0 0.001023 0 0 0-11.30344 0-20.466124-9.162684-20.466124-20.466124l0.001024-122.69032c0-11.302417 9.163707-20.466124 20.466124-20.466124 0.001023 0-0.001023 0 0 0 11.30344 0 20.466124 9.162684 20.466124 20.466124l-0.001024 122.69032c0 11.302417-9.163707 20.466124-20.466124 20.466124z"
    p-id="4326"></path>
  <path
    d="M302.688857 888.057865a20.400632 20.400632 0 0 1-14.471596-5.993505c-7.993045-7.993045-7.993045-20.952194 0-28.944215l162.045653-162.045654c7.993045-7.993045 20.951171-7.993045 28.943192 0s7.993045 20.952194 0 28.944216L317.160453 882.06436a20.400632 20.400632 0 0 1-14.471596 5.993505zM703.859679 886.011252a20.406772 20.406772 0 0 1-14.472619-5.993504L527.341407 717.971072c-7.992021-7.993045-7.992021-20.952194 0-28.944216 7.993045-7.993045 20.952194-7.993045 28.944215 0l162.045653 162.045653c7.992021 7.993045 7.992021 20.952194 0 28.944216a20.398586 20.398586 0 0 1-14.471596 5.994527z"
    p-id="4327"></path>
  <path
    d="M780.627087 706.800661H236.765425c-36.252669 0-65.745377-29.701462-65.745377-66.210981V232.984309c0-36.508495 29.492708-66.210981 65.745377-66.210981h543.860639c36.252669 0 65.745377 29.701462 65.745376 66.210981v407.605371c0.001023 36.509519-29.492708 66.210981-65.744353 66.210981zM236.765425 207.705576c-13.682627 0-24.813129 11.340279-24.813129 25.278733v407.605371c0 13.938454 11.130502 25.278733 24.813129 25.278733h543.860639c13.681604 0 24.813129-11.340279 24.813128-25.278733V232.984309c0-13.938454-11.131525-25.278733-24.813128-25.278733H236.765425z"
    p-id="4328"></path>
</svg>
