<?xml version="1.0" encoding="utf-8"?>
<!-- Generator: Adobe Illustrator 19.0.0, SVG Export Plug-In . SVG Version: 6.00 Build 0)  -->
<svg version="1.1" id="图层_1" xmlns="http://www.w3.org/2000/svg" xmlns:xlink="http://www.w3.org/1999/xlink" x="0px" y="0px"
	 viewBox="0 0 200 200" style="enable-background:new 0 0 200 200;" xml:space="preserve">
<style type="text/css">
	.st0{fill:#7E7B7B;}
</style>
<path class="st0" d="M98.5,3C44.2,3,0,47.2,0,101.5S44.2,200,98.5,200s98.5-44.2,98.5-98.5S152.8,3,98.5,3z M59.9,116.9H55V84.6
	l-11.2,32.4h-4.6L27.9,84v32.9H23V78.2h7.7l9.1,27.4c0.8,2.5,1.5,4.5,1.8,5.7c0.4-1.4,1.1-3.5,2.1-6.2L53,78.2h6.9V116.9z
	 M97.1,116.9H68.3V78.2h27.9v4.6H73.4v11.8h21.4v4.5H73.4v13.2h23.7V116.9z M134.6,116.9h-5.2L109,86.5v30.4h-4.9V78.2h5.2
	l20.3,30.3V78.2h4.9V116.9z M172.3,109.8c-0.9,2.3-2.5,4.1-4.8,5.6c-2.3,1.4-5.3,2.1-9,2.1c-3.6,0-6.6-0.6-8.9-1.9s-3.9-3.1-4.9-5.4
	c-1-2.4-1.5-5.6-1.5-9.7V78.2h5.1v22.3c0,3.4,0.3,5.8,0.9,7.4c0.6,1.6,1.7,2.8,3.2,3.7c1.5,0.9,3.4,1.3,5.6,1.3c3.8,0,6.4-0.9,8-2.6
	s2.4-5,2.4-9.8V78.2h5.1v22.3C173.6,104.5,173.2,107.6,172.3,109.8z"/>
</svg>
