<?xml version="1.0" encoding="utf-8"?>
<!-- Generator: Adobe Illustrator 19.0.0, SVG Export Plug-In . SVG Version: 6.00 Build 0)  -->
<svg version="1.1" id="图层_1" xmlns="http://www.w3.org/2000/svg" xmlns:xlink="http://www.w3.org/1999/xlink" x="0px" y="0px"
	 viewBox="0 0 200 200" style="enable-background:new 0 0 200 200;" xml:space="preserve">
<style type="text/css">
	.st0{fill:#25C0B1;}
</style>
<path class="st0" d="M188.8,10.4H10.6c-3.6,0-6.5,2.9-6.5,6.5v116.6c0,3.6,2.9,6.5,6.5,6.5h27.2c2,0,3.8-0.9,5-2.4l36.2-44.9
	l16.5,13.6c2.6,2.2,6.5,1.9,8.9-0.6L136.6,71c3.1,1.9,6.8,3,10.7,3c11.4,0,20.7-9.3,20.7-20.7s-9.3-20.7-20.7-20.7
	c-11.4,0-20.7,9.3-20.7,20.7c0,2.8,0.5,5.4,1.5,7.8l-29,31.3L82.3,78.5c-1.3-1.1-3-1.6-4.8-1.5s-3.3,1-4.4,2.4L34.7,127H17.1V23.4
	h165.2V127H93.1c-3.6,0-6.5,2.9-6.5,6.5v31.7h-38c-3.6,0-6.5,2.9-6.5,6.5s2.9,6.5,6.5,6.5h87c3.6,0,6.5-2.9,6.5-6.5
	s-2.9-6.5-6.5-6.5H99.5V140h89.3c3.6,0,6.5-2.9,6.5-6.5V16.9C195.3,13.3,192.4,10.4,188.8,10.4L188.8,10.4z M147.4,45.5
	c4.3,0,7.8,3.5,7.8,7.8s-3.5,7.8-7.8,7.8c-4.3,0-7.8-3.5-7.8-7.8S143.1,45.5,147.4,45.5z"/>
</svg>
