<?xml version="1.0" encoding="utf-8"?>
<!-- Generator: Adobe Illustrator 19.0.0, SVG Export Plug-In . SVG Version: 6.00 Build 0)  -->
<svg version="1.1" id="图层_1" xmlns="http://www.w3.org/2000/svg" xmlns:xlink="http://www.w3.org/1999/xlink" x="0px" y="0px"
	 viewBox="0 0 200 200" style="enable-background:new 0 0 200 200;" xml:space="preserve">
<style type="text/css">
	.st0{fill:#25C0B1;}
</style>
<path class="st0" d="M102.7,187.4c-48.3,0-87.5-39.2-87.5-87.5s39.2-87.5,87.5-87.5s87.4,39.2,87.4,87.5S151,187.4,102.7,187.4z
	 M102.7,15.2C56,15.2,18,53.2,18,99.9s38,84.7,84.7,84.7s84.7-38,84.7-84.7S149.4,15.2,102.7,15.2z"/>
<path class="st0" d="M95.4,66.2c0-3.8,0.2-7.1,1-10.4c0.3-1.3,0.8-2.6,1.2-3.8c-1.8,0.2-3.7,0.5-5.5,0.9c-0.2,0-0.4,0.1-0.7,0.1V53
	c-21.8,5.1-37.1,24.5-37.1,46.8c0,26.5,21.4,48,48,48.1l0,0c23.3,0,42.6-16.6,47-38.6l0,0c0.4-2.1,0.9-4.1,1.1-6.2
	c-4.8,2.1-10,3-15.2,3C113.1,106,95.4,88.2,95.4,66.2z M102.3,142.3c-23.5,0-42.5-19-42.5-42.5C59.7,81,72.1,64.3,90.2,59
	C90,61.3,90,63.6,90,66.1c0,25,20.2,45.3,45.3,45.3c2.7,0,5.4-0.2,8.2-0.8C138.5,128.9,122,142.3,102.3,142.3z M121.4,74.3l3-8.8
	l5.1-1.4l-5.1-2.2l-3-8.2l-3,8.2l-5.1,2.2l5.1,1.4L121.4,74.3L121.4,74.3z M144.8,95.7l2.3-6.7l3.9-1.1l-3.9-1.6l-2.3-6.3l-2.3,6.3
	l-3.9,1.6l3.9,1.1L144.8,95.7z"/>
</svg>
