<?xml version="1.0" standalone="no"?><!DOCTYPE svg PUBLIC "-//W3C//DTD SVG 1.1//EN"
  "http://www.w3.org/Graphics/SVG/1.1/DTD/svg11.dtd">
<svg t="1497259628960" class="icon" style="" viewBox="0 0 1024 1024" version="1.1" xmlns="http://www.w3.org/2000/svg"
     p-id="26986" xmlns:xlink="http://www.w3.org/1999/xlink" width="200" height="200">
  <defs>
    <style type="text/css"></style>
  </defs>
  <path
    d="M929.28 163.84c56.832 0 94.72 41.984 87.552 96.256-2.048 12.8-7.168 24.576-14.848 34.816C864.768 466.944 727.04 638.976 588.8 810.496c-54.784 68.096-99.328 66.56-155.648-3.072-87.04-107.52-173.056-215.552-259.584-323.072-47.616-59.392-94.72-119.808-143.36-178.176-24.064-29.184-30.72-59.392-14.848-93.184 16.896-34.816 46.08-48.64 84.48-48.64 138.24 0.512 276.48 0 414.72 0s276.48-0.512 414.72-0.512z"
    p-id="26987"></path>
</svg>
