<?xml version="1.0" encoding="utf-8"?>
<!-- Generator: Adobe Illustrator 19.0.0, SVG Export Plug-In . SVG Version: 6.00 Build 0)  -->
<svg version="1.1" id="图层_1" xmlns="http://www.w3.org/2000/svg" xmlns:xlink="http://www.w3.org/1999/xlink" x="0px" y="0px"
	 viewBox="0 0 200 200" style="enable-background:new 0 0 200 200;" xml:space="preserve">
<path d="M189.6,7H10.4c-3.1,0-6.1,3-6.1,6.1v167.1c0,1.4,2.7,4.5,3.5,5.5c3.2,4.1,7.9,6.6,13.1,7.2c0.7,0.1,1.5,0.1,2.2,0.1
	c4.4,0,8.7-1.5,12.1-4.3c1.4-1.1,3.1-1.7,4.9-1.7c0.3,0,0.6,0,1,0.1c2.1,0.3,4,1.3,5.4,3c1,1.2,2.4,2,3.8,2.1c0.2,0,0.4,0,0.6,0
	c0.5,0,1.1-0.1,1.6-0.2c2.8-0.5,6.2-3.1,6.4-5.8c0.1-3.5,0-167.1,0-167.1h82v167.1c0,2.7,3.5,5.2,6.2,5.8c0.5,0.2,1,0.2,1.6,0.2
	c0.2,0,0.5,0,0.7,0c1.5-0.2,2.9-0.9,3.8-2.1c1.4-1.7,3.3-2.7,5.4-3c0.3,0,0.6-0.1,0.9-0.1c1.8,0,3.5,0.6,5,1.7
	c3.4,2.7,7.8,4.3,12.2,4.3c0.7,0,1.5,0,2.2-0.1c5.2-0.6,9.8-3.2,13-7.2c0.9-1.1,3.8-4.1,3.7-5.5V13.1C195.7,10,192.7,7,189.6,7
	L189.6,7z M23.2,181.6c-0.3,0-0.6,0-1-0.1c-1.5-0.2-4.5-0.4-5.7-1.3v-161h9.1L26.1,181C25.2,181.4,24.2,181.6,23.2,181.6L23.2,181.6
	z M46.9,177.1c-1.1-0.3-3.4-1.3-4.4-1.4c-0.7-0.1-1.5-0.1-2.2-0.1c-0.9,0-4.7,1.4-5.5,1.6v-158h12.2L46.9,177.1L46.9,177.1z
	 M165.3,177.1c-0.9-0.1-4.9-1.6-5.8-1.6c-0.7,0-1.5,0-2.2,0.1c-1.1,0.1-3.1,1.1-4.2,1.4v-158h12.2V177.1z M183.6,180.2
	c-1.1,1-4.4,1.2-5.9,1.3c-0.3,0-0.6,0.1-0.9,0.1c-1,0-1.3-1-2.2-1.4v-161h9.1V180.2z"/>
</svg>
