<?xml version="1.0" encoding="utf-8"?>
<!-- Generator: Adobe Illustrator 19.0.0, SVG Export Plug-In . SVG Version: 6.00 Build 0)  -->
<svg version="1.1" id="图层_1" xmlns="http://www.w3.org/2000/svg" xmlns:xlink="http://www.w3.org/1999/xlink" x="0px" y="0px"
	 viewBox="0 0 200 200" style="enable-background:new 0 0 200 200;" xml:space="preserve">
<style type="text/css">
	.st0{fill:#00AAEF;}
</style>
<path class="st0" d="M96.2,151.9c-13.1,6.3-28.2,10.1-44.4,6.3c-16.3-3.8-27.9-14.3-25.9-33.5c2-19.2,22.6-25.9,39.5-25.9
	c16.9,0,49,11,49,11s2.7-6,5.3-13c2.6-6.9,3.4-12.5,3.4-12.5H54.7v-6.8h33.2V64.4l-41.4,0.3v-8.6h41.4V36.4h21.7v19.7H154v8.6
	L109.6,65v12.2l36.6,0.3c0,0-0.7,6.8-5.3,19.3c-4.6,12.5-9,18.8-9,18.8l55.6,18.2V47.5c0-19.3-15.7-35-35-35h-105
	c-19.3,0-35,15.7-35,35v105c0,19.3,15.7,35,35,35h105c16.1,0,29.6-10.9,33.7-25.7l-64.1-30.4C122.1,131.4,109.3,145.6,96.2,151.9z"
	/>
<path class="st0" d="M58.2,109.3c-20.4,1.3-25.4,10.3-25.4,18.5s5,19.7,29,19.7c24,0,44.3-24.2,44.3-24.2S78.6,108.1,58.2,109.3z"/>
</svg>
