<?xml version="1.0" encoding="utf-8"?>
<!-- Generator: Adobe Illustrator 19.0.0, SVG Export Plug-In . SVG Version: 6.00 Build 0)  -->
<svg version="1.1" id="图层_1" xmlns="http://www.w3.org/2000/svg" xmlns:xlink="http://www.w3.org/1999/xlink" x="0px" y="0px"
	 viewBox="0 0 200 200" style="enable-background:new 0 0 200 200;" xml:space="preserve">
<style type="text/css">
	.st0{fill:#00C800;}
</style>
<path class="st0" d="M78.3,118.8c-2.6,1.3-5.8,0.4-7.2-2.2l-0.4-0.8L55.9,83.3c-0.2-0.4-0.3-0.7-0.3-1.1c0-1.5,1.2-2.7,2.7-2.7
	c0.6,0,1.2,0.2,1.6,0.5l17.5,12.4c2.1,1.4,4.8,1.7,7.2,0.8L167,56.6c-14.8-17.4-39.1-28.7-66.6-28.7C55.5,27.8,19,58.2,19,95.7
	c0,20.4,11,38.9,28.1,51.3c1.4,1,2.3,2.7,2.3,4.4c0,0.6-0.1,1.2-0.3,1.8l-3.7,13.7c-0.2,0.6-0.4,1.3-0.4,2c0,1.5,1.2,2.7,2.7,2.7
	c0.6,0,1.1-0.2,1.6-0.5l17.8-10.3c1.3-0.8,2.8-1.2,4.3-1.3c0.8,0,1.6,0.1,2.4,0.4c8.7,2.5,17.6,3.7,26.6,3.7
	c45,0,81.5-30.4,81.5-67.9c0-11.2-3.3-22.1-9.3-31.5l-93.8,54.2L78.3,118.8L78.3,118.8z"/>
</svg>
