<?xml version="1.0" encoding="utf-8"?>
<!-- Generator: Adobe Illustrator 19.0.0, SVG Export Plug-In . SVG Version: 6.00 Build 0)  -->
<svg version="1.1" id="图层_1" xmlns="http://www.w3.org/2000/svg" xmlns:xlink="http://www.w3.org/1999/xlink" x="0px" y="0px"
	 viewBox="0 0 200 200" style="enable-background:new 0 0 200 200;" xml:space="preserve">
<style type="text/css">
	.st0{fill:#25C0B1;}
</style>
<path class="st0" d="M176,88.1l-66.4-68c-2.1-2.1-4.9-3.3-7.9-3.3c-2.9,0-5.7,1.1-7.8,3.2L67.2,46.1v-1c0-4.3-3.5-7.8-7.8-7.8H45.8
	c-4.3,0-7.8,3.5-7.8,7.8v29.5L24.3,87.9c-9.5,9.7-4.5,19.4-0.2,23.8c2.1,2.2,5,3.4,8,3.4c0.8,0,1.7-0.1,2.5-0.3v53.8
	c0,8,6.5,14.6,14.6,14.6h34c4.3,0,7.8-3.5,7.8-7.8v-30.6c0-1.3,1.1-2.4,2.4-2.4H107c1.3,0,2.4,1.1,2.4,2.4v30.6
	c0,4.3,3.5,7.8,7.8,7.8h34c8,0,14.6-6.5,14.6-14.6V115c0.8,0.2,1.6,0.3,2.5,0.3c3,0,5.8-1.2,7.9-3.3s5-5.8,5-14
	C180.9,94.9,180.9,93.5,176,88.1z M46.7,67.9V50.4c0-1.3,1.1-2.4,2.4-2.4h6.8c1.3,0,2.4,1.1,2.4,2.4v6.2L46.7,67.9z M110.3,133.5
	H89.9c-4.3,0-7.8,3.5-7.8,7.8v30.6c0,1.3-1.1,2.4-2.4,2.4H49.1c-3.2,0-5.8-2.6-5.8-5.8v-60l57.1-55.8c0.5-0.5,0.9-0.7,1.1-0.7
	c0.1,0,0.4,0.1,1.2,0.8l54.2,55.7v60c0,3.2-2.6,5.8-5.8,5.8h-30.6c-1.3,0-2.4-1.1-2.4-2.4v-30.6C118,137,114.6,133.5,110.3,133.5z
	 M94.8,45.6c-1.5,1.3-60.5,59.4-61.1,59.9c-3.5,2.3-10-4-5.2-9.6c3-3,71.4-69.7,71.4-69.7c0.5-0.4,1-0.7,1.7-0.7
	c0.4,0,1.1,0.1,1.7,0.7l64.8,67c7.6,6.6,0,14-3.4,11.4c-19.7-20.2-55.5-58.1-56.8-59.2c-3.1-2.9-4.2-4-6.2-4
	C99.7,41.4,98,42.7,94.8,45.6z"/>
</svg>
