<?xml version="1.0" encoding="utf-8"?>
<!-- Generator: Adobe Illustrator 19.0.0, SVG Export Plug-In . SVG Version: 6.00 Build 0)  -->
<svg version="1.1" id="图层_1" xmlns="http://www.w3.org/2000/svg" xmlns:xlink="http://www.w3.org/1999/xlink" x="0px" y="0px"
	 viewBox="-380 181 200 200" style="enable-background:new -380 181 200 200;" xml:space="preserve">
<style type="text/css">
	.st0{fill:#25C0B1;}
</style>
	<path class="st0" d="M117.7,67.4c0-9.3-7.5-16.8-16.8-16.8s-16.8,7.5-16.8,16.8c0,9.3,7.5,16.8,16.8,16.8
		C110.2,84.2,117.7,76.7,117.7,67.4z"/>
	<path class="st0" d="M179.3,1H20.7C9.3,1,0,10.6,0,22.4v157.2C0,191.4,9.3,201,20.7,201h158.6c11.4,0,20.7-9.6,20.7-21.5V22.4
		C200,10.6,190.7,1,179.3,1z M100.9,36.8c21.1,0,38.2,17.1,38.2,38.2s-38.2,57.3-38.2,57.3S62.7,96.1,62.7,75S79.8,36.8,100.9,36.8z
		 M101,162c-31.1,0-56.3-10.4-56.3-23.1c0-8.4,11-15.8,27.5-19.8c1.1,1.3,2.2,2.6,3.3,3.8c-10.2,2.9-16.8,7.4-16.8,12.5
		c0,8.7,18.9,15.7,42.3,15.7s42.3-7.1,42.3-15.7c0-5.1-6.6-9.6-16.8-12.5c1.1-1.3,2.2-2.5,3.3-3.8c16.5,4,27.5,11.4,27.5,19.8
		C157.3,151.7,132.1,162,101,162z"/>
</svg>
