<?xml version="1.0" standalone="no"?><!DOCTYPE svg PUBLIC "-//W3C//DTD SVG 1.1//EN"
  "http://www.w3.org/Graphics/SVG/1.1/DTD/svg11.dtd">
<svg t="1495683111963" class="icon" style="" viewBox="0 0 1024 1024" version="1.1" xmlns="http://www.w3.org/2000/svg"
     p-id="5695" xmlns:xlink="http://www.w3.org/1999/xlink" width="200" height="200">
  <defs>
    <style type="text/css"></style>
  </defs>
  <path
    d="M693.9 675.7c0 10-8.2 18.2-18.2 18.2H348.3c-10 0-18.2-8.2-18.2-18.2V348.3c0-10 8.2-18.2 18.2-18.2h327.4c10 0 18.2 8.2 18.2 18.2v327.4z m-18.2-363.8H348.3c-20 0-36.4 16.4-36.4 36.4v327.4c0 20 16.4 36.4 36.4 36.4h327.4c20 0 36.4-16.4 36.4-36.4V348.3c0-20-16.4-36.4-36.4-36.4z m-36.4 109.2c-10 0-18.2 8.2-18.2 18.2v18.2c0 10 8.2 18.2 18.2 18.2v72.8c-10 0-18.2 8.2-18.2 18.2v18.2c0 10 8.2 18.2 18.2 18.2v36.4H384.7V384.7h254.6v36.4z m18.2 0v-54.6h-291v291h291V603c10 0 18.2-8.2 18.2-18.2v-18.2c0-10-8.2-18.2-18.2-18.2v-72.8c10 0 18.2-8.2 18.2-18.2v-18.2c0-9.9-8.2-18.1-18.2-18.1z m137 302.6c0 39-31.7 70.8-70.8 70.8H300.3c-39 0-70.8-31.8-70.8-70.8V300.3c0-39 31.7-70.7 70.8-70.7h423.4c39 0 70.8 31.7 70.8 70.7v423.4zM723.7 206H300.3c-52.2 0-94.3 42.2-94.3 94.3v423.4c0 52.2 42.2 94.3 94.3 94.3h423.4c52.2 0 94.3-42.2 94.3-94.3V300.3c0-52.2-42.2-94.3-94.3-94.3zM512 530.2c10 0 18.2-8.2 18.2-18.2s-8.2-18.2-18.2-18.2-18.2 8.2-18.2 18.2 8.2 18.2 18.2 18.2z m-45.5-27.3h-8.2c1.8-8.2 4.5-15.5 9.1-22.7l5.4 5.5c3.6 3.6 9.1 3.6 12.7 0 3.6-3.6 3.6-9.1 0-12.7l-5.5-5.5c6.4-4.5 14.6-8.2 22.7-9.1v8.2c0 5.4 3.6 9.1 9.1 9.1s9.1-3.6 9.1-9.1v-8.2c8.2 1.8 15.5 4.5 22.7 9.1l-5.5 5.5c-3.6 3.6-3.6 9.1 0 12.7 3.6 3.6 9.1 3.6 12.7 0l5.5-5.5c4.5 6.4 8.2 14.5 9.1 22.7h-8.2c-5.5 0-9.1 3.6-9.1 9.1s3.6 9.1 9.1 9.1h8.2c-1.8 8.2-4.5 15.5-9.1 22.7l-5.5-5.5c-3.6-3.6-9.1-3.6-12.7 0-3.6 3.6-3.6 9.1 0 12.7l5.5 5.5c-6.4 4.5-14.5 8.2-22.7 9.1v-8.2c0-5.5-3.6-9.1-9.1-9.1s-9.1 3.6-9.1 9.1v8.2c-8.2-1.8-15.5-4.5-22.7-9.1l5.5-5.5c3.6-3.6 3.6-9.1 0-12.7-3.6-3.6-9.1-3.6-12.7 0l-5.4 5.5c-4.6-6.4-8.2-14.5-9.1-22.7h8.2c5.5 0 9.1-3.6 9.1-9.1 0-5.4-3.6-9.1-9.1-9.1z m45.5 81.9c20.9 0 38.2-8.2 51.8-20.9 12.7-12.7 20.9-30.9 20.9-51.9 0-40-32.7-72.7-72.8-72.7-40 0-72.8 32.7-72.8 72.7 0 20 8.2 38.2 20.9 51.9 12.9 12.7 31.1 20.9 52 20.9z"
    p-id="5696"></path>
</svg>
