<?xml version="1.0" encoding="utf-8"?>
<!-- Generator: Adobe Illustrator 19.0.0, SVG Export Plug-In . SVG Version: 6.00 Build 0)  -->
<svg version="1.1" id="图层_1" xmlns="http://www.w3.org/2000/svg" xmlns:xlink="http://www.w3.org/1999/xlink" x="0px" y="0px"
	 viewBox="0 0 200 200" style="enable-background:new 0 0 200 200;" xml:space="preserve">
<style type="text/css">
	.st0{fill:#ED6666;}
</style>
<path class="st0" d="M100,12.8c-48.2,0-87.2,39.1-87.2,87.3s39.1,87.3,87.2,87.3c48.2,0,87.2-39.1,87.2-87.3
	C187.3,51.8,148.2,12.8,100,12.8L100,12.8z M148.1,127.2c-2.3,2.1-6.1-0.2-9.8-5.3c-1.6,4.4-3.7,8.4-6.2,12c5.3,1.9,8.6,4.8,8.6,8.1
	c0,5.7-10.1,10.3-22.6,10.3c-7.4,0-13.9-1.6-18.1-4.1c-4.1,2.5-10.7,4.1-18.1,4.1c-12.5,0-22.6-4.6-22.6-10.3c0-3.3,3.4-6.2,8.6-8.1
	c-2.5-3.6-4.5-7.6-6.2-12c-3.7,5.1-7.6,7.4-9.8,5.3c-3.1-2.9-1.9-13.1,2.7-22.8c1.1-2.2,2.2-4.2,3.3-5.9c0.6-28.2,19.2-50.8,42-50.8
	h0.1c22.8,0,41.3,22.6,42,50.8c1.2,1.7,2.3,3.7,3.3,5.9C150,114.1,151.2,124.3,148.1,127.2L148.1,127.2z"/>
</svg>
