<?xml version="1.0" encoding="utf-8"?>
<!-- Generator: Adobe Illustrator 19.0.0, SVG Export Plug-In . SVG Version: 6.00 Build 0)  -->
<svg version="1.1" id="图层_1" xmlns="http://www.w3.org/2000/svg" xmlns:xlink="http://www.w3.org/1999/xlink" x="0px" y="0px"
	 viewBox="0 0 200 200" style="enable-background:new 0 0 200 200;" xml:space="preserve">
<style type="text/css">
	.st0{fill:#25C0B1;}
</style>
<path class="st0" d="M102.6,188.8c-48.3,0-87.5-39.2-87.5-87.5s39.2-87.5,87.5-87.5S190,53,190,101.3S150.9,188.8,102.6,188.8z
	 M102.6,16.6c-46.7,0-84.7,38-84.7,84.7s38,84.7,84.7,84.7s84.7-38,84.7-84.7S149.3,16.6,102.6,16.6z"/>
<path class="st0" d="M136.8,64.2h-15.6c0-3.4-2.8-5.2-6.2-5.2H90c-3.5,0-6.2,1.8-6.2,5.2H68.2c-3.5,0-6.2,2.8-6.2,6.2v68
	c0,3.4,2.8,6.2,6.2,6.2h68.6c3.5,0,6.2-2.8,6.2-6.2v-68C143.1,66.9,140.3,64.2,136.8,64.2z M93.2,64.2h18.7c1.7,0,3.1,1.4,3.1,3.1
	c0,1.7-1.4,3.1-3.1,3.1H93.2c-1.7,0-3.1-1.4-3.1-3.1C90,65.6,91.4,64.2,93.2,64.2z M137.8,136.2c0,1.7-1.4,3.1-3.1,3.1H70.3
	c-1.7,0-3.1-1.4-3.1-3.1V72.4c0-1.7,1.4-3.1,3.1-3.1h13.5c0,3.4,2.8,6.2,6.2,6.2h25c3.5,0,6.2-2.8,6.2-6.2h13.5
	c1.7,0,3.1,1.4,3.1,3.1C137.8,72.4,137.8,136.2,137.8,136.2z M118.9,92.9l-22.7,22.5l-10.3-10.2c-1.2-1.2-3.1-1.2-4.2,0
	s-1.2,3,0,4.2l12,11.9c0.1,0.2,0.3,0.5,0.5,0.7c0.6,0.6,1.5,0.9,2.3,0.9c0.7,0,1.4-0.2,2-0.7c0.1-0.1,0.2-0.1,0.3-0.2l24.8-24.5
	c1.3-1.2,1.3-3.2,0-4.5C122.1,91.7,120.1,91.7,118.9,92.9z"/>
</svg>
