<?xml version="1.0" encoding="utf-8"?>
<!-- Generator: Adobe Illustrator 19.0.0, SVG Export Plug-In . SVG Version: 6.00 Build 0)  -->
<svg version="1.1" id="图层_1" xmlns="http://www.w3.org/2000/svg" xmlns:xlink="http://www.w3.org/1999/xlink" x="0px" y="0px"
	 viewBox="0 0 200 200" style="enable-background:new 0 0 200 200;" xml:space="preserve">
<style type="text/css">
	.st0{fill:#25C0B1;}
</style>
<path class="st0" d="M178.1,142.5c0.3-2.6,0.4-5.2,0.4-7.8c0-38.5-27.9-70.6-64.5-77.1c2.8-3.2,4.4-7.4,4.4-11.9
	c0-10.1-8.2-18.3-18.3-18.3s-18.3,8.2-18.3,18.3c0,4.6,1.7,8.7,4.4,11.9c-36.6,6.6-64.5,38.7-64.5,77.1c0,2.7,0.1,5.3,0.4,8
	c-5.5,2.4-9.4,7.9-9.4,14.3c0,8.6,7,15.6,15.6,15.6h143.8c8.6,0,15.6-7,15.6-15.6C187.9,150.4,183.8,144.8,178.1,142.5L178.1,142.5z
	 M100.1,35.1c5.8,0,10.5,4.7,10.5,10.5s-4.7,10.5-10.5,10.5c-5.8,0-10.5-4.7-10.5-10.5S94.4,35.1,100.1,35.1L100.1,35.1z
	 M100.1,64.1c38.9,0,70.5,31.7,70.5,70.6c0,2.2-0.1,4.3-0.3,6.7H29.9c-0.2-2.4-0.3-4.4-0.3-6.7C29.6,95.8,61.2,64.1,100.1,64.1
	L100.1,64.1z M172.2,164.8H28.4c-4.3,0-7.8-3.5-7.8-7.8c0-4,3-7.2,6.8-7.7h145.8c3.8,0.5,6.8,3.8,6.8,7.7
	C180,161.3,176.5,164.8,172.2,164.8z"/>
<path class="st0" d="M54,104c2.2,0,3.9-1.7,3.9-3.9c0-2.2,2.9-6.8,9.2-11.6c6.1-4.7,12.2-7.2,15.1-7.2c2.2,0,3.9-1.7,3.9-3.9
	c0-2.2-1.7-3.9-3.9-3.9c-6.2,0-14.3,4.5-19.8,8.8c-3.7,2.8-12.2,10.2-12.2,17.8C50.1,102.3,51.9,104,54,104z"/>
</svg>
