<?xml version="1.0" standalone="no"?><!DOCTYPE svg PUBLIC "-//W3C//DTD SVG 1.1//EN"
  "http://www.w3.org/Graphics/SVG/1.1/DTD/svg11.dtd">
<svg t="1493881887145" class="icon" style="" viewBox="0 0 1024 1024" version="1.1" xmlns="http://www.w3.org/2000/svg"
     p-id="27633" xmlns:xlink="http://www.w3.org/1999/xlink" width="200" height="200">
  <defs>
    <style type="text/css"></style>
  </defs>
  <path
    d="M877.986909 490.682182c-6.283636 11.147636-20.549818 15.127273-31.697454 8.843636l-114.618182-64.651636a23.342545 23.342545 0 0 1-8.843637-31.697455c6.283636-11.147636 20.549818-15.127273 31.697455-8.843636l114.618182 64.651636c11.170909 6.283636 15.127273 20.549818 8.843636 31.697455z"
    fill="#25c0b1" p-id="27634"></path>
  <path
    d="M846.498909 499.991273c11.403636 5.794909 25.483636 1.210182 31.278546-10.216728l59.601454-117.317818a23.319273 23.319273 0 0 0-10.216727-31.278545 23.365818 23.365818 0 0 0-31.301818 10.216727l-59.601455 117.317818c-5.748364 11.403636-1.163636 25.483636 10.24 31.278546zM332.637091 465.803636h272.314182v23.272728H332.637091zM332.567273 548.421818h272.360727v23.272727H332.567273z"
    fill="#25c0b1" p-id="27635"></path>
  <path d="M457.076364 432.058182h23.272727v264.192h-23.272727z" fill="#25c0b1" p-id="27636"></path>
  <path
    d="M470.039273 921.204364h-0.349091a406.621091 406.621091 0 0 1-289.256727-120.087273c-77.218909-77.358545-119.691636-180.154182-119.598546-289.466182s42.752-212.014545 120.110546-289.256727a406.481455 406.481455 0 0 1 289.093818-119.621818h0.372363c207.918545 0.186182 382.557091 155.857455 406.178909 362.123636a23.272727 23.272727 0 0 1-46.219636 5.282909c-20.945455-182.784-175.732364-320.721455-360.005818-320.884364h-0.325818A360.261818 360.261818 0 0 0 213.829818 255.301818c-68.561455 68.445091-106.356364 159.488-106.449454 256.372364s37.562182 187.973818 106.007272 256.535273a360.424727 360.424727 0 0 0 256.349091 106.426181h0.302546c99.281455 0 191.953455-39.330909 260.910545-110.778181a23.272727 23.272727 0 0 1 33.489455 32.325818 405.76 405.76 0 0 1-294.4 125.021091z"
    fill="#25c0b1" p-id="27637"></path>
  <path
    d="M560.453818 378.391273l-75.031273 65.675636a11.682909 11.682909 0 0 1-16.430545-1.093818 11.682909 11.682909 0 0 1 1.093818-16.430546l75.031273-65.675636a11.682909 11.682909 0 0 1 16.430545 1.093818 11.706182 11.706182 0 0 1-1.093818 16.430546z"
    fill="#25c0b1" p-id="27638"></path>
  <path
    d="M376.994909 378.391273l75.031273 65.675636c4.817455 4.212364 12.194909 3.723636 16.430545-1.093818a11.682909 11.682909 0 0 0-1.093818-16.430546l-75.031273-65.675636a11.682909 11.682909 0 0 0-16.430545 1.093818 11.682909 11.682909 0 0 0 1.093818 16.430546z"
    fill="#25c0b1" p-id="27639"></path>
</svg>
