<?xml version="1.0" encoding="utf-8"?>
<!-- Generator: Adobe Illustrator 19.0.0, SVG Export Plug-In . SVG Version: 6.00 Build 0)  -->
<svg version="1.1" id="图层_1" xmlns="http://www.w3.org/2000/svg" xmlns:xlink="http://www.w3.org/1999/xlink" x="0px" y="0px"
	 viewBox="0 0 200 200" style="enable-background:new 0 0 200 200;" xml:space="preserve">
<style type="text/css">
	.st0{fill:#7E7B7B;}
</style>
<path class="st0" d="M47.5,58.8v82.4H20.1c-7.6,0-13.7-6.2-13.7-13.6V72.4c0-7.5,6.1-13.6,13.7-13.6L47.5,58.8L47.5,58.8z
	 M156.7,85.4L137.2,66c-4-4-10.5-4-14.6,0c-4,4-4,10.5,0,14.6L142,100l-19.4,19.4c-4,4-4,10.5,0,14.6c4,4,10.5,4,14.6,0l19.4-19.4
	L176,134c4,4,10.5,4,14.6,0c4-4,4-10.5,0-14.6L171.2,100l19.4-19.4c4-4,4-10.5,0-14.6c-4-4-10.5-4-14.6,0L156.7,85.4L156.7,85.4z
	 M91.5,25.9c6.1-4.5,11-2,11,5.5v137.2c0,7.6-4.9,10.1-11,5.5l-43.9-32.9V58.8L91.5,25.9z"/>
</svg>
