<?xml version="1.0" encoding="utf-8"?>
<!-- Generator: Adobe Illustrator 19.0.0, SVG Export Plug-In . SVG Version: 6.00 Build 0)  -->
<svg version="1.1" id="图层_1" xmlns="http://www.w3.org/2000/svg" xmlns:xlink="http://www.w3.org/1999/xlink" x="0px" y="0px"
	 viewBox="0 0 200 200" style="enable-background:new 0 0 200 200;" xml:space="preserve">
<style type="text/css">
	.st0{fill:#25C0B1;}
</style>
<path class="st0" d="M167.1,131H94.8c-2,0-3.8,0.7-5.3,2l-25.8,23.2c-0.3,0.2-0.6,0.4-0.9,0.4H33.5c-4.6,0-8.5,3.8-8.5,8.5v8.6
	c0,4.6,3.8,8.5,8.5,8.5h44.2c1.9,0,3.8-0.7,5.3-1.8l1.9-1.5l0,0h0l10.4-8.3c0.2-0.1,0.3-0.2,0.5-0.2h71.3c4.3,0,7.9-3.5,7.9-7.9
	v-23.4C175,134.6,171.5,131,167.1,131z M167.9,162.3c0,0.5-0.4,0.8-0.8,0.8h-63.3l1.7-1.4c1.5-1.3,1.7-3.5,0.5-5
	c-1.3-1.5-3.5-1.7-5-0.5l-20.7,17l-1.8,1.4c-0.2,0.2-0.5,0.3-0.9,0.3H33.5c-0.8,0-1.4-0.6-1.4-1.4v-8.6c0-0.8,0.6-1.4,1.4-1.4h29.3
	c2.1,0,4.1-0.8,5.7-2.2l25.8-23.2c0.2-0.1,0.4-0.2,0.5-0.2h72.3c0.4,0,0.8,0.4,0.8,0.8L167.9,162.3L167.9,162.3z M56.9,148.2
	c11.7,0,21.2-9.5,21.2-21.2c0-11.7-9.5-21.2-21.2-21.2s-21.2,9.5-21.2,21.2C35.7,138.6,45.2,148.2,56.9,148.2z M56.9,112.9
	c7.8,0,14.1,6.3,14.1,14.1c0,7.8-6.3,14.1-14.1,14.1c-7.8,0-14.1-6.3-14.1-14.1S49.1,112.9,56.9,112.9z M90.7,123.6
	c3,3.4,8.2,4.1,12.1,1.6l5.4-3.6c0,0,0,0,0,0l0.2-0.1l8.2-5.4v8.8c0,2,1.6,3.5,3.5,3.5c2,0,3.5-1.6,3.5-3.5v-14.3l8.5-6.1
	c1.6-1.1,2-3.4,0.8-4.9c-1.1-1.6-3.4-2-4.9-0.8l-23.7,16.9l-5.5,3.6c-0.9,0.6-2.2,0.5-2.9-0.4l-2.5-2.9c-0.8-0.9-0.8-2.2,0-3
	l33.9-36.7c2.1-2.3,5.2-3.4,8.3-3s5.8,2.2,7.3,5c6.3,11.3,10.5,25.1,13,42.2c0.3,1.9,2.1,3.2,4,3c1.9-0.3,3.3-2.1,3-4
	c-2.6-18-7.1-32.5-13.8-44.6c-2.6-4.7-7.3-7.9-12.7-8.6c-5.4-0.6-10.7,1.3-14.3,5.3l-33.9,36.8c-3.3,3.6-3.3,9-0.1,12.6L90.7,123.6z
	 M117.5,63.2c11.8,0,21.3-9.1,22.3-20.6c4.5-2.1,7.7-6.7,7.7-12.1c0-7.4-6-13.4-13.4-13.4c-2.9,0-5.7,1-8,2.8
	c-2.8-1.2-5.6-1.8-8.6-1.8C105.1,18.2,95,28.3,95,40.7C95,53.1,105.1,63.2,117.5,63.2z M117.5,25.2c2.5,0,5,0.7,7.5,2
	c1.6,0.9,3.7,0.4,4.7-1.2c0.1,0,0.2-0.1,0.2-0.1c1.2-1.1,2.7-1.6,4.2-1.6c3.5,0,6.3,2.9,6.3,6.3c0,3.8-3.7,6.8-7.4,6.2
	c-2-0.4-3.8,1-4.1,2.9c-0.3,1.9,1,3.8,2.9,4.1c0.2,0,0.5,0,0.7,0c-1.5,7-7.7,12.3-15.1,12.3c-8.5,0-15.5-7-15.5-15.5
	C102,32.2,109,25.2,117.5,25.2z"/>
</svg>
