<?xml version="1.0" encoding="utf-8"?>
<!-- Generator: Adobe Illustrator 19.0.0, SVG Export Plug-In . SVG Version: 6.00 Build 0)  -->
<svg version="1.1" id="图层_1" xmlns="http://www.w3.org/2000/svg" xmlns:xlink="http://www.w3.org/1999/xlink" x="0px" y="0px"
	 viewBox="1 0 201.2 200" style="enable-background:new 1 0 201.2 200;" xml:space="preserve">
<style type="text/css">
	.st0{fill:#25C0B1;}
</style>
<path class="st0" d="M197.5,143.5h-1.2h-0.6c0,0-5.3-2.9-14.1-2.9c-7.1,0-17.1,8.2-28.2,8.2c-8.8,0-18.2-8.2-28.2-8.2
	c-8.8,0-18.8,8.2-28.2,8.2s-18.8-8.2-28.2-8.2s-18.8,8.2-28.2,8.2c-10,0-20-8.2-28.2-8.2c-2.4,0-4.7,0.6-7.1,1.2
	c-2.4,0-4.1,1.8-4.1,4.1s1.8,4.1,4.1,4.1c0.6,0,0.6-0.6,1.2-0.6c1.8-0.6,3.5-0.6,5.9-0.6c8.2,0,18.2,8.2,28.2,8.2
	c8.8,0,18.8-8.2,28.2-8.2c9.4,0,18.8,8.2,28.2,8.2c9.4,0,18.8-8.2,28.2-8.2c10,0,19.4,8.2,28.2,8.2c11.2,0,21.2-8.2,28.2-8.2
	c8.8,0,14.1,2.9,14.1,2.9h1.8c2.4,0,4.1-1.8,4.1-4.1C201.6,145.3,199.8,143.5,197.5,143.5z M197.5,171.8h-1.2h-0.6
	c0,0-5.3-2.9-14.1-2.9c-7.1,0-17.1,8.2-28.2,8.2c-8.8,0-18.2-8.2-28.2-8.2c-8.8,0-18.8,8.2-28.2,8.2s-18.8-8.2-28.2-8.2
	s-18.8,8.2-28.2,8.2c-10,0-20-8.2-28.2-8.2c-2.4,0-4.7,0.6-7.1,1.2c-2.4,0-4.1,1.8-4.1,4.1c0,2.4,1.8,4.1,4.1,4.1h0.6
	c2.4-0.6,4.1-1.2,6.5-1.2c8.2,0,18.2,8.2,28.2,8.2c8.8,0,18.8-8.2,28.2-8.2s18.8,8.2,28.2,8.2s18.8-8.2,28.2-8.2
	c10,0,19.4,8.2,28.2,8.2c11.2,0,21.2-8.2,28.2-8.2c8.8,0,14.1,2.9,14.1,2.9h1.8c2.4,0,4.1-1.8,4.1-4.1
	C201.6,173.5,199.8,171.8,197.5,171.8z M5.7,122.4C5.7,122.4,6.3,121.8,5.7,122.4c2.4-0.6,4.7-1.2,7.1-1.2c8.2,0,18.2,8.2,28.2,8.2
	c8.8,0,18.8-8.2,28.2-8.2s18.8,8.2,28.2,8.2c9.4,0,18.8-8.2,28.2-8.2c10,0,19.4,8.2,28.2,8.2c11.2,0,21.2-8.2,28.2-8.2
	c8.8,0,14.1,2.9,14.1,2.9h1.8c2.4,0,4.1-1.8,4.1-4.1c0-2.4-1.8-4.1-4.1-4.1h-1.2h-0.6c0,0-5.3-2.9-14.1-2.9
	c-7.1,0-17.1,8.2-28.2,8.2c-2.9,0-5.9-1.2-8.8-2.4V38.2c0.6-8.8,7.6-15.3,16.5-15.3c8.8,0,15.9,7.1,16.5,15.3v19.4
	c0,2.4,1.8,4.1,4.1,4.1s4.1-1.8,4.1-4.1V39.4c0-14.1-11.2-25.3-25.3-25.3s-25.3,11.2-25.3,25.3v20H79.2V45.3
	c0-12.4,10-22.4,22.4-22.4h8.2c2.4,0,4.1-1.8,4.1-4.1s-1.8-4.1-4.1-4.1h-9.4c-14.7,0-28.2,13.5-28.2,30.6v67.6
	c-1.2,0-1.8-0.6-2.9-0.6c-9.4,0-18.8,8.2-28.2,8.2c-10,0-20-8.2-28.2-8.2c-2.4,0-4.7,0.6-7.1,1.2c-2.4,0-4.1,2.4-4.1,4.1
	C1.6,120,3.4,122.4,5.7,122.4L5.7,122.4z M80.4,67.6h56.5v20H80.4V67.6z M80.4,115.3V95.9h56.5v19.4c-3.5-1.8-7.6-2.9-11.2-2.9
	c-8.8,0-18.8,8.2-28.2,8.2c-5.9,0-11.8-3.5-17.6-5.9C79.8,114.7,80.4,115.3,80.4,115.3z"/>
</svg>
