<?xml version="1.0" standalone="no"?><!DOCTYPE svg PUBLIC "-//W3C//DTD SVG 1.1//EN"
  "http://www.w3.org/Graphics/SVG/1.1/DTD/svg11.dtd">
<svg t="1495173661304" class="icon" style="" viewBox="0 0 1024 1024" version="1.1" xmlns="http://www.w3.org/2000/svg"
     p-id="11596" xmlns:xlink="http://www.w3.org/1999/xlink" width="200" height="200">
  <defs>
    <style type="text/css"></style>
  </defs>
  <path
    d="M390.480816 422.621766C392.656528 420.286349 400.130086 412.38296 401.348838 411.081792 405.650128 406.489642 408.885606 402.907539 411.880374 399.364419 446.371811 358.55744 442.89535 320.26808 389.616541 258.489483 359.222826 223.249199 329.450198 209.648022 299.753935 216.414524 277.647792 221.451563 260.580948 235.074213 237.014084 261.231435 237.125356 261.107932 223.530177 276.410447 219.968862 280.229335 164.626738 339.627734 235.651324 509.725741 384.587472 648.638714 533.56767 787.528506 708.237107 846.530864 763.594403 787.118496 767.121475 783.339843 781.902906 768.24177 780.841792 769.338115 805.554986 743.804397 817.982 725.956912 821.606394 703.54583 826.494467 673.320928 810.887232 644.42401 773.453373 616.416886 706.639354 566.427133 668.451629 566.710973 628.959098 606.386723 624.310522 611.056864 602.431853 634.735808 609.64623 627.000304 598.200886 639.223338 547.437882 608.680573 480.224653 546.042173 413.046502 483.438224 379.014723 434.900506 390.467955 422.635558L390.480816 422.621766ZM367.07984 400.795315C334.884106 435.272838 373.453664 490.282547 458.408125 569.45241 543.380403 648.641098 600.845715 683.216464 633.026378 648.84905 626.433494 655.918211 647.48103 633.13879 651.638819 628.961715 679.210986 601.261632 699.579382 601.110237 754.283158 642.0392 783.029878 663.546813 792.749139 681.542099 790.016832 698.437062 787.775366 712.296938 778.184 726.07191 757.847939 747.083165 759.167149 745.720157 744.03471 761.176758 740.191872 765.293709 701.608262 806.703664 543.931629 753.441382 406.411053 625.235053 268.924674 497.001296 204.80709 343.444986 243.376656 302.048481 247.243888 297.901553 261.135496 282.265382 260.788029 282.65104 280.127976 261.18534 293.240777 250.718782 306.863143 247.61483 323.460899 243.832915 342.037242 252.319238 365.383907 279.388751 409.054947 330.026813 410.949587 350.89417 387.440928 378.707373 384.859552 381.761411 381.955277 384.976826 377.993875 389.206106 376.856982 390.419878 369.342902 398.366115 367.066979 400.809107L367.07984 400.795315Z"
    p-id="11597" fill="#7e7b7b"></path>
</svg>
