<?xml version="1.0" encoding="utf-8"?>
<!-- Generator: Adobe Illustrator 19.0.0, SVG Export Plug-In . SVG Version: 6.00 Build 0)  -->
<svg version="1.1" id="图层_1" xmlns="http://www.w3.org/2000/svg" xmlns:xlink="http://www.w3.org/1999/xlink" x="0px" y="0px"
	 viewBox="0 0 200.2 200" style="enable-background:new 0 0 200.2 200;" xml:space="preserve">
<style type="text/css">
	.st0{fill:#25C0B1;}
</style>
<path class="st0" d="M168.4,173.7h-21.1l21.1,26.3h-21.1l-21.1-26.3H73.7L52.6,200H31.6l21.1-26.3H31.6c-5.8,0-10.5-4.7-10.5-10.5
	V85.9V68.4V47.4C21.1,21.2,42.3,0,68.4,0h63.2c26.2,0,47.4,21.2,47.4,47.4v21.1v17.4v77.3C178.9,169,174.2,173.7,168.4,173.7z
	 M168.4,80.2v-8.3V52.6c0-23.3-18.9-42.1-42.1-42.1H73.7c-23.3,0-42.1,18.9-42.1,42.1v19.3v8.3V100h136.8V80.2z M168.4,110.5H31.6
	v47.4c0,2.9,2.4,5.3,5.3,5.3h126.3c2.9,0,5.3-2.4,5.3-5.3V110.5z M142.1,147.4c-5.8,0-10.5-4.7-10.5-10.5c0-5.8,4.7-10.5,10.5-10.5
	c5.8,0,10.5,4.7,10.5,10.5C152.6,142.7,147.9,147.4,142.1,147.4z M57.9,147.4c-5.8,0-10.5-4.7-10.5-10.5c0-5.8,4.7-10.5,10.5-10.5
	s10.5,4.7,10.5,10.5C68.4,142.7,63.7,147.4,57.9,147.4z M47.4,47.4h0.5c2.4-12,13.1-21.1,25.8-21.1h52.6c12.7,0,23.3,9,25.8,21.1
	h0.5v36.8H47.4V52.6l0,0l0,0V47.4z M105.3,73.7h36.8V50.2h-0.3c-1.6-7.6-8.3-13.4-16.4-13.4h-20.1V73.7z M57.9,73.7h36.8V36.8H74.7
	c-8.1,0-14.9,5.7-16.4,13.4h-0.3V73.7z"/>
</svg>
