<?xml version="1.0" standalone="no"?><!DOCTYPE svg PUBLIC "-//W3C//DTD SVG 1.1//EN"
  "http://www.w3.org/Graphics/SVG/1.1/DTD/svg11.dtd">
<svg t="1493879583699" class="icon" style="" viewBox="0 0 1024 1024" version="1.1" xmlns="http://www.w3.org/2000/svg"
     p-id="26844" xmlns:xlink="http://www.w3.org/1999/xlink" width="200" height="200">
  <defs>
    <style type="text/css"></style>
  </defs>
  <path
    d="M867.833753 178.591491H164.008866c-69.682036 0-126.373199 56.691163-126.373199 126.374222v419.591357c0 69.684082 56.691163 126.373199 126.373199 126.373199h464.687438c11.302417 0 20.466124-9.162684 20.466124-20.466124s-9.163707-20.466124-20.466124-20.466124H164.008866c-47.113017 0-85.440951-38.328957-85.440951-85.440951V399.577534h874.707812v80.362283c0 11.302417 9.162684 20.466124 20.466124 20.466124s20.466124-9.163707 20.466124-20.466124V304.965713c-0.001023-69.683059-56.692187-126.374222-126.374222-126.374222zM78.567915 358.645286V304.965713c0-47.113017 38.328957-85.441974 85.440951-85.441974h703.824887c47.113017 0 85.441974 38.328957 85.441974 85.441974v53.679573H78.567915z"
    fill="#25c0b1" p-id="26845"></path>
  <path
    d="M811.595914 681.59049V590.918397c0-8.477069-6.872524-15.349593-15.349593-15.349593s-15.349593 6.872524-15.349593 15.349593v92.359525a15.404852 15.404852 0 0 0 0.202615 8.175193 15.33936 15.33936 0 0 0 8.280593 11.336186l40.164769 44.098357a15.313777 15.313777 0 0 0 11.352559 5.013177c3.687996 0 7.390317-1.322112 10.332322-4.001127 6.26775-5.708002 6.719028-15.416108 1.01205-21.683858l-40.645722-44.62536zM186.420295 615.06433c-8.477069 0-15.349593 6.873548-15.349593 15.349593 0 8.477069 6.872524 15.349593 15.349593 15.349593h207.413933c8.477069 0 15.349593-6.872524 15.349593-15.349593 0-8.476045-6.872524-15.349593-15.349593-15.349593h-207.413933z"
    fill="#25c0b1" p-id="26846"></path>
  <path
    d="M804.07359 473.128691c-104.425328 0-189.381232 84.955904-189.381231 189.381231s84.955904 189.380208 189.381231 189.380208c104.424304 0 189.379185-84.955904 189.379185-189.380208s-84.954881-189.381232-189.379185-189.381231z m0 337.830215c-81.855286 0-148.448984-66.593697-148.448983-148.44796s66.593697-148.44796 148.448983-148.447961c81.854263 0 148.446937 66.593697 148.446937 148.447961S885.927853 810.958906 804.07359 810.958906z"
    fill="#25c0b1" p-id="26847"></path>
</svg>
