<?xml version="1.0" encoding="utf-8"?>
<!-- Generator: Adobe Illustrator 19.0.0, SVG Export Plug-In . SVG Version: 6.00 Build 0)  -->
<svg version="1.1" id="图层_1" xmlns="http://www.w3.org/2000/svg" xmlns:xlink="http://www.w3.org/1999/xlink" x="0px" y="0px"
	 viewBox="0 0 200 200" style="enable-background:new 0 0 200 200;" xml:space="preserve">
<style type="text/css">
	.st0{fill:#25C0B1;}
</style>
<path class="st0" d="M100,70.7c-12.6,0-24.9,2.5-36.5,7.4c-11.2,4.7-21.2,11.5-29.8,20.1c-0.1,0.1-0.1,0.1-0.2,0.2
	c2.9,2.9,5.8,5.9,8.9,8.9c14.7-14.8,35.1-24,57.6-24c22.4,0,42.7,9.1,57.4,23.8l8.9-8.9c-8.6-8.6-18.6-15.4-29.8-20.1
	C124.9,73.1,112.7,70.7,100,70.7z"/>
<path class="st0" d="M58.5,125.3c-0.1,0.1-0.1,0.1-0.2,0.2c3,3,6,6,8.9,8.8c8.4-8.5,20-13.7,32.8-13.7c12.7,0,24.3,5.2,32.7,13.6
	l8.8-8.8l0,0c-11.1-11.1-25.8-17.2-41.5-17.2C84.3,108.1,69.6,114.3,58.5,125.3z"/>
<path class="st0" d="M83.1,147.7c3.4,3.3,8.9,8.8,8.9,8.8l8.1,7.8l7.9-7.9l8.8-8.8c-4.3-4.3-10.2-7-16.8-7
	C93.4,140.6,87.4,143.4,83.1,147.7z"/>
<path class="st0" d="M190.9,73.3c-11.8-11.8-25.6-21.1-40.9-27.6c-15.9-6.7-32.7-10.1-50.1-10.1S65.7,39,49.8,45.8
	C34.5,52.2,20.8,61.5,9,73.3l8.9,8.9c21-21,50.1-34.1,82.1-34.1c32.1,0,61.1,13.1,82.2,34.1L190.9,73.3
	C191,73.4,190.9,73.3,190.9,73.3z"/>
</svg>
