<?xml version="1.0" encoding="utf-8"?>
<!-- Generator: Adobe Illustrator 19.0.0, SVG Export Plug-In . SVG Version: 6.00 Build 0)  -->
<svg version="1.1" id="图层_1" xmlns="http://www.w3.org/2000/svg" xmlns:xlink="http://www.w3.org/1999/xlink" x="0px" y="0px"
	 viewBox="6 0 212.1 200" style="enable-background:new 6 0 212.1 200;" xml:space="preserve">
<style type="text/css">
	.st0{fill:#7E7B7B;}
</style>
<path class="st0" d="M177.9,173.8c-26.2,0.7-30-27-30.5-30.6c-0.5-3.1-4.3-22.3-12.8-30.2c-3.8,5.7-10,9.6-17.2,10.4
	c2.4,12.3,7.3,46.3-8.8,60.9c-19.9,18.1-65.3,6.3-66.9-19.9c-1.7-26.2,25.9-31,29.5-31.6c3.1-0.6,22.1-5.1,29.6-13.9
	c-4.9-3.6-8.4-9.1-9.4-15.4c-6.1,0.8-48.8,5.8-63.7-14.2c-16.1-21.5-0.1-65.5,26.2-64.7C80,25.4,82.1,53.3,82.4,56.9
	c0.3,3.2,3.1,23.3,11.5,31.3c3.4-6.2,9.4-10.6,16.5-12c-1.5-9.4-6.6-48,11.7-62.9c20.8-17,65.5-2.9,65.8,23.4
	c0.3,26.3-27.5,29.5-31.1,30c-3.1,0.4-22.1,3.9-30.2,12.2c6.4,3.6,11,10.2,11.9,17.8c11.2-1.9,47.2-6.4,61.8,10.9
	C217.5,128.2,204.1,173.1,177.9,173.8L177.9,173.8z"/>
</svg>
